<svg width="177" height="122" viewBox="0 0 177 122" fill="none" xmlns="http://www.w3.org/2000/svg">
<path d="M157.593 59.4337C157.593 60.5255 157.559 61.6096 157.49 62.6861C157.239 66.7108 156.511 70.703 155.315 74.6008C155.313 74.6024 155.313 74.6024 155.315 74.604C155.158 75.1196 154.991 75.6335 154.815 76.1424C154.808 76.1671 154.8 76.19 154.79 76.213C154.53 76.9765 154.252 77.7328 153.956 78.482V78.4837C149.303 90.2549 140.468 100.48 128.691 107.724C116.914 114.967 102.788 118.864 88.296 118.867C55.5178 118.867 28.0574 99.3511 20.8482 73.1264C19.6158 68.639 18.9953 64.0439 18.999 59.4337C18.999 58.5175 19.0233 57.6063 19.0718 56.7001C19.6462 45.6207 23.8418 34.9033 31.1796 25.7716C31.2677 25.6599 31.3576 25.5483 31.4495 25.4383C43.9727 10.0594 64.7657 0 88.296 0C121.551 0 149.333 20.0892 156.044 46.8902C156.045 46.8911 156.046 46.8922 156.046 46.8935C156.479 48.6207 156.822 50.3741 157.076 52.1539C157.422 54.5691 157.594 57.0003 157.593 59.4337V59.4337Z" fill="#F2F2F2"/>
<path d="M175.638 109.283C175.121 110.888 174.313 112.413 173.244 113.803C170.855 116.901 167.436 119.27 163.678 121.166C163.418 121.299 163.153 121.429 162.889 121.557H160.253L160.161 121.376V121.375L160.054 121.166L160.041 121.142L160.035 121.166L159.93 121.557H158.636C158.529 121.427 158.423 121.297 158.32 121.166C158.169 120.974 158.023 120.78 157.885 120.583C157.642 120.239 157.425 119.881 157.235 119.513C157.212 119.472 157.192 119.431 157.173 119.39L157.259 119.309L156.901 117.966L157.621 117.864L156.833 115.778C156.861 115.701 156.894 115.623 156.928 115.546C157.37 114.586 158.201 113.868 159.187 113.266C160.202 112.643 161.383 112.144 162.468 111.626C162.977 111.381 163.479 111.123 163.967 110.851V110.849C164.591 110.503 165.197 110.132 165.784 109.737C165.794 109.732 165.803 109.726 165.812 109.719C165.821 109.714 165.828 109.709 165.835 109.703C168.467 107.94 170.694 105.772 172.403 103.311C172.404 103.311 172.404 103.311 172.404 103.311C172.404 103.311 172.404 103.311 172.405 103.311C172.405 103.311 172.405 103.311 172.405 103.31C172.405 103.31 172.405 103.31 172.405 103.31C172.463 103.231 172.516 103.152 172.57 103.072V103.07C173.27 102.038 173.872 100.959 174.371 99.8439V99.8423C174.409 99.7602 174.444 99.6781 174.48 99.596C174.53 99.6682 174.578 99.7405 174.624 99.8127C174.624 99.8127 174.624 99.8127 174.625 99.8128C174.625 99.8129 174.625 99.813 174.625 99.8132C174.625 99.8133 174.626 99.8135 174.626 99.8137C174.626 99.8139 174.626 99.8141 174.626 99.8143C176.483 102.663 176.659 106.094 175.638 109.283Z" fill="#F0F0F0"/>
<path d="M174.626 99.8143C174.644 101.335 174.46 102.852 174.076 104.336C173.904 105.015 173.689 105.686 173.433 106.345C172.936 107.636 172.286 108.879 171.494 110.056C171.45 110.12 171.408 110.182 171.362 110.245V110.246C171.023 110.736 170.656 111.211 170.261 111.668C169.664 112.397 168.926 113.034 168.079 113.55C167.387 113.942 166.605 114.201 165.786 114.31C165.632 114.335 165.475 114.353 165.317 114.369C164.683 114.433 164.028 114.458 163.4 114.573C163.082 114.626 162.773 114.712 162.478 114.827C161.467 115.229 160.898 116.072 160.65 116.971C160.605 117.129 160.571 117.288 160.544 117.447C160.336 118.671 160.565 119.941 160.447 121.166C160.433 121.296 160.416 121.427 160.395 121.557H160.253L160.161 121.376V121.375C160.171 121.306 160.179 121.237 160.186 121.166C160.232 120.564 160.238 119.961 160.204 119.359C160.196 119.088 160.19 118.815 160.194 118.543C160.198 118.324 160.207 118.106 160.226 117.889V117.887C160.24 117.753 160.255 117.62 160.276 117.487C160.337 117.08 160.454 116.68 160.625 116.297C160.791 115.901 161.053 115.541 161.394 115.239C161.734 114.936 162.145 114.699 162.6 114.543C162.878 114.454 163.164 114.385 163.456 114.338C164.097 114.233 164.759 114.206 165.405 114.138C165.474 114.131 165.542 114.123 165.609 114.113C165.696 114.101 165.78 114.088 165.864 114.075C166.708 113.947 167.505 113.65 168.192 113.21C169.008 112.656 169.717 111.996 170.294 111.253C170.608 110.867 170.906 110.473 171.184 110.067C171.184 110.067 171.184 110.067 171.184 110.067C171.184 110.067 171.184 110.066 171.184 110.066C171.185 110.066 171.185 110.066 171.185 110.066C171.185 110.066 171.185 110.066 171.186 110.066C171.199 110.046 171.212 110.028 171.226 110.008L171.228 110.005C172.418 108.26 173.288 106.368 173.804 104.395C173.822 104.323 173.841 104.251 173.86 104.178C174.215 102.754 174.387 101.3 174.371 99.8439V99.8422C174.371 99.7733 174.369 99.706 174.367 99.637C174.363 99.4958 174.618 99.4646 174.622 99.6058C174.624 99.6748 174.626 99.7437 174.624 99.8127C174.624 99.8127 174.624 99.8127 174.624 99.8128C174.625 99.8129 174.625 99.813 174.625 99.8132C174.625 99.8133 174.625 99.8135 174.625 99.8137C174.626 99.8139 174.626 99.8141 174.626 99.8143V99.8143Z" fill="white"/>
<path d="M171.253 110.2C171.982 110.518 172.819 110.603 173.615 110.44C174.411 110.277 175.113 109.877 175.597 109.311C175.694 109.196 175.491 109.061 175.393 109.176C174.944 109.704 174.29 110.077 173.548 110.227C172.807 110.377 172.027 110.295 171.35 109.996C171.203 109.931 171.106 110.136 171.253 110.2V110.2Z" fill="white"/>
<path d="M165.888 114.141C165.355 112.781 165.439 111.299 166.124 109.99C166.192 109.861 165.954 109.777 165.886 109.906C165.177 111.27 165.093 112.812 165.651 114.226C165.704 114.36 165.942 114.275 165.888 114.141V114.141Z" fill="white"/>
<path d="M173.934 104.198C173.622 104.126 173.336 103.988 173.101 103.797C172.866 103.606 172.691 103.369 172.59 103.105C172.538 102.97 172.301 103.056 172.352 103.19C172.465 103.481 172.66 103.743 172.919 103.955C173.177 104.166 173.492 104.32 173.836 104.403C173.868 104.413 173.903 104.412 173.934 104.401C173.965 104.39 173.99 104.369 174.004 104.342C174.017 104.315 174.017 104.285 174.004 104.258C173.99 104.231 173.965 104.21 173.934 104.198V104.198Z" fill="white"/>
<path d="M163.967 110.849V110.851C163.908 112.023 163.737 113.189 163.456 114.338V114.339C163.441 114.418 163.42 114.495 163.4 114.573C162.938 116.349 162.291 118.086 161.465 119.762C161.237 120.235 160.999 120.703 160.749 121.166C160.68 121.297 160.609 121.427 160.537 121.557H160.253L160.161 121.376V121.375L160.054 121.166L160.041 121.142L160.035 121.166L159.93 121.557H157.192L156.66 121.166L155.885 120.596L156.968 119.582L157.146 119.414L157.173 119.39L157.259 119.309L156.901 117.966L157.621 117.864L156.832 115.778L156.459 114.791L156.365 114.543L155.82 113.1L154.174 113.364L153.906 112.56C154.399 111.579 154.81 110.569 155.134 109.537C155.136 109.529 155.14 109.522 155.142 109.514C156.012 106.736 156.273 103.843 155.912 100.983V100.982C155.9 100.89 155.887 100.796 155.871 100.706V100.703C155.707 99.5174 155.431 98.3456 155.045 97.199C155.018 97.1119 154.987 97.0266 154.958 96.9412C155.046 96.974 155.133 97.0052 155.221 97.0381L155.223 97.0397H155.226C155.366 97.0922 155.506 97.1481 155.642 97.2072C158.908 98.5682 161.31 101.123 162.675 104.068C162.679 104.077 162.682 104.083 162.686 104.091C163.398 105.635 163.823 107.266 163.944 108.923C163.99 109.564 163.998 110.207 163.967 110.849V110.849Z" fill="#F0F0F0"/>
<path d="M158.999 121.557H158.697C158.601 121.424 158.498 121.294 158.394 121.166C158.23 120.967 158.06 120.773 157.885 120.583C157.734 120.419 157.583 120.257 157.432 120.094C157.275 119.925 157.119 119.756 156.968 119.582L157.146 119.414C157.175 119.447 157.204 119.48 157.234 119.513C157.724 120.066 158.255 120.598 158.708 121.166C158.81 121.294 158.907 121.424 158.999 121.557Z" fill="white"/>
<path d="M154.895 97.0329C154.945 97.0871 154.996 97.1429 155.044 97.1987C155.417 97.6141 155.77 98.0426 156.103 98.4843C156.695 99.2635 157.221 100.078 157.676 100.922C157.713 100.988 157.749 101.055 157.783 101.123C158.758 102.967 159.394 104.93 159.667 106.941C159.671 106.961 159.673 106.979 159.675 106.999C159.738 107.468 159.779 107.939 159.797 108.412C159.858 109.303 159.756 110.196 159.493 111.059C159.455 111.172 159.412 111.284 159.367 111.392C159.251 111.658 159.107 111.913 158.936 112.156C158.813 112.332 158.676 112.502 158.526 112.663C158.436 112.761 158.342 112.858 158.243 112.952C158.185 113.006 158.126 113.06 158.067 113.114C158.017 113.156 157.969 113.198 157.919 113.239C157.403 113.669 156.832 114.068 156.365 114.543L156.459 114.791C156.909 114.302 157.489 113.896 158.011 113.469C158.339 113.205 158.638 112.914 158.903 112.602C158.938 112.56 158.974 112.517 159.007 112.473C159.184 112.25 159.337 112.014 159.464 111.768C159.529 111.645 159.589 111.519 159.642 111.387C159.955 110.538 160.097 109.65 160.063 108.76C160.057 108.19 160.018 107.621 159.945 107.055C159.937 106.981 159.927 106.908 159.916 106.835C159.722 105.486 159.368 104.158 158.859 102.871C158.216 101.239 157.33 99.6838 156.225 98.2446C155.909 97.8325 155.574 97.4302 155.22 97.0378C155.174 96.9837 155.126 96.9311 155.077 96.8769C154.975 96.7653 154.793 96.9213 154.895 97.0329Z" fill="white"/>
<path d="M159.825 107.075C160.63 106.952 161.359 106.588 161.88 106.047C162.401 105.506 162.681 104.824 162.669 104.122C162.669 104.093 162.655 104.066 162.631 104.046C162.607 104.026 162.576 104.015 162.542 104.014C162.509 104.014 162.477 104.025 162.452 104.044C162.428 104.064 162.414 104.091 162.412 104.119C162.424 104.773 162.163 105.408 161.677 105.911C161.19 106.414 160.51 106.751 159.759 106.862C159.596 106.886 159.663 107.099 159.825 107.075V107.075Z" fill="white"/>
<path d="M158.308 112.991C156.928 112.181 155.955 110.954 155.582 109.556C155.546 109.417 155.297 109.473 155.334 109.612C155.724 111.066 156.74 112.341 158.178 113.182C158.315 113.262 158.444 113.071 158.308 112.991H158.308Z" fill="white"/>
<path d="M157.752 100.899C157.452 101.002 157.127 101.04 156.806 101.008C156.484 100.977 156.177 100.878 155.912 100.72C155.776 100.638 155.647 100.829 155.782 100.91C156.076 101.084 156.416 101.193 156.771 101.228C157.125 101.263 157.485 101.223 157.818 101.112C157.85 101.104 157.878 101.085 157.895 101.06C157.912 101.035 157.917 101.005 157.909 100.977C157.901 100.949 157.879 100.925 157.85 100.91C157.82 100.895 157.785 100.891 157.752 100.899V100.899Z" fill="white"/>
<path d="M121.235 25.7722H0.190143C0.139333 25.7713 0.0909795 25.7533 0.0554399 25.7221C0.0199002 25.691 0 25.6491 0 25.6055C0 25.562 0.0199002 25.5201 0.0554399 25.4889C0.0909795 25.4578 0.139333 25.4398 0.190143 25.4388H121.235C121.285 25.4398 121.334 25.4578 121.369 25.4889C121.405 25.5201 121.425 25.562 121.425 25.6055C121.425 25.6491 121.405 25.691 121.369 25.7221C121.334 25.7533 121.285 25.7713 121.235 25.7722V25.7722Z" fill="#CACACA"/>
<path d="M4.46959 23.4384C5.62465 23.4384 6.56101 22.6175 6.56101 21.6047C6.56101 20.592 5.62465 19.771 4.46959 19.771C3.31453 19.771 2.37817 20.592 2.37817 21.6047C2.37817 22.6175 3.31453 23.4384 4.46959 23.4384Z" fill="#3F3D56"/>
<path d="M11.6944 23.4384C12.8495 23.4384 13.7859 22.6175 13.7859 21.6047C13.7859 20.592 12.8495 19.771 11.6944 19.771C10.5394 19.771 9.60303 20.592 9.60303 21.6047C9.60303 22.6175 10.5394 23.4384 11.6944 23.4384Z" fill="#3F3D56"/>
<path d="M18.9193 23.4384C20.0744 23.4384 21.0107 22.6175 21.0107 21.6047C21.0107 20.592 20.0744 19.771 18.9193 19.771C17.7642 19.771 16.8279 20.592 16.8279 21.6047C16.8279 22.6175 17.7642 23.4384 18.9193 23.4384Z" fill="#3F3D56"/>
<path d="M116.905 20.2255H111.773C111.671 20.2272 111.574 20.2631 111.503 20.3254C111.432 20.3877 111.392 20.4715 111.392 20.5588C111.392 20.6461 111.432 20.7298 111.503 20.7922C111.574 20.8545 111.671 20.8904 111.773 20.8921H116.905C117.007 20.8904 117.104 20.8545 117.175 20.7922C117.246 20.7298 117.286 20.6461 117.286 20.5588C117.286 20.4715 117.246 20.3877 117.175 20.3254C117.104 20.2631 117.007 20.2272 116.905 20.2255V20.2255Z" fill="#3F3D56"/>
<path d="M116.905 21.4766H111.773C111.671 21.4783 111.574 21.5142 111.503 21.5765C111.432 21.6388 111.392 21.7226 111.392 21.8099C111.392 21.8971 111.432 21.9809 111.503 22.0432C111.574 22.1055 111.671 22.1414 111.773 22.1432H116.905C117.007 22.1414 117.104 22.1055 117.175 22.0432C117.246 21.9809 117.286 21.8971 117.286 21.8099C117.286 21.7226 117.246 21.6388 117.175 21.5765C117.104 21.5142 117.007 21.4783 116.905 21.4766Z" fill="#3F3D56"/>
<path d="M116.905 22.726H111.773C111.671 22.7277 111.574 22.7636 111.503 22.8259C111.432 22.8882 111.392 22.972 111.392 23.0593C111.392 23.1465 111.432 23.2303 111.503 23.2926C111.574 23.355 111.671 23.3908 111.773 23.3926H116.905C117.007 23.3908 117.104 23.355 117.175 23.2926C117.246 23.2303 117.286 23.1465 117.286 23.0593C117.286 22.972 117.246 22.8882 117.175 22.8259C117.104 22.7636 117.007 22.7277 116.905 22.726V22.726Z" fill="#3F3D56"/>
<path d="M31.9033 32.5654H26.4687C23.4036 37.7408 21.246 43.2759 20.0654 48.9917H31.9033C32.2806 48.9923 32.6543 48.929 33.003 48.8054C33.3516 48.6818 33.6684 48.5005 33.9352 48.2717C34.202 48.0429 34.4135 47.7712 34.5575 47.4721C34.7016 47.1731 34.7754 46.8526 34.7748 46.529V35.0265C34.7738 34.3737 34.4709 33.748 33.9325 33.2866C33.3942 32.8252 32.6644 32.5658 31.9033 32.5654Z" fill="#CCCCCC"/>
<path d="M72.1625 32.5654H47.5391C46.7781 32.5658 46.0483 32.8252 45.51 33.2866C44.9716 33.748 44.6687 34.3737 44.6677 35.0265V46.529C44.6687 47.1819 44.9715 47.8079 45.5098 48.2695C46.0481 48.7312 46.7779 48.9909 47.5391 48.9917H72.1625C72.9238 48.9909 73.6536 48.7312 74.1919 48.2695C74.7302 47.8079 75.033 47.1819 75.034 46.529V35.0265C75.033 34.3737 74.7301 33.748 74.1917 33.2866C73.6534 32.8252 72.9236 32.5658 72.1625 32.5654V32.5654Z" fill="#CCCCCC"/>
<path d="M112.422 32.5654H87.7984C87.0374 32.5658 86.3076 32.8252 85.7692 33.2866C85.2309 33.748 84.928 34.3737 84.927 35.0265V46.529C84.9279 47.1819 85.2307 47.8079 85.769 48.2695C86.3073 48.7312 87.0372 48.9909 87.7984 48.9917H112.422C113.183 48.9909 113.913 48.7312 114.451 48.2695C114.989 47.8079 115.292 47.1819 115.293 46.529V35.0265C115.292 34.3737 114.989 33.748 114.451 33.2866C113.913 32.8252 113.183 32.5658 112.422 32.5654V32.5654Z" fill="#CCCCCC"/>
<path d="M31.9032 56.7001H19.0718C19.0239 57.6063 18.9997 58.5175 18.999 59.4337C18.9953 64.0439 19.6158 68.6389 20.8482 73.1264H31.9032C32.6645 73.1256 33.3943 72.8659 33.9326 72.4042C34.4709 71.9425 34.7737 71.3166 34.7746 70.6637V59.1611C34.7736 58.5084 34.4707 57.8827 33.9324 57.4213C33.3941 56.9599 32.6643 56.7005 31.9032 56.7001V56.7001Z" fill="#CCCCCC"/>
<path d="M72.1625 56.7001H47.5391C46.7781 56.7005 46.0483 56.9599 45.51 57.4213C44.9716 57.8827 44.6687 58.5084 44.6677 59.1611V70.6637C44.6687 71.3166 44.9715 71.9425 45.5098 72.4042C46.0481 72.8659 46.7779 73.1256 47.5391 73.1264H72.1625C72.9238 73.1256 73.6536 72.8659 74.1919 72.4042C74.7302 71.9425 75.033 71.3166 75.034 70.6637V59.1611C75.033 58.5084 74.7301 57.8827 74.1917 57.4213C73.6534 56.9599 72.9236 56.7005 72.1625 56.7001V56.7001Z" fill="#CCCCCC"/>
<path d="M112.422 56.7001H87.7984C87.0374 56.7005 86.3076 56.9599 85.7692 57.4213C85.2309 57.8827 84.928 58.5084 84.927 59.1611V70.6637C84.9279 71.3166 85.2307 71.9425 85.769 72.4042C86.3073 72.8659 87.0372 73.1256 87.7984 73.1264H112.422C112.5 73.1264 112.579 73.1231 112.657 73.1165C112.965 73.0971 113.266 73.0333 113.549 72.9277C114.062 72.7395 114.5 72.4274 114.81 72.0295C115.119 71.6316 115.287 71.165 115.293 70.6866V59.1611C115.292 58.5084 114.989 57.8827 114.451 57.4213C113.913 56.9599 113.183 56.7005 112.422 56.7001V56.7001Z" fill="#CCCCCC"/>
<path d="M32.4172 51.7389C35.5634 51.7389 38.1139 49.5514 38.1139 46.853C38.1139 44.1546 35.5634 41.9671 32.4172 41.9671C29.271 41.9671 26.7205 44.1546 26.7205 46.853C26.7205 49.5514 29.271 51.7389 32.4172 51.7389Z" fill="#2F98FF"/>
<path d="M31.6402 49.3959C31.5418 49.3959 31.4448 49.3762 31.3568 49.3385C31.2688 49.3007 31.1923 49.2459 31.1333 49.1784L29.5791 47.4011C29.5292 47.344 29.4929 47.279 29.4722 47.2099C29.4516 47.1408 29.447 47.0688 29.4588 46.9982C29.4705 46.9275 29.4984 46.8595 29.5408 46.7981C29.5832 46.7367 29.6393 46.6831 29.7059 46.6403C29.7725 46.5974 29.8482 46.5663 29.9288 46.5486C30.0094 46.5309 30.0933 46.5269 30.1757 46.537C30.2581 46.5471 30.3373 46.571 30.4089 46.6074C30.4805 46.6438 30.5431 46.6919 30.593 46.749L31.6098 47.9116L34.2213 44.552C34.2674 44.4925 34.3267 44.4414 34.3959 44.4017C34.465 44.3619 34.5427 44.3341 34.6243 44.3201C34.706 44.306 34.79 44.3059 34.8717 44.3198C34.9534 44.3336 35.0312 44.3611 35.1004 44.4008C35.1697 44.4404 35.2292 44.4913 35.2756 44.5507C35.3219 44.61 35.3541 44.6766 35.3704 44.7467C35.3867 44.8167 35.3867 44.8889 35.3705 44.9589C35.3542 45.029 35.3221 45.0956 35.2758 45.155L32.1675 49.1538C32.1113 49.2261 32.0356 49.2858 31.9469 49.3279C31.8583 49.37 31.7591 49.3932 31.6578 49.3957C31.6519 49.3958 31.6461 49.3959 31.6402 49.3959Z" fill="white"/>
<path d="M73.9572 52.2314C77.1035 52.2314 79.654 50.0439 79.654 47.3455C79.654 44.6471 77.1035 42.4596 73.9572 42.4596C70.811 42.4596 68.2605 44.6471 68.2605 47.3455C68.2605 50.0439 70.811 52.2314 73.9572 52.2314Z" fill="#2F98FF"/>
<path d="M73.18 49.8884C73.0816 49.8884 72.9846 49.8688 72.8966 49.831C72.8086 49.7933 72.7321 49.7385 72.6731 49.671L71.1189 47.8937C71.069 47.8366 71.0327 47.7716 71.012 47.7025C70.9914 47.6333 70.9868 47.5614 70.9986 47.4907C71.0103 47.4201 71.0382 47.3521 71.0806 47.2907C71.123 47.2293 71.1791 47.1756 71.2457 47.1328C71.3122 47.09 71.388 47.0588 71.4686 47.0411C71.5492 47.0234 71.6331 47.0195 71.7155 47.0296C71.7979 47.0397 71.8771 47.0636 71.9487 47.1C72.0203 47.1363 72.0829 47.1844 72.1328 47.2415L73.1496 48.4042L75.7611 45.0446C75.8544 44.9248 75.9993 44.8417 76.164 44.8136C76.3287 44.7854 76.4997 44.8144 76.6395 44.8943C76.7792 44.9742 76.8762 45.0984 76.9093 45.2397C76.9423 45.3809 76.9086 45.5276 76.8156 45.6475L73.7073 49.6464C73.6511 49.7187 73.5754 49.7784 73.4867 49.8205C73.3981 49.8626 73.2989 49.8858 73.1976 49.8882C73.1917 49.8883 73.1859 49.8884 73.18 49.8884Z" fill="white"/>
<path d="M155.308 73.674L153.524 58.8708L153.054 52.7783L158.045 52.0042C158.045 52.0042 158.792 56.1925 159.446 58.6504C160.091 61.0758 158.586 73.349 158.547 73.6726C158.913 73.9537 159.171 74.3237 159.288 74.7335C159.404 75.1433 159.372 75.5736 159.197 75.9676C159.021 76.3616 158.711 76.7007 158.306 76.94C157.901 77.1793 157.421 77.3075 156.929 77.3077C156.437 77.3079 155.957 77.1801 155.552 76.9411C155.147 76.7022 154.836 76.3634 154.66 75.9695C154.484 75.5756 154.452 75.1453 154.568 74.7354C154.683 74.3255 154.941 73.9554 155.308 73.674V73.674Z" fill="#A0616A"/>
<path d="M142.534 117.738L140.059 118.224L136.699 110.267L140.352 109.55L142.534 117.738Z" fill="#A0616A"/>
<path d="M142.981 116.922L142.35 117.045L142.285 117.058L139.396 116.654L139.312 116.643L138.106 117.877C137.282 118.039 136.566 118.475 136.117 119.089C135.668 119.703 135.521 120.444 135.709 121.151L135.713 121.166L135.734 121.238L136.101 121.166L143.715 119.672L142.981 116.922Z" fill="#2F2E41"/>
<path d="M157.29 119.126H154.751L153.543 110.727L157.29 110.727L157.29 119.126Z" fill="#A0616A"/>
<path d="M157.224 118.416L157.002 118.339L154.513 117.47L154.433 117.442L152.938 118.416C152.519 118.416 152.105 118.486 151.718 118.624C151.331 118.761 150.98 118.962 150.684 119.216C150.388 119.469 150.153 119.771 149.993 120.102C149.833 120.434 149.75 120.789 149.75 121.148V121.236L156.758 121.238H157.938V118.416H157.224Z" fill="#2F2E41"/>
<path d="M153.428 74.1717L155.564 91.5718C155.564 91.5718 158.407 108.994 157.873 111.398C157.339 113.802 158.006 114.146 158.006 114.146L153.135 113.848C153.135 113.848 153.268 112.36 152.467 111.673C151.666 110.986 152.067 108.926 152.067 108.926L142.617 80.5823L136.878 95.4639C136.878 95.4639 140.503 107.532 140.37 107.761C140.236 107.99 142.667 113.015 142.667 113.015L137.229 114.561C137.229 114.561 137.896 112.73 136.962 112.158C136.028 111.585 135.227 112.043 136.028 111.013C136.829 109.983 129.718 102.416 129.874 97.5399C129.921 96.073 129.978 94.4991 130.047 92.8866C130.408 84.3536 131.091 74.7387 132.34 74.1717C134.609 73.1414 153.428 74.1717 153.428 74.1717Z" fill="#2F2E41"/>
<path d="M143.315 38.941C146.215 38.941 148.567 36.9241 148.567 34.4361C148.567 31.9481 146.215 29.9312 143.315 29.9312C140.414 29.9312 138.062 31.9481 138.062 34.4361C138.062 36.9241 140.414 38.941 143.315 38.941Z" fill="#A0616A"/>
<path d="M160.853 61.9544L153.72 63.5072L153.77 61.7902L153.228 61.2977L152.147 56.4384L150.999 43.8576L154.94 45.6504L154.945 45.6536C155.633 46.303 156.208 47.034 156.654 47.8241C158.139 50.4146 159.567 56.1207 160.314 59.4349C160.339 59.5044 160.389 59.5656 160.456 59.6105C160.827 59.9024 161.068 60.2949 161.141 60.7219C161.213 61.149 161.111 61.5843 160.853 61.9544V61.9544Z" fill="#3F3D56"/>
<path d="M118.705 67.5215C118.705 67.5215 128.549 58.6198 128.641 58.452C129.329 53.9731 131.307 51.9974 131.603 52.2119L136.708 53.7287C136.708 53.7287 135.19 57.8528 134.162 60.3024C133.179 62.6431 121.857 68.3604 121.668 68.6427C121.871 69.0268 121.933 69.4548 121.846 69.8698C121.759 70.2849 121.528 70.6676 121.182 70.9673C120.836 71.267 120.392 71.4695 119.909 71.5481C119.425 71.6266 118.926 71.5776 118.476 71.4074C118.026 71.2372 117.647 70.9539 117.389 70.5949C117.131 70.2359 117.006 69.8182 117.031 69.397C117.056 68.9758 117.229 68.571 117.528 68.2361C117.827 67.9012 118.237 67.6521 118.705 67.5215V67.5215Z" fill="#A0616A"/>
<path d="M139.16 44.6679C139.16 44.6679 134.741 42.81 133.026 46.4589C132.086 48.5189 129.683 53.5184 128.485 56.596C128.477 56.6155 128.466 56.6341 128.452 56.6512C128.132 57.0594 127.959 57.5397 127.955 58.0318C127.956 58.0676 127.951 58.1034 127.942 58.1384C127.942 58.1384 132.799 58.9499 134.244 61.1335L134.817 60.6002L134.919 60.2265L139.16 44.6679Z" fill="#3F3D56"/>
<path d="M155.243 76.0682C145.071 77.8699 131.591 74.7723 131.591 74.7723L135.187 61.4031L133.908 47.4119C133.752 45.701 134.888 44.0972 136.656 43.5288L139.097 42.7448L141.114 40.2676L146.877 40.4298L149.181 43.0304L150.998 43.8576L154.94 45.6504L154.957 45.6579V45.6653L153.72 55.9548L152.974 62.1589C152.974 62.1589 155.24 69.1366 154.775 70.062C154.31 70.9859 154.714 70.5396 154.827 71.0335C154.94 71.5275 155.285 71.5587 155.337 72.5317C155.391 73.5032 155.243 76.0682 155.243 76.0682Z" fill="#3F3D56"/>
<path d="M149.013 32.8319C148.598 32.4807 149.222 31.5509 149.104 31.0612C148.969 30.4997 148.248 30.4833 148.076 29.9292C147.89 29.3332 147.15 29.0087 146.465 28.8198C144.71 28.3382 142.838 28.2647 141.039 28.6067C140.243 28.7734 139.459 28.9805 138.691 29.2269C138.162 29.3868 138.672 28.9516 138.143 29.1116C137.942 29.1499 137.765 29.2506 137.646 29.3943C137.551 29.5487 137.679 29.7958 137.879 29.7645C137.233 30.0091 136.586 30.2538 135.939 30.4984C136.302 30.8243 136.665 31.1503 137.027 31.4762C136.512 31.3503 135.962 31.8777 136.165 32.3032C136.247 32.4376 136.366 32.5528 136.511 32.6391C136.656 32.7253 136.824 32.78 136.999 32.7984C137.582 32.8956 137.14 33.3712 137.733 33.3619C138.327 33.3527 142.465 32.3093 142.754 32.7542C142.959 33.071 142.937 33.4906 143.23 33.7516C143.605 34.0856 144.261 33.9635 144.738 33.746C145.216 33.5287 145.7 33.2299 146.238 33.282C146.799 33.3364 147.223 34.2256 147.361 34.6951C147.5 35.1646 147.412 35.6587 147.324 36.137C147.209 36.7652 146.053 37.3934 145.937 38.0216C147.22 38.326 148.597 37.3576 149.104 35.6733C149.054 34.6087 149.897 33.5803 149.013 32.8319Z" fill="#2F2E41"/>
<path d="M113.774 75.5452C116.92 75.5452 119.471 73.3577 119.471 70.6593C119.471 67.9609 116.92 65.7734 113.774 65.7734C110.628 65.7734 108.077 67.9609 108.077 70.6593C108.077 73.3577 110.628 75.5452 113.774 75.5452Z" fill="#2F98FF"/>
<path d="M112.997 73.2022C112.899 73.2022 112.802 73.1825 112.714 73.1448C112.626 73.107 112.549 73.0522 112.49 72.9847L110.936 71.2074C110.886 71.1503 110.85 71.0854 110.829 71.0162C110.808 70.9471 110.804 70.8751 110.816 70.8045C110.827 70.7338 110.855 70.6659 110.898 70.6044C110.94 70.543 110.996 70.4894 111.063 70.4466C111.129 70.4037 111.205 70.3726 111.286 70.3549C111.366 70.3372 111.45 70.3333 111.533 70.3433C111.615 70.3534 111.694 70.3774 111.766 70.4137C111.837 70.4501 111.9 70.4982 111.95 70.5553L112.967 71.7179L115.578 68.3583C115.624 68.2989 115.684 68.2478 115.753 68.208C115.822 68.1682 115.9 68.1405 115.981 68.1264C116.063 68.1124 116.147 68.1123 116.229 68.1261C116.31 68.1399 116.388 68.1675 116.457 68.2071C116.527 68.2467 116.586 68.2976 116.633 68.357C116.679 68.4164 116.711 68.483 116.727 68.553C116.744 68.6231 116.744 68.6952 116.727 68.7652C116.711 68.8353 116.679 68.9019 116.633 68.9613L113.524 72.9601C113.468 73.0325 113.393 73.0922 113.304 73.1342C113.215 73.1763 113.116 73.1996 113.015 73.202C113.009 73.2021 113.003 73.2022 112.997 73.2022Z" fill="white"/>
<path d="M175.146 121.362C175.146 121.387 175.141 121.413 175.129 121.436C175.118 121.46 175.101 121.482 175.08 121.5C175.059 121.518 175.034 121.532 175.006 121.542C174.978 121.552 174.949 121.557 174.919 121.557H121.263C121.203 121.557 121.145 121.536 121.102 121.5C121.059 121.463 121.035 121.413 121.035 121.362C121.035 121.31 121.059 121.26 121.102 121.223C121.145 121.187 121.203 121.166 121.263 121.166H174.919C174.949 121.166 174.978 121.171 175.006 121.181C175.034 121.191 175.059 121.205 175.08 121.223C175.101 121.241 175.118 121.263 175.129 121.287C175.141 121.31 175.146 121.336 175.146 121.362V121.362Z" fill="#CCCCCC"/>
</svg>
