<svg width="156" height="150" viewBox="0 0 156 150" fill="none" xmlns="http://www.w3.org/2000/svg">
<g clip-path="url(#clip0_826_515)">
<path d="M155.419 74.7909C155.429 82.9692 154.042 91.0934 151.315 98.8391C151.159 99.2816 150.999 99.7227 150.835 100.162C147.947 107.849 143.771 115.028 138.473 121.416C136.891 123.325 135.215 125.156 133.444 126.908C131.674 128.663 129.816 130.332 127.869 131.915C117.011 140.777 103.822 146.581 89.7546 148.688H89.7523C87.959 148.956 86.1481 149.164 84.3195 149.314C82.1423 149.491 79.939 149.58 77.7096 149.582C67.3423 149.595 57.0778 147.605 47.5242 143.73C37.9707 139.855 29.3225 134.174 22.0921 127.023C21.584 126.523 21.0835 126.015 20.5908 125.5C19.363 124.219 18.1821 122.898 17.0478 121.537C16.411 120.772 15.7895 119.994 15.1833 119.205C11.4493 114.35 8.34265 109.076 5.9317 103.499C4.90354 101.124 4.00566 98.6983 3.24176 96.2325C3.18658 96.0577 3.1337 95.8829 3.08082 95.708C2.96586 95.3319 2.85474 94.9535 2.74745 94.5729C0.918547 88.1264 -0.00547067 81.4734 2.43646e-05 74.7909C2.43646e-05 33.4855 34.7923 0 77.7096 0C120.627 0 155.419 33.4855 155.419 74.7909Z" fill="#F2F2F2"/>
<path d="M32.9572 44.7046C32.8369 45.4076 32.8782 46.1275 33.0783 46.8135C33.2783 47.4995 33.6322 48.1349 34.115 48.6751C34.5978 49.2152 35.1978 49.6469 35.8727 49.9397C36.5476 50.2325 37.281 50.3794 38.0212 50.3699L50.4258 85.1084L58.3409 79.8731L43.0614 45.0804C42.9624 43.8846 42.4111 42.7653 41.5119 41.9346C40.6128 41.1039 39.4282 40.6194 38.1828 40.5731C36.9373 40.5268 35.7174 40.9218 34.7543 41.6832C33.7912 42.4447 33.1518 43.5197 32.9572 44.7046V44.7046Z" fill="#A0616A"/>
<path d="M97.7014 56.4583C92.1928 62.4902 78.6097 73.1203 67.42 80.44C65.0013 82.0222 62.693 83.4472 60.6031 84.6398C59.1915 85.4453 57.8787 86.1423 56.697 86.711C55.9038 87.0912 55.0376 87.3098 54.1527 87.3529C53.2677 87.3961 52.383 87.2629 51.554 86.9617C50.725 86.6605 49.9695 86.1977 49.3349 85.6025C48.7004 85.0073 48.2003 84.2923 47.8661 83.5025L40.1182 65.4619L42.7989 63.7515L49.4088 59.5318L50.9101 58.5759L57.1085 72.7839L63.6448 67.7344L67.7028 64.599L86.2013 50.3112L87.7969 49.8554L91.5191 53.3516L94.1516 55.8254L96.6277 56.2392C96.9979 56.3011 97.3565 56.3742 97.7014 56.4583Z" fill="#2F98FF"/>
<path d="M147.124 106.027C147.508 106.496 147.906 106.963 148.303 107.432C146.933 110.139 145.393 112.764 143.692 115.291C143.565 115.205 143.439 115.119 143.312 115.032C143.292 115.022 143.273 115.01 143.255 114.997C142.783 114.674 142.31 114.355 141.838 114.032V114.03C141.45 112.757 141.232 111.44 141.192 110.113C141.435 110.06 141.656 109.936 141.823 109.757C141.99 109.579 142.096 109.356 142.127 109.118C142.158 108.88 142.112 108.638 141.995 108.426C141.879 108.214 141.697 108.041 141.475 107.932C141.413 107.828 141.369 107.752 141.307 107.646C141.31 107.62 141.314 107.591 141.317 107.564C141.677 104.801 145.338 103.836 147.124 106.027Z" fill="white"/>
<path d="M151.251 96.556C151.527 97.2862 151.778 98.0245 152.005 98.771C151.849 99.2135 151.688 99.6546 151.524 100.094C151.462 99.8619 151.398 99.6295 151.331 99.3972C150.957 98.1053 150.508 96.8347 149.986 95.5913C149.559 94.5712 149.085 93.5725 148.566 92.5952C145.74 87.286 141.646 82.6979 136.619 79.208C134.542 78.7457 132.662 77.6815 131.233 76.1589C130.717 75.6118 130.286 74.9963 129.952 74.3312C130.164 74.3024 130.375 74.2626 130.582 74.2205C130.646 74.2072 130.713 74.1917 130.777 74.1785L130.803 74.174C131.029 74.1236 131.235 74.0113 131.397 73.8506C131.558 73.69 131.668 73.4879 131.713 73.2686C131.758 73.0494 131.736 72.8223 131.65 72.6147C131.564 72.4071 131.417 72.2279 131.228 72.0985C131.111 72.0166 130.991 71.937 130.874 71.8573C130.695 71.7312 130.513 71.6117 130.331 71.4878C130.312 71.4763 130.294 71.4637 130.276 71.4502C130.069 71.3085 129.862 71.1714 129.658 71.0275C129.816 70.5345 130.091 70.0832 130.46 69.7087C131.745 68.432 134.04 68.4607 135.539 69.5007C137.04 70.5407 137.794 72.3618 137.891 74.1364C137.976 75.6566 137.636 77.1613 137.187 78.6283C137.3 78.708 137.417 78.7832 137.53 78.8651C139.6 80.3415 141.514 82.0098 143.245 83.846C142.245 81.5624 141.882 78.5841 142.142 76.5328C142.438 74.1962 143.618 71.9768 144.583 69.7663C145.74 67.111 149.685 67.0756 150.798 69.7486C150.809 69.7751 150.821 69.7995 150.83 69.826C150.644 70.0052 150.465 70.1911 150.292 70.3836C150.076 70.6262 149.94 70.926 149.904 71.2439C149.867 71.5617 149.931 71.8828 150.088 72.1649C150.244 72.4471 150.485 72.6773 150.78 72.8254C151.074 72.9734 151.408 73.0324 151.738 72.9947L151.773 72.9902C151.916 73.7791 151.998 74.5772 152.016 75.3778C152.045 77.6177 151.592 79.8392 150.687 81.9029C149.782 83.9667 148.444 85.8282 146.756 87.3709C146.646 87.4705 146.538 87.5678 146.425 87.663C147.49 89.1207 148.447 90.6491 149.287 92.2367C150.034 93.6362 150.69 95.0787 151.251 96.556V96.556Z" fill="white"/>
<path d="M106.951 75.7977L106.256 121.692L50.1675 120.143L59.1248 101.114C59.0604 100.503 63.0562 96.2169 63.0332 95.5819C62.9643 93.721 64.4081 91.9972 64.6426 90.05C65.1208 86.0339 62.3826 70.8677 63.6448 67.7344C64.1825 66.3353 64.8714 64.9944 65.7002 63.7338C66.4175 62.6894 67.1532 61.9857 67.8568 61.7313L69.9305 57.0801L71.7698 54.4248L86.2013 50.3113L87.7969 49.8554L91.5191 53.3516L94.1516 55.8254L96.6277 56.2392C96.9978 56.3012 97.3565 56.3742 97.7014 56.4583C99.3623 56.8269 100.91 57.565 102.221 58.6135C106.544 62.1472 107.047 68.7944 106.951 75.7977Z" fill="#2F98FF"/>
<path d="M139.162 121.348C137.58 123.257 135.904 125.088 134.134 126.84L128.069 126.844L95.4517 126.88L89.5798 126.886L85.676 126.891L79.8684 126.895L75.4013 126.899L67.1498 126.908L62.2826 126.915L52.0332 126.924L47.1407 126.93L33.583 126.944L25.0671 126.953L22.7818 126.955C22.2737 126.455 21.7732 125.947 21.2805 125.432C20.0527 124.151 18.8718 122.83 17.7375 121.469L22.4691 121.465L25.6924 121.463L33.1553 121.454L47.5569 121.441L52.4241 121.436L54.3921 121.434H54.399L55.944 121.432L56.636 121.43L58.4086 121.427H59.1581L64.4139 121.423L75.7507 121.41L80.7398 121.405L85.5173 121.401L89.996 121.396L96.422 121.39L130.743 121.357L139.162 121.348Z" fill="#CCCCCC"/>
<path d="M61.5619 52.4359L61.5494 52.4371C60.8862 52.4965 60.2255 52.2999 59.7129 51.8905C59.2003 51.4811 58.8776 50.8925 58.8159 50.2542L57.5084 36.8229C57.2718 34.4168 57.5402 31.9894 58.2978 29.6851C59.7827 25.1878 63.0136 21.4155 67.3171 19.1543C69.5392 17.9898 71.9833 17.2705 74.502 17.0395C84.8065 16.0947 88.5722 18.1602 94.9375 33.2858C101.303 48.4114 96.2469 46.7375 96.2469 46.7375C96.2788 47.0612 96.2427 47.3878 96.1406 47.6977C95.9402 48.3025 95.5049 48.8093 94.9254 49.1124C94.6281 49.2675 94.3014 49.3636 93.9647 49.3949C81.7826 52.3751 69.4904 55.5122 61.5598 52.4361L61.5619 52.4359Z" fill="#2F2E41"/>
<path d="M84.2362 29.7661C85.7654 31.9437 86.5898 34.5086 86.6053 37.1368C86.6208 39.7651 85.8267 42.3388 84.3233 44.533C82.8199 46.7271 80.6745 48.4433 78.1583 49.4647C75.6421 50.4861 72.8678 50.7669 70.1858 50.2717C68.4104 49.9494 66.7192 49.2913 65.21 48.3355C63.7008 47.3796 62.4036 46.1451 61.3937 44.7033C59.8677 42.5264 59.0456 39.9634 59.031 37.3375C59.0163 34.7115 59.8098 32.1402 61.3115 29.9477C62.8131 27.7552 64.9556 26.0397 67.4688 25.0174C69.9821 23.9952 72.7535 23.712 75.4337 24.2036C77.2105 24.524 78.9035 25.1807 80.4146 26.1356C81.9256 27.0905 83.2247 28.3247 84.2363 29.7666L84.2362 29.7661Z" fill="#9E616A"/>
<path d="M53.1887 38.3151C53.0016 36.4121 53.214 34.4924 53.8131 32.6699C53.952 28.2119 55.2959 24.1739 60.9455 24.3434C62.6919 23.4291 64.6115 22.8622 66.5902 22.6764L69.382 22.411C69.4134 22.408 69.4447 22.4051 69.4761 22.4023C71.4103 22.2291 73.3611 22.4242 75.217 22.9765C77.0729 23.5288 78.7976 24.4276 80.2926 25.6214C81.7876 26.8153 83.0236 28.2808 83.9301 29.9344C84.8366 31.588 85.3959 33.3972 85.5759 35.2588L85.6021 35.5278L79.6954 36.0836L77.1533 30.8478L77.2787 36.3121L74.2281 36.6002L72.9461 33.9587L73.0087 36.7137C68.4791 40.5532 61.6106 40.7544 53.2175 38.5844L53.1887 38.3151Z" fill="#2F2E41"/>
<path d="M72.0826 51.0603C72.0324 51.5029 72.1121 51.9501 72.3129 52.3512C72.414 52.5566 72.5446 52.7474 72.7008 52.9179C72.8344 53.0631 72.9854 53.1927 73.1506 53.3038C73.6399 53.6317 74.2346 53.781 74.828 53.725C74.865 53.7213 74.9018 53.717 74.9387 53.712C74.9755 53.707 75.0123 53.7012 75.0489 53.6945C75.086 53.6882 75.1228 53.6808 75.1593 53.6725C75.1958 53.6642 75.2324 53.6552 75.2691 53.6455L77.3306 53.0895L79.641 46.8895L80.1706 52.3299L89.5447 49.8181L87.2973 26.7314L71.3198 28.2466L71.758 28.6527C73.2139 30.0166 74.2507 31.7406 74.7541 33.635C75.2538 35.5547 75.408 37.5427 75.2101 39.5125C75.0252 41.5044 74.642 43.4745 74.0658 45.3959C73.5643 47.0972 72.9613 48.7693 72.2599 50.4039C72.1692 50.6137 72.1095 50.8346 72.0826 51.0603V51.0603Z" fill="#2F2E41"/>
<path d="M74.2131 123.85C73.9384 123.849 73.6672 123.79 73.4191 123.677L29.1569 124.764C28.8172 124.609 28.5344 124.358 28.3456 124.046C28.1569 123.733 28.0712 123.372 28.0999 123.012C28.1285 122.651 28.2702 122.307 28.5061 122.026C28.742 121.744 29.0611 121.538 29.4213 121.435L58.3789 113.125C58.6788 113.039 58.9964 113.027 59.3022 113.091L104.095 118.345C104.491 118.427 104.848 118.633 105.112 118.929C105.376 119.225 105.532 119.596 105.556 119.986C105.581 120.376 105.472 120.762 105.246 121.087C105.021 121.411 104.691 121.655 104.308 121.783L74.8196 123.751C74.6245 123.816 74.4196 123.849 74.2131 123.85V123.85Z" fill="#3F3D56"/>
<path d="M75.8411 120.884C75.6412 120.884 75.4446 120.835 75.2702 120.741L39.3228 122.357C39.1187 122.247 38.9537 122.08 38.8495 121.879C38.7453 121.677 38.7065 121.45 38.7384 121.227C38.7702 121.004 38.8711 120.795 39.028 120.628C39.1849 120.46 39.3904 120.343 39.6178 120.289L52.6316 117.249C52.8347 117.202 53.0473 117.208 53.2471 117.267L86.6654 117.228C86.9033 117.298 87.1116 117.44 87.2599 117.632C87.4083 117.824 87.4887 118.057 87.4896 118.297C87.4905 118.536 87.4117 118.77 87.2648 118.963C87.1179 119.156 86.9106 119.299 86.6732 119.371L76.1887 120.833C76.0762 120.867 75.959 120.884 75.8411 120.884V120.884Z" fill="#2F2E41"/>
<path d="M72.0573 119.04C72.6795 119.426 73.3821 119.676 74.1156 119.773C74.8491 119.869 75.5957 119.81 76.3027 119.598C77.0097 119.387 77.66 119.029 78.2078 118.55C78.7555 118.071 79.1874 117.482 79.4731 116.824L117.522 119.701L115.683 110.629L76.4378 110.269C75.2586 109.88 73.9723 109.921 72.8225 110.384C71.6728 110.848 70.7395 111.701 70.1996 112.782C69.6596 113.863 69.5505 115.097 69.8929 116.251C70.2353 117.404 71.0054 118.397 72.0573 119.04V119.04Z" fill="#A0616A"/>
<path d="M94.531 59.9566C94.531 59.9566 100.279 55.5311 107.176 63.497C111.827 68.8691 120.8 101.345 121.544 114.802C121.591 115.654 121.455 116.506 121.144 117.304C120.833 118.103 120.354 118.831 119.737 119.443C119.12 120.055 118.379 120.538 117.559 120.861C116.739 121.184 115.858 121.341 114.972 121.321L94.6919 120.982L92.4241 108.712L108.436 108.894L94.531 59.9566Z" fill="#2F98FF"/>
<path d="M71.7512 123.855C71.0555 123.854 70.3668 123.72 69.7256 123.46L28.7 124.361C27.6173 123.926 26.7185 123.153 26.149 122.166C25.5795 121.179 25.3725 120.036 25.5615 118.921L24.0371 84.245C24.2393 83.0064 24.9166 81.8857 25.9354 81.1043C26.9542 80.323 28.2404 79.9376 29.54 80.0245L67.6276 81.5448C68.3588 81.591 69.0716 81.7845 69.72 82.1128C70.3684 82.4412 70.9379 82.8971 71.3914 83.4509C71.845 84.0047 72.1725 84.644 72.3528 85.3275C72.5331 86.011 72.5621 86.7233 72.4379 87.4183L76.9003 119.673C76.6905 120.842 76.0591 121.902 75.1173 122.667C74.1754 123.432 72.9835 123.852 71.7512 123.855V123.855Z" fill="#3F3D56"/>
<path d="M40.5987 20.6162L23.4773 20.5697C23.0184 20.5692 22.578 20.7438 22.2526 21.0553C21.9272 21.3668 21.7434 21.7898 21.7415 22.2315L21.6794 44.0514C21.6785 44.4926 21.8595 44.9162 22.1829 45.229C22.5062 45.5419 22.9453 45.7184 23.4038 45.7198L32.9014 45.7464L40.5275 45.7663C40.9863 45.7671 41.4267 45.5925 41.7517 45.2808C42.0768 44.9692 42.26 44.5461 42.261 44.1045L42.2656 42.8145L42.3254 22.2868C42.3263 21.845 42.145 21.4209 41.8212 21.1076C41.4975 20.7944 41.0578 20.6176 40.5987 20.6162V20.6162Z" fill="#E6E6E6"/>
<path d="M39.3916 21.9195L24.6774 21.8797C24.2477 21.8791 23.8353 22.0426 23.5306 22.3342C23.2259 22.6257 23.0538 23.0217 23.0519 23.4352L23.0105 37.464C23.0076 39.3064 23.7641 41.0746 25.114 42.3809C26.4639 43.6872 28.2971 44.4248 30.2113 44.432L33.007 44.4386L39.3272 44.4563C39.757 44.4572 40.1696 44.2939 40.4744 44.0022C40.7791 43.7106 40.9512 43.3144 40.9527 42.9008L40.9573 41.489L41.0078 23.4839C41.0088 23.0702 40.8391 22.6732 40.5361 22.3798C40.233 22.0865 39.8214 21.9209 39.3916 21.9195V21.9195Z" fill="white"/>
<path d="M37.7387 31.5051H26.2662C26.1758 31.5051 26.0862 31.5222 26.0027 31.5555C25.9192 31.5888 25.8433 31.6377 25.7793 31.6992C25.7154 31.7607 25.6647 31.8338 25.63 31.9142C25.5954 31.9946 25.5776 32.0808 25.5776 32.1678C25.5776 32.2548 25.5954 32.341 25.63 32.4214C25.6647 32.5018 25.7154 32.5749 25.7793 32.6364C25.8433 32.698 25.9192 32.7468 26.0027 32.7801C26.0862 32.8134 26.1758 32.8305 26.2662 32.8305H37.7387C37.9213 32.8305 38.0965 32.7607 38.2256 32.6364C38.3548 32.5122 38.4273 32.3436 38.4273 32.1678C38.4273 31.9921 38.3548 31.8235 38.2256 31.6992C38.0965 31.5749 37.9213 31.5051 37.7387 31.5051V31.5051Z" fill="#2F98FF"/>
<path d="M28.7883 27.8718H26.2662C26.0836 27.8718 25.9085 27.9416 25.7793 28.0659C25.6502 28.1902 25.5776 28.3588 25.5776 28.5345C25.5776 28.7103 25.6502 28.8788 25.7793 29.0031C25.9085 29.1274 26.0836 29.1972 26.2662 29.1972H28.7883C28.971 29.1972 29.1461 29.1274 29.2752 29.0031C29.4044 28.8788 29.4769 28.7103 29.4769 28.5345C29.4769 28.3588 29.4044 28.1902 29.2752 28.0659C29.1461 27.9416 28.971 27.8718 28.7883 27.8718V27.8718Z" fill="#2F98FF"/>
<path d="M37.7387 37.3313H26.2662C26.0836 37.3313 25.9084 37.4011 25.7793 37.5254C25.6502 37.6497 25.5776 37.8183 25.5776 37.994C25.5776 38.1698 25.6502 38.3383 25.7793 38.4626C25.9084 38.5869 26.0836 38.6567 26.2662 38.6567H37.7387C37.9213 38.6567 38.0965 38.5869 38.2256 38.4626C38.3548 38.3383 38.4273 38.1698 38.4273 37.994C38.4273 37.8183 38.3548 37.6497 38.2256 37.5254C38.0965 37.4011 37.9213 37.3313 37.7387 37.3313V37.3313Z" fill="#2F98FF"/>
<path d="M37.7385 34.4193H26.266C26.0837 34.4193 25.9089 34.489 25.78 34.6131C25.651 34.7371 25.5786 34.9054 25.5786 35.0809C25.5786 35.2564 25.651 35.4246 25.78 35.5487C25.9089 35.6728 26.0837 35.7425 26.266 35.7425H37.7385C37.9209 35.7425 38.0957 35.6728 38.2246 35.5487C38.3536 35.4246 38.426 35.2564 38.426 35.0809C38.426 34.9054 38.3536 34.7371 38.2246 34.6131C38.0957 34.489 37.9209 34.4193 37.7385 34.4193V34.4193Z" fill="#2F98FF"/>
<path d="M35.5095 30.2152C34.7039 30.2152 33.9164 29.9853 33.2465 29.5545C32.5767 29.1237 32.0546 28.5115 31.7463 27.7952C31.438 27.0789 31.3574 26.2906 31.5145 25.5302C31.6717 24.7697 32.0596 24.0712 32.6293 23.523C33.1989 22.9747 33.9247 22.6014 34.7148 22.4501C35.5049 22.2989 36.3239 22.3765 37.0682 22.6732C37.8125 22.9699 38.4486 23.4724 38.8962 24.117C39.3438 24.7617 39.5826 25.5196 39.5826 26.295C39.5814 27.3343 39.1519 28.3307 38.3883 29.0657C37.6247 29.8006 36.5894 30.214 35.5095 30.2152V30.2152ZM35.5095 22.6472C34.7598 22.6472 34.0271 22.8611 33.4038 23.262C32.7805 23.6628 32.2947 24.2325 32.0078 24.899C31.721 25.5656 31.6459 26.299 31.7922 27.0066C31.9384 27.7142 32.2994 28.3642 32.8294 28.8743C33.3595 29.3845 34.0348 29.7319 34.77 29.8727C35.5052 30.0134 36.2673 29.9412 36.9599 29.6651C37.6524 29.389 38.2444 28.9215 38.6608 28.3216C39.0773 27.7217 39.2996 27.0164 39.2996 26.295C39.2984 25.3279 38.8987 24.4007 38.1882 23.7168C37.4777 23.033 36.5143 22.6483 35.5095 22.6472V22.6472Z" fill="#2F98FF"/>
<path d="M37.2199 27.8134C36.9385 26.4154 36.3526 25.0907 35.5006 23.9265C35.4814 23.8963 35.4544 23.8714 35.4223 23.8541C35.3902 23.8368 35.3541 23.8277 35.3173 23.8277C35.2805 23.8277 35.2443 23.8368 35.2122 23.8541C35.1801 23.8714 35.1532 23.8963 35.134 23.9265C34.392 25.1756 33.9177 26.5552 33.7391 27.9837C33.7061 28.2441 34.131 28.2419 34.1637 27.9837C34.2234 27.5208 34.3164 27.0623 34.4421 26.6118C34.4583 26.6087 34.4742 26.604 34.4895 26.5978C35.0541 26.325 35.6919 26.225 36.3172 26.3114C36.3227 26.3121 36.3279 26.311 36.3334 26.3115C36.5399 26.8343 36.6995 27.3731 36.8105 27.922C36.8623 28.18 37.2716 28.0708 37.2199 27.8134ZM34.5949 26.1107C34.7898 25.5288 35.0379 24.9647 35.3363 24.425C35.6521 24.8894 35.9264 25.3788 36.1561 25.888C35.625 25.8495 35.0916 25.9256 34.5949 26.1107V26.1107Z" fill="#2F98FF"/>
</g>
<defs>
<clipPath id="clip0_826_515">
<rect width="155.419" height="149.582" fill="white"/>
</clipPath>
</defs>
</svg>
