<svg width="150" height="149" viewBox="0 0 150 149" fill="none" xmlns="http://www.w3.org/2000/svg">
<ellipse cx="75" cy="74.5" rx="75" ry="74.5" fill="#EDEDED"/>
<g clip-path="url(#clip0_826_542)">
<path d="M139.539 51.8365C139.693 52.4391 139.837 53.0448 139.972 53.6535H94.0996V51.8365H139.539Z" fill="#E6E6E6"/>
<path d="M138.076 47.0467C137.338 44.9607 136.477 42.9202 135.497 40.9359C135.196 40.3241 134.883 39.7184 134.559 39.1188C134.505 39.0159 134.449 38.913 134.392 38.8102V52.3325H138.356V47.8514L138.076 47.0467Z" fill="#E6E6E6"/>
<path d="M135.497 40.9359H134.392V39.1188H134.559C134.884 39.7178 135.197 40.3234 135.497 40.9359Z" fill="#CCCCCC"/>
<path d="M138.076 47.0467H134.392V48.8638H138.356V47.8514L138.076 47.0467Z" fill="#CCCCCC"/>
<path d="M132.245 36.6416H128.282V52.3327H132.245V36.6416Z" fill="#E6E6E6"/>
<path d="M132.245 39.1192H128.282V40.936H132.245V39.1192Z" fill="#CCCCCC"/>
<path d="M132.245 47.0473H128.282V48.8642H132.245V47.0473Z" fill="#CCCCCC"/>
<path d="M114.171 36.5503H99.9536C99.7344 36.5506 99.5244 36.6378 99.3694 36.7928C99.2145 36.9478 99.1273 37.1579 99.127 37.3771V51.5976C99.1272 51.6785 99.139 51.7589 99.1618 51.8365C99.2134 52.0064 99.3182 52.1552 99.4607 52.2611C99.6033 52.3669 99.776 52.4242 99.9536 52.4244H114.171C114.349 52.4242 114.521 52.367 114.664 52.2611C114.806 52.1552 114.911 52.0064 114.963 51.8365C114.986 51.7589 114.997 51.6785 114.998 51.5976V37.3771C114.997 37.1579 114.91 36.9478 114.755 36.7928C114.6 36.6378 114.39 36.5506 114.171 36.5503V36.5503Z" fill="#E6E6E6"/>
<path d="M113.161 37.5608H100.964C100.745 37.5611 100.535 37.6483 100.38 37.8033C100.225 37.9583 100.138 38.1684 100.137 38.3876V50.5871C100.138 50.8063 100.225 51.0164 100.38 51.1714C100.535 51.3263 100.745 51.4136 100.964 51.4139H113.161C113.38 51.4136 113.59 51.3263 113.745 51.1714C113.9 51.0164 113.987 50.8063 113.988 50.5871V38.3876C113.987 38.1684 113.9 37.9583 113.745 37.8033C113.59 37.6483 113.38 37.5611 113.161 37.5608V37.5608Z" fill="white"/>
<path d="M111.034 39.6884H103.091C102.872 39.6887 102.662 39.7759 102.507 39.9309C102.352 40.0859 102.265 40.296 102.264 40.5152V48.4596C102.265 48.6787 102.352 48.8888 102.507 49.0438C102.662 49.1988 102.872 49.286 103.091 49.2863H111.034C111.253 49.2852 111.462 49.1977 111.617 49.0429C111.772 48.8881 111.859 48.6785 111.86 48.4596V40.5152C111.86 40.296 111.773 40.0859 111.618 39.9309C111.463 39.7759 111.253 39.6887 111.034 39.6884V39.6884Z" fill="#CCCCCC"/>
<path d="M110.544 47.0583L108.866 44.1519C108.834 44.096 108.788 44.0497 108.732 44.0174C108.676 43.9852 108.613 43.9682 108.548 43.9682C108.484 43.9682 108.42 43.9852 108.365 44.0174C108.309 44.0497 108.262 44.096 108.23 44.1519L107.005 46.2742L105.399 43.4912C105.366 43.4353 105.32 43.3889 105.264 43.3567C105.208 43.3244 105.145 43.3075 105.08 43.3075C105.016 43.3075 104.953 43.3244 104.897 43.3567C104.841 43.389 104.795 43.4353 104.762 43.4912L103.085 46.3976L101.089 49.8552H104.938L104.557 50.5159H112.54L110.544 47.0583Z" fill="white"/>
<path d="M109.952 42.5877C110.59 42.5877 111.108 42.0701 111.108 41.4315C111.108 40.793 110.59 40.2754 109.952 40.2754C109.313 40.2754 108.796 40.793 108.796 41.4315C108.796 42.0701 109.313 42.5877 109.952 42.5877Z" fill="white"/>
<path d="M141.293 64.6754C141.28 63.9625 141.252 63.2533 141.208 62.5478C141.19 62.2098 141.168 61.8735 141.14 61.5373H133.385C133.166 61.5377 132.956 61.6249 132.801 61.7798C132.646 61.9348 132.559 62.1449 132.558 62.3641V76.5847C132.558 76.6497 132.566 76.7146 132.582 76.7776C132.626 76.9579 132.728 77.1185 132.874 77.2334C133.02 77.3484 133.199 77.4111 133.385 77.4114H140.534C140.571 77.202 140.606 76.9889 140.637 76.7776C140.657 76.6526 140.677 76.5259 140.696 76.4009C140.74 76.1014 140.782 75.802 140.821 75.5025C140.876 75.0946 140.925 74.6849 140.969 74.2734C141.131 72.798 141.235 71.3068 141.282 69.7996V69.7977C141.298 69.23 141.307 68.6598 141.307 68.0872V65.8825C141.307 65.4783 141.304 65.0759 141.293 64.6754Z" fill="#E6E6E6"/>
<path d="M141.293 64.6754C141.28 63.9625 141.252 63.2533 141.208 62.5478H134.395C134.176 62.5482 133.966 62.6354 133.811 62.7903C133.656 62.9453 133.569 63.1554 133.569 63.3746V75.5741C133.569 75.7933 133.656 76.0034 133.811 76.1584C133.966 76.3134 134.176 76.4006 134.395 76.4009H140.696C140.74 76.1014 140.782 75.802 140.821 75.5025C140.876 75.0946 140.925 74.6849 140.969 74.2733C141.131 72.798 141.235 71.3068 141.282 69.7996V69.7977C141.298 69.23 141.307 68.6598 141.307 68.0872V65.8825C141.307 65.4783 141.304 65.0759 141.293 64.6754Z" fill="white"/>
<path d="M141.293 64.6754H136.522C136.303 64.6757 136.093 64.7629 135.938 64.9179C135.783 65.0729 135.696 65.283 135.696 65.5022V73.4466C135.696 73.6657 135.783 73.8758 135.938 74.0308C136.093 74.1858 136.303 74.273 136.522 74.2733H140.969C141.131 72.798 141.235 71.3068 141.282 69.7996V69.7977C141.298 69.23 141.307 68.6598 141.307 68.0872V65.8825C141.307 65.4783 141.304 65.0759 141.293 64.6754Z" fill="#CCCCCC"/>
<path d="M141.282 69.7996C141.236 71.3061 141.132 72.7974 140.969 74.2734C140.925 74.6849 140.876 75.0946 140.82 75.5025H137.988L138.37 74.8429H134.52L135.696 72.8054L136.515 71.3852L138.194 68.4786C138.226 68.4225 138.272 68.3759 138.328 68.3434C138.384 68.311 138.447 68.2939 138.512 68.2939C138.576 68.2939 138.64 68.311 138.695 68.3434C138.751 68.3759 138.797 68.4225 138.829 68.4786L140.437 71.2621L141.282 69.7996Z" fill="white"/>
<path d="M127.364 28.7143H94.0996V26.8972H125.714C126.276 27.4907 126.826 28.0963 127.364 28.7143Z" fill="#E6E6E6"/>
<path d="M111.769 16.1124C113.124 16.8583 114.445 17.6575 115.732 18.51V27.3915H111.769V16.1124Z" fill="#E6E6E6"/>
<path d="M115.732 22.1067H111.768V23.9235H115.732V22.1067Z" fill="#CCCCCC"/>
<path d="M121.842 23.1767V27.3915H117.878V20.0038C118.802 20.678 119.705 21.3793 120.587 22.1074C121.01 22.4565 121.428 22.813 121.842 23.1767Z" fill="#E6E6E6"/>
<path d="M121.842 23.1767V23.9227H117.878V22.1074H120.587C121.01 22.4565 121.428 22.8129 121.842 23.1767Z" fill="#CCCCCC"/>
<path d="M107.722 14.0877C108.771 14.5599 109.802 15.0633 110.815 15.5979L110 17.2441L107.29 22.7211L106.484 24.3489L105.222 26.8972L104.945 27.4576L103.815 26.8972L101.394 25.6975L102.931 22.5888H102.933L103.738 20.961L106.449 15.484L107.246 13.8746L107.255 13.8562L107.722 14.0877Z" fill="#E6E6E6"/>
<path d="M110.806 15.6145L110 17.2441L106.449 15.484L107.246 13.8746L107.255 13.8562L107.722 14.0877L110.806 15.6145Z" fill="#CCCCCC"/>
<path d="M103.738 20.9615L102.932 22.5897L106.484 24.3485L107.29 22.7203L103.738 20.9615Z" fill="#CCCCCC"/>
<path d="M140.637 76.7776C140.606 76.9888 140.571 77.202 140.534 77.4114C140.47 77.8083 140.4 78.2014 140.325 78.5946H94.0996V76.7776H140.637Z" fill="#E6E6E6"/>
<path d="M115.732 61.5822H111.768V77.2734H115.732V61.5822Z" fill="#E6E6E6"/>
<path d="M115.732 64.0598H111.768V65.8767H115.732V64.0598Z" fill="#CCCCCC"/>
<path d="M115.732 71.9879H111.768V73.8048H115.732V71.9879Z" fill="#CCCCCC"/>
<path d="M121.842 61.5822H117.878V77.2734H121.842V61.5822Z" fill="#E6E6E6"/>
<path d="M121.842 64.0598H117.878V65.8767H121.842V64.0598Z" fill="#CCCCCC"/>
<path d="M121.842 71.9879H117.878V73.8048H121.842V71.9879Z" fill="#CCCCCC"/>
<path d="M108.354 61.5173L101.393 75.5794L104.945 77.3383L111.905 63.2762L108.354 61.5173Z" fill="#E6E6E6"/>
<path d="M107.255 63.7377L106.449 65.3659L110 67.1248L110.806 65.4965L107.255 63.7377Z" fill="#CCCCCC"/>
<path d="M103.738 70.8427L102.932 72.471L106.484 74.2298L107.29 72.6016L103.738 70.8427Z" fill="#CCCCCC"/>
<path d="M63.6995 83.7798C63.8651 83.8751 64.023 83.9833 64.1716 84.1035L80.5251 79.0132L81.4473 74.955L87.7524 75.5465L86.8179 82.8894C86.7425 83.4826 86.4766 84.0354 86.0603 84.4646C85.644 84.8938 85.0998 85.1764 84.5093 85.2699L65.2637 88.3176C64.9829 88.9982 64.5016 89.5773 63.8838 89.9777C63.266 90.3781 62.5409 90.5808 61.8051 90.559C61.0692 90.5372 60.3575 90.2918 59.7645 89.8555C59.1714 89.4192 58.7253 88.8126 58.4853 88.1165C58.2454 87.4204 58.223 86.6677 58.4212 85.9585C58.6193 85.2494 59.0287 84.6174 59.5947 84.1466C60.1607 83.6758 60.8567 83.3886 61.5899 83.323C62.3232 83.2575 63.059 83.4168 63.6995 83.7798V83.7798Z" fill="#FFB8B8"/>
<path d="M90.6663 77.981L90.5579 76.129V76.1272L90.5285 75.6201L90.209 70.167C90.3046 69.0302 89.946 67.9018 89.2116 67.0289C88.4773 66.156 87.4271 65.6096 86.2909 65.5095C85.964 65.4802 85.6349 65.4888 85.31 65.5352C84.3449 65.6717 83.4542 66.1303 82.7823 66.8367C82.1104 67.543 81.6969 68.4557 81.6086 69.4266L80.9455 72.1862L79.7865 77.0127C79.7044 77.3504 79.7384 77.7059 79.883 78.0219C80.0277 78.3379 80.2745 78.596 80.5837 78.7545C80.7623 78.8484 80.9577 78.9059 81.1586 78.9235L83.091 79.0962L84.9518 79.2616L87.0991 79.4527L87.2534 79.4655L87.6501 79.5023L88.9782 79.6198H88.9819C89.2037 79.6377 89.4268 79.6083 89.6364 79.5336C89.8461 79.4588 90.0374 79.3404 90.1979 79.1862C90.3148 79.0723 90.4134 78.9409 90.49 78.7967C90.6239 78.5467 90.685 78.264 90.6663 77.981V77.981Z" fill="#2F98FF"/>
<path d="M108.612 55.5244C108.612 61.8125 102.799 60.8614 95.628 60.8614C88.4572 60.8614 82.644 61.8125 82.644 55.5244C82.644 49.2362 85.4836 38.09 95.628 38.09C106.122 38.09 108.612 49.2362 108.612 55.5244Z" fill="#2F2E41"/>
<path d="M101.762 58.2913C105.174 54.8786 105.174 49.3454 101.762 45.9327C98.3505 42.5199 92.8185 42.5199 89.4065 45.9327C85.9945 49.3454 85.9945 54.8786 89.4065 58.2913C92.8185 61.7041 98.3505 61.7041 101.762 58.2913Z" fill="#FFB8B8"/>
<path d="M107.883 64.5247C107.715 64.3627 107.537 64.2117 107.349 64.0728C106.161 63.1752 104.668 62.78 103.192 62.9722L87.0918 65.0098C85.617 65.1929 84.2716 65.9433 83.3406 67.1019C82.4096 68.2605 81.9663 69.7361 82.1047 71.2161C82.1506 71.7305 82.2021 72.2725 82.259 72.8366C82.3325 73.5439 82.4151 74.2862 82.5106 75.0542C82.6686 76.3458 82.8615 77.709 83.0911 79.0962C83.2913 80.2904 83.5191 81.5012 83.7799 82.6973C83.8553 83.0427 83.9336 83.3869 84.015 83.7298C84.0149 83.7308 84.015 83.7318 84.0153 83.7328C84.0157 83.7337 84.0162 83.7346 84.0169 83.7353C84.0261 83.7776 84.0352 83.8198 84.0462 83.8603C84.0457 83.8635 84.0464 83.8667 84.0481 83.8694C84.162 84.3471 84.2814 84.8193 84.4063 85.286C84.4541 85.4587 84.5 85.6296 84.5477 85.7986C84.6763 86.2579 84.8123 86.708 84.9519 87.1508C86.0007 90.4451 87.3875 93.2506 89.2189 94.7425C89.2428 94.7645 89.2667 94.7829 89.2924 94.8031L89.3659 94.86L89.4724 94.827L89.9243 94.6929L90.31 94.5753L95.3358 93.0632L96.5866 92.6866L100.606 91.4758H100.608L104.283 90.3697L104.731 90.2338L107.889 89.2839L107.99 88.1044L108.126 86.539L108.207 85.5983L108.846 78.1794L109.219 73.8508L109.623 69.151C109.698 68.2988 109.581 67.4406 109.28 66.6398C108.979 65.8391 108.501 65.1162 107.883 64.5247V64.5247Z" fill="#2F2E41"/>
<path d="M116.886 100.423C116.844 100.3 116.803 100.177 116.761 100.056C114.873 94.5441 112.088 90.3753 107.99 88.1044C107.988 88.1044 107.988 88.1026 107.986 88.1026L107.917 88.064L104.346 89.3005L103.905 89.4529L103.446 89.6128L103.44 89.6146L100.097 90.7721L100.091 90.774L97.4684 91.6816H97.4665L95.04 92.5212H95.0382L94.4742 92.7178L90.2329 94.1858L89.7406 94.3567L89.2998 94.5092L89.2318 94.533L89.219 94.7425L88.9159 100.056L88.8957 100.423L88.5173 107.054L75.9512 124.859H84.5477C87.4282 124.86 90.3046 124.641 93.1517 124.203L101.217 115.509C101.285 115.439 101.37 115.389 101.464 115.364C101.559 115.339 101.658 115.34 101.751 115.368C101.844 115.395 101.929 115.447 101.995 115.519C102.06 115.59 102.106 115.678 102.125 115.774L103.31 121.653C109.147 119.589 114.607 116.584 119.474 112.757C118.908 108.191 118.082 104.03 116.886 100.423Z" fill="#2F2E41"/>
<path d="M85.4897 51.2547H88.9454L90.4699 46.9851L90.7747 51.2547H92.4264L93.3157 48.7641L93.4936 51.2547H105.766C105.766 50.0399 105.527 48.8369 105.062 47.7145C104.597 46.5922 103.916 45.5724 103.057 44.7133C102.198 43.8543 101.179 43.1729 100.057 42.708C98.9345 42.2431 97.7318 42.0038 96.5173 42.0038H94.7386C92.2857 42.0038 89.9332 42.9785 88.1987 44.7133C86.4642 46.4482 85.4897 48.8012 85.4897 51.2547V51.2547Z" fill="#2F2E41"/>
<path d="M64.2343 97.5549C63.6702 97.792 63.0609 97.9025 62.4494 97.8786C61.8379 97.8547 61.2391 97.6969 60.6952 97.4165C60.1513 97.1361 59.6754 96.7398 59.3012 96.2555C58.9269 95.7713 58.6634 95.2108 58.5291 94.6137L43.7485 92.9393L48.7032 87.0049L61.9794 89.5047C62.9974 89.3456 64.0383 89.5654 64.9049 90.1227C65.7716 90.6799 66.4038 91.5357 66.6818 92.528C66.9597 93.5203 66.8641 94.5801 66.413 95.5066C65.9619 96.4331 65.1867 97.1619 64.2343 97.5549L64.2343 97.5549Z" fill="#A0616A"/>
<path d="M56.2654 86.5703L50.0181 85.4532L49.5644 85.3724C49.2019 85.3076 48.8571 85.1668 48.5528 84.9593C48.2485 84.7518 47.9916 84.4822 47.7988 84.1683C47.6061 83.8544 47.4819 83.5033 47.4345 83.138C47.3871 82.7727 47.4175 82.4015 47.5237 82.0487L50.5912 71.8537L50.6831 71.5505C51.0661 70.2547 50.9979 68.8672 50.4897 67.6152C49.9814 66.3632 49.0633 65.3208 47.8855 64.6589C47.0883 64.2161 46.1997 63.9632 45.2889 63.9198C44.378 63.8765 43.4694 64.0439 42.6338 64.409C41.7982 64.7741 41.058 65.3271 40.4709 66.025C39.8837 66.7228 39.4654 67.5467 39.2485 68.4326L35.336 84.4041L35.1909 84.9957C34.9176 86.1102 34.8878 87.2704 35.1035 88.3974C35.3192 89.5244 35.7753 90.5917 36.4408 91.5264C37.1063 92.461 37.9654 93.2412 38.9597 93.8137C39.9539 94.3861 41.0599 94.7374 42.2022 94.8436C42.215 94.8454 42.2261 94.8454 42.239 94.8472L44.581 95.0548L47.6191 95.3249L51.4399 95.6648L55.0053 95.9827C55.4723 96.025 55.9382 95.8902 56.3104 95.605C56.6827 95.3198 56.9341 94.905 57.0149 94.443C57.0203 94.4173 57.024 94.3916 57.0277 94.3659L57.7845 88.7144L57.7919 88.6629C57.8571 88.1844 57.7346 87.6992 57.45 87.3091C57.1654 86.919 56.7409 86.6542 56.2654 86.5703V86.5703Z" fill="#CCCCCC"/>
<path d="M46.6404 43.749C44.1465 48.6533 42.181 53.7115 36.68 53.7115C34.0384 53.7115 31.505 52.6619 29.637 50.7936C27.7691 48.9253 26.7197 46.3913 26.7197 43.749C26.7197 38.2469 31.1795 33.8554 36.68 33.7865C42.2706 33.7165 51.2822 34.6208 46.6404 43.749Z" fill="#2F2E41"/>
<path d="M52.8965 107.907L52.6705 105.65L52.5015 105.66L22.801 107.091L22.8782 109.375L23.0087 113.286C27.6044 116.788 32.7079 119.566 38.1427 121.526L38.3356 120.031C38.3524 119.909 38.4109 119.797 38.501 119.713C38.5912 119.629 38.7075 119.579 38.8302 119.571C38.953 119.564 39.0746 119.599 39.1746 119.67C39.2746 119.742 39.3468 119.846 39.3789 119.965L39.9648 122.149C44.6991 123.676 49.6155 124.567 54.5846 124.797L52.8965 107.907Z" fill="#2F2E41"/>
<path d="M43.3482 51.346C46.7602 47.9332 46.7602 42.4001 43.3482 38.9873C39.9362 35.5746 34.4042 35.5746 30.9922 38.9873C27.5802 42.4001 27.5802 47.9332 30.9922 51.346C34.4042 54.7587 39.9362 54.7587 43.3482 51.346Z" fill="#A0616A"/>
<path d="M54.603 105.803L52.8708 100.423L52.8414 100.331L52.7532 100.056L52.2591 98.5236C52.0993 98.0257 51.9468 97.526 51.8053 97.0244C51.6749 96.5724 51.5531 96.1192 51.4398 95.6648C51.2782 95.0328 51.1313 94.3983 50.999 93.7614C50.5507 91.621 50.2518 89.4521 50.1044 87.2703C50.064 86.6658 50.0352 86.0601 50.0181 85.4532C49.9105 81.7332 50.2453 78.0135 51.0155 74.3726C51.686 71.224 51.3279 67.9434 49.9939 65.0138C48.6598 62.0841 46.4205 59.6605 43.6056 58.0998C41.7584 57.0787 39.714 56.4654 37.61 56.3011C37.4648 56.29 37.3197 56.2809 37.1728 56.2717C34.9502 56.1312 32.7244 56.4918 30.6598 57.3269C28.5951 58.1619 26.7444 59.4501 25.2441 61.0964C24.4405 61.9719 23.7426 62.9388 23.1647 63.9772C21.5612 66.8669 20.9592 70.2063 21.4528 73.4741L23.5174 87.3401L23.0472 93.1771L22.4925 100.056L22.463 100.423L21.8715 107.758C21.8435 108.1 21.9263 108.441 22.1076 108.733C22.2888 109.024 22.559 109.249 22.8781 109.375C23.065 109.449 23.2646 109.488 23.466 109.487C23.4954 109.487 23.5229 109.487 23.5523 109.485L52.8965 107.907L53.1647 107.892C53.4095 107.879 53.648 107.81 53.862 107.691C54.0759 107.571 54.2595 107.404 54.3985 107.202C54.5375 107 54.6282 106.769 54.6637 106.526C54.6992 106.284 54.6784 106.036 54.603 105.803L54.603 105.803Z" fill="#CCCCCC"/>
<path d="M46.4416 40.2279C44.4451 41.6043 42.0753 42.3368 39.6505 42.3271C40.5155 42.927 41.5002 43.3321 42.5368 43.5148C39.3128 44.2065 35.9808 44.2252 32.7493 43.5698C32.031 43.4546 31.3379 43.2165 30.7004 42.8659C30.08 42.4892 29.5609 41.8893 29.4358 41.1742C29.221 39.9472 30.1769 38.8324 31.1703 38.0811C32.6912 36.9484 34.4448 36.168 36.3043 35.7963C38.1638 35.4247 40.0826 35.4711 41.9219 35.9322C43.1229 36.2427 44.3261 36.7674 45.1062 37.7321C45.8863 38.6968 46.1174 40.1841 45.3741 41.1775L46.4416 40.2279Z" fill="#2F2E41"/>
<path d="M46.8883 95.737C46.3294 95.9862 45.7226 96.1099 45.1108 96.0992C44.4989 96.0885 43.8969 95.9438 43.347 95.6752C42.7971 95.4067 42.3128 95.0208 41.9281 94.5447C41.5435 94.0687 41.2679 93.5141 41.1207 92.92L26.3074 91.5661L31.1324 85.5258L44.4597 87.7375C45.4739 87.5563 46.5193 87.7536 47.3979 88.2919C48.2764 88.8302 48.927 89.6722 49.2264 90.6582C49.5257 91.6443 49.4531 92.7059 49.0221 93.642C48.5912 94.578 47.832 95.3234 46.8883 95.737L46.8883 95.737Z" fill="#A0616A"/>
<path d="M38.6846 84.9277L35.3359 84.4041L31.9579 83.875C31.5941 83.8181 31.2464 83.6849 30.9377 83.4841C30.629 83.2833 30.3663 83.0195 30.1668 82.71C29.9673 82.4004 29.8355 82.0521 29.7802 81.688C29.7248 81.3239 29.747 80.9522 29.8455 80.5973L32.7771 70.0329C33.1319 68.7291 33.0336 67.3434 32.4984 66.1028C31.9631 64.8621 31.0226 63.84 29.8308 63.2037C29.0257 62.7741 28.1316 62.538 27.2194 62.5141C26.3072 62.4902 25.402 62.6791 24.5755 63.0659C23.7465 63.4467 23.0171 64.0147 22.445 64.7254C21.8728 65.4361 21.4734 66.2699 21.2783 67.1612L17.5806 83.8088C17.3315 84.9318 17.328 86.0953 17.5701 87.2198C17.8122 88.3443 18.2944 89.4032 18.9835 90.324C19.6727 91.2449 20.5527 92.0059 21.5631 92.5551C22.5736 93.1043 23.6908 93.4287 24.8382 93.506L37.6284 94.364C38.0961 94.3959 38.5587 94.2511 38.9247 93.9582C39.2907 93.6652 39.5334 93.2455 39.6048 92.7821C39.6104 92.7564 39.6122 92.7307 39.6158 92.705L40.2496 87.0388L40.2551 86.9873C40.3097 86.5077 40.1767 86.0254 39.884 85.6416C39.5913 85.2577 39.1615 85.0019 38.6846 84.9277Z" fill="#CCCCCC"/>
<path d="M95.3481 76.1454L94.5816 76.5638L85.1379 81.7176L84.3714 82.1359C83.9994 82.3394 83.7234 82.6822 83.6038 83.0891C83.4842 83.4959 83.5309 83.9336 83.7335 84.306L90.766 97.1978C90.9695 97.5699 91.3122 97.846 91.719 97.9656C92.1257 98.0852 92.5633 98.0385 92.9357 97.8358L92.9377 97.8347L103.91 91.8464L103.912 91.8454C104.284 91.6418 104.56 91.299 104.68 90.8922C104.8 90.4854 104.753 90.0477 104.55 89.6752L97.5178 76.7834C97.3143 76.4114 96.9716 76.1353 96.5649 76.0157C96.1581 75.8961 95.7205 75.9428 95.3481 76.1454V76.1454Z" fill="#E6E6E6"/>
<path d="M95.5687 76.5496L94.6608 77.0451L85.4998 82.0446L84.5919 82.5401C84.327 82.685 84.1305 82.9291 84.0453 83.2189C83.9602 83.5086 83.9934 83.8203 84.1377 84.0855L91.1702 96.9773C91.3151 97.2422 91.5592 97.4389 91.8488 97.524C92.1385 97.6092 92.4501 97.576 92.7153 97.4316L92.7172 97.4305L103.69 91.4422L103.692 91.4412C103.957 91.2962 104.153 91.0521 104.239 90.7624C104.324 90.4727 104.291 90.161 104.146 89.8958L97.1137 77.004C96.9688 76.739 96.7248 76.5424 96.4351 76.4572C96.1455 76.3721 95.8339 76.4053 95.5687 76.5496V76.5496Z" fill="white"/>
<path d="M95.8263 80.1894C95.7922 80.1275 95.735 80.0816 95.6673 80.0617C95.5995 80.0417 95.5266 80.0493 95.4644 80.0828L95.0989 80.2831L91.3719 82.317C91.3102 82.351 91.2645 82.4082 91.2448 82.4758C91.2251 82.5435 91.2329 82.6162 91.2667 82.6781C91.3004 82.74 91.3572 82.786 91.4248 82.8062C91.4923 82.8263 91.565 82.8188 91.6271 82.7855L95.7197 80.5513C95.7816 80.5172 95.8275 80.46 95.8474 80.3923C95.8674 80.3245 95.8598 80.2516 95.8263 80.1894Z" fill="#E6E6E6"/>
<path d="M97.2203 80.4521C97.2037 80.4215 97.1812 80.3944 97.154 80.3725C97.1269 80.3506 97.0956 80.3343 97.0622 80.3246C97.0287 80.3149 96.9936 80.3119 96.9589 80.3158C96.9243 80.3197 96.8908 80.3304 96.8603 80.3474L91.8033 83.107C91.7727 83.1238 91.7456 83.1464 91.7237 83.1736C91.7019 83.2009 91.6855 83.2321 91.6757 83.2656C91.6659 83.2992 91.6628 83.3343 91.6666 83.369C91.6704 83.4038 91.6809 83.4374 91.6977 83.468C91.7145 83.4987 91.7371 83.5257 91.7643 83.5476C91.7915 83.5695 91.8228 83.5858 91.8563 83.5956C91.8898 83.6054 91.9249 83.6085 91.9597 83.6048C91.9944 83.601 92.028 83.5904 92.0587 83.5737L92.2938 83.4451L93.7651 82.6422H93.767L97.1138 80.8141C97.1447 80.7975 97.1721 80.775 97.1943 80.7478C97.2165 80.7205 97.233 80.6892 97.2429 80.6555C97.2528 80.6218 97.256 80.5864 97.2521 80.5515C97.2482 80.5166 97.2374 80.4828 97.2203 80.4521V80.4521Z" fill="#E6E6E6"/>
<path d="M91.7244 84.8506L90.1189 81.9054C90.1022 81.8758 90.0746 81.854 90.0419 81.8448C90.0092 81.8355 89.9742 81.8395 89.9445 81.8558L89.1656 82.2802L88.7615 82.5007L86.5922 83.6839L86.1715 83.9136C86.1419 83.9303 86.1202 83.958 86.1109 83.9907C86.1016 84.0233 86.1056 84.0584 86.1219 84.0881L86.2248 84.2774L87.7273 87.0333C87.7437 87.0627 87.771 87.0844 87.8034 87.0937C87.8357 87.103 87.8705 87.0991 87.9 87.0829L90.49 85.67L90.8941 85.4495L91.6729 85.0251C91.6878 85.0171 91.701 85.0062 91.7117 84.9931C91.7223 84.98 91.7303 84.9648 91.7351 84.9486C91.7399 84.9324 91.7414 84.9154 91.7396 84.8985C91.7377 84.8817 91.7326 84.8654 91.7244 84.8506V84.8506Z" fill="#E6E6E6"/>
<path d="M97.8559 83.9264C97.8222 83.8646 97.7654 83.8187 97.6979 83.7987C97.6304 83.7787 97.5577 83.7863 97.4958 83.8199L91.9448 86.8495C91.8957 86.8764 91.8564 86.918 91.8324 86.9684C91.8083 87.0189 91.8007 87.0756 91.8107 87.1306C91.8146 87.1591 91.8239 87.1866 91.8383 87.2115C91.8523 87.2368 91.8703 87.2598 91.8916 87.2794L91.8934 87.2813C91.9345 87.3183 91.986 87.3416 92.0409 87.3482C92.0958 87.3548 92.1514 87.3442 92.2001 87.318L97.7512 84.2884C97.7819 84.2715 97.8089 84.2488 97.8308 84.2215C97.8527 84.1941 97.869 84.1628 97.8787 84.1291C97.8884 84.0955 97.8914 84.0603 97.8875 84.0255C97.8836 83.9907 97.8728 83.957 97.8559 83.9264Z" fill="#E6E6E6"/>
<path d="M99.2521 84.1891C99.2352 84.1585 99.2124 84.1314 99.1851 84.1096C99.1578 84.0877 99.1264 84.0715 99.0928 84.0618C99.0592 84.052 99.024 84.049 98.9892 84.0529C98.9545 84.0568 98.9208 84.0675 98.8902 84.0844L92.3748 87.6395C92.3258 87.6654 92.2864 87.7063 92.2622 87.7562C92.2381 87.8061 92.2306 87.8625 92.2407 87.917V87.9188C92.2446 87.9473 92.2539 87.9747 92.2683 87.9997C92.2824 88.026 92.3011 88.0496 92.3233 88.0695C92.364 88.1072 92.4156 88.1311 92.4707 88.1377C92.5258 88.1443 92.5816 88.1333 92.6301 88.1062L99.1455 84.5511C99.2075 84.5171 99.2535 84.4599 99.2734 84.3921C99.2934 84.3243 99.2857 84.2513 99.2521 84.1891Z" fill="#E6E6E6"/>
<path d="M90.0856 89.7985C90.7095 89.7985 91.2153 89.2926 91.2153 88.6685C91.2153 88.0444 90.7095 87.5385 90.0856 87.5385C89.4616 87.5385 88.9558 88.0444 88.9558 88.6685C88.9558 89.2926 89.4616 89.7985 90.0856 89.7985Z" fill="#E6E6E6"/>
<path d="M98.6545 71.1848L97.888 71.6031L88.4443 76.7569L87.6778 77.1752C87.3058 77.3788 87.0298 77.7216 86.9102 78.1284C86.7906 78.5352 86.8373 78.9729 87.0399 79.3454L94.0724 92.2372C94.2759 92.6092 94.6186 92.8853 95.0254 93.0049C95.4321 93.1245 95.8697 93.0778 96.2421 92.8752L96.2441 92.8741L107.217 86.8858L107.219 86.8847C107.591 86.6812 107.867 86.3384 107.986 85.9315C108.106 85.5247 108.059 85.087 107.857 84.7145L100.824 71.8228C100.621 71.4507 100.278 71.1746 99.8712 71.055C99.4645 70.9354 99.0269 70.9821 98.6545 71.1848V71.1848Z" fill="#CCCCCC"/>
<path d="M98.8748 71.589L97.9669 72.0844L88.8059 77.084L87.8981 77.5794C87.6332 77.7244 87.4366 77.9685 87.3515 78.2582C87.2663 78.5479 87.2995 78.8596 87.4438 79.1248L94.4763 92.0166C94.6212 92.2816 94.8653 92.4782 95.155 92.5634C95.4446 92.6485 95.7562 92.6153 96.0214 92.471L96.0234 92.4699L106.996 86.4816L106.998 86.4805C107.263 86.3356 107.46 86.0914 107.545 85.8017C107.63 85.512 107.597 85.2003 107.452 84.9351L100.42 72.0433C100.275 71.7784 100.031 71.5818 99.7413 71.4966C99.4516 71.4114 99.14 71.4446 98.8748 71.589Z" fill="white"/>
<path d="M99.1327 75.2287C99.0986 75.1669 99.0414 75.121 98.9737 75.101C98.9059 75.081 98.833 75.0887 98.7708 75.1222L96.8862 76.151L96.3608 76.4377L94.6783 77.3563C94.6166 77.3904 94.5709 77.4475 94.5512 77.5152C94.5315 77.5829 94.5393 77.6556 94.573 77.7175C94.6068 77.7794 94.6636 77.8254 94.7311 77.8455C94.7987 77.8656 94.8714 77.8582 94.9335 77.8248L96.9174 76.7427L97.3325 76.5148L99.0261 75.5907C99.088 75.5565 99.1339 75.4994 99.1538 75.4316C99.1738 75.3638 99.1662 75.2909 99.1327 75.2287V75.2287Z" fill="#CCCCCC"/>
<path d="M100.527 75.4915C100.51 75.4608 100.488 75.4338 100.46 75.4119C100.433 75.39 100.402 75.3737 100.369 75.3639C100.335 75.3542 100.3 75.3512 100.265 75.3551C100.231 75.359 100.197 75.3698 100.167 75.3867L97.5381 76.8217L97.1339 77.0421L95.1097 78.1463C95.0791 78.1631 95.052 78.1857 95.0301 78.213C95.0082 78.2402 94.9919 78.2715 94.9821 78.305C94.9723 78.3385 94.9692 78.3736 94.973 78.4084C94.9768 78.4431 94.9873 78.4767 95.0041 78.5074C95.0209 78.538 95.0435 78.5651 95.0707 78.5869C95.0979 78.6088 95.1292 78.6252 95.1627 78.635C95.1962 78.6448 95.2313 78.6479 95.2661 78.6441C95.3008 78.6403 95.3344 78.6298 95.365 78.613L97.3893 77.5088L97.7934 77.2883L100.42 75.8534C100.451 75.8369 100.478 75.8143 100.501 75.7871C100.523 75.7599 100.539 75.7285 100.549 75.6948C100.559 75.6611 100.562 75.6258 100.558 75.5909C100.555 75.5559 100.544 75.5222 100.527 75.4915V75.4915Z" fill="#CCCCCC"/>
<path d="M95.0308 79.8899L93.7505 77.5419L93.5301 77.1377L93.4253 76.9447C93.4086 76.9152 93.381 76.8934 93.3483 76.8841C93.3156 76.8748 93.2806 76.8788 93.2509 76.8951L90.6517 78.3135L89.4779 78.9529C89.4484 78.9696 89.4266 78.9973 89.4173 79.03C89.408 79.0626 89.412 79.0977 89.4283 79.1274L89.533 79.3185L89.6469 79.5298L89.7535 79.7227V79.7246L91.0337 82.0726C91.0501 82.102 91.0775 82.1238 91.1098 82.1331C91.1422 82.1424 91.1769 82.1384 91.2064 82.1222L94.9793 80.0644C94.9942 80.0564 95.0074 80.0455 95.0181 80.0324C95.0287 80.0193 95.0367 80.0042 95.0415 79.9879C95.0463 79.9717 95.0478 79.9547 95.046 79.9378C95.0441 79.921 95.039 79.9047 95.0308 79.8899V79.8899Z" fill="#2F98FF"/>
<path d="M101.162 78.9658C101.129 78.904 101.072 78.858 101.004 78.8381C100.937 78.8181 100.864 78.8257 100.802 78.8592L99.1435 79.765L98.7394 79.9854L97.1376 80.8582L95.2511 81.8889C95.2204 81.9056 95.1932 81.9283 95.1712 81.9556C95.1492 81.9828 95.1328 82.0142 95.1229 82.0478C95.113 82.0814 95.1098 82.1166 95.1136 82.1515C95.1173 82.1863 95.1278 82.2201 95.1446 82.2508C95.1614 82.2816 95.184 82.3088 95.2113 82.3308C95.2385 82.3528 95.2699 82.3692 95.3035 82.3791C95.3371 82.389 95.3723 82.3921 95.4071 82.3884C95.442 82.3847 95.4757 82.3742 95.5065 82.3574L98.9948 80.454L99.3988 80.2335L101.058 79.3277C101.088 79.3109 101.115 79.2881 101.137 79.2608C101.159 79.2335 101.175 79.2021 101.185 79.1685C101.195 79.1348 101.198 79.0996 101.194 79.0648C101.19 79.0301 101.179 78.9964 101.162 78.9658V78.9658Z" fill="#CCCCCC"/>
<path d="M102.558 79.2285C102.541 79.1978 102.519 79.1708 102.491 79.149C102.464 79.1271 102.433 79.1109 102.399 79.1011C102.366 79.0914 102.33 79.0884 102.296 79.0923C102.261 79.0962 102.227 79.1069 102.196 79.1238L99.5752 80.555L99.1712 80.7755L95.6811 82.6789C95.6503 82.6956 95.6231 82.7182 95.601 82.7454C95.579 82.7726 95.5625 82.8039 95.5526 82.8375C95.5427 82.8711 95.5395 82.9064 95.5433 82.9412C95.547 82.976 95.5576 83.0098 95.5744 83.0405C95.5912 83.0712 95.6139 83.0983 95.6412 83.1203C95.6685 83.1422 95.6999 83.1585 95.7335 83.1683C95.7672 83.178 95.8024 83.1811 95.8372 83.1772C95.872 83.1733 95.9057 83.1625 95.9364 83.1456L99.4246 81.2422L99.8288 81.0217L102.452 79.5904C102.514 79.5564 102.56 79.4993 102.58 79.4314C102.6 79.3636 102.592 79.2907 102.558 79.2285V79.2285Z" fill="#CCCCCC"/>
<path d="M93.392 84.8379C94.0159 84.8379 94.5217 84.332 94.5217 83.7079C94.5217 83.0838 94.0159 82.5779 93.392 82.5779C92.768 82.5779 92.2622 83.0838 92.2622 83.7079C92.2622 84.332 92.768 84.8379 93.392 84.8379Z" fill="#CCCCCC"/>
<path d="M94.1508 90.0608C94.341 90.0796 94.5294 90.1133 94.7143 90.1616L107.527 78.7932L106.698 74.7149L112.688 72.6598L114.856 79.7372C115.032 80.3089 115.017 80.9221 114.814 81.4846C114.611 82.0471 114.231 82.5286 113.731 82.8568L97.4428 93.5533C97.4668 94.2892 97.2663 95.0151 96.8678 95.6342C96.4693 96.2534 95.8919 96.7365 95.2122 97.0194C94.5325 97.3022 93.7828 97.3714 93.0629 97.2178C92.3429 97.0641 91.6868 96.6948 91.1818 96.159C90.6768 95.6233 90.3468 94.9464 90.2358 94.2185C90.1248 93.4906 90.2379 92.7461 90.5603 92.0841C90.8826 91.4221 91.3987 90.8739 92.0401 90.5125C92.6815 90.1511 93.4177 89.9935 94.1508 90.0608V90.0608Z" fill="#FFB8B8"/>
<path d="M116.346 73.6781L112.716 66.7442C112.343 65.6896 111.574 64.8214 110.573 64.323C109.571 63.8246 108.415 63.7348 107.349 64.0728C107.308 64.0838 107.27 64.0967 107.23 64.1114C106.149 64.4892 105.262 65.2804 104.764 66.3113C104.266 67.3423 104.198 68.5288 104.573 69.6103L106.03 77.2736C106.072 77.493 106.16 77.7008 106.29 77.8828C106.419 78.0648 106.586 78.2167 106.779 78.3282C106.991 78.4519 107.229 78.5225 107.474 78.534C107.675 78.5468 107.877 78.5186 108.067 78.4513L108.846 78.1794L113.846 76.4377L115.481 75.8681C115.692 75.7943 115.884 75.676 116.045 75.5212C116.206 75.3664 116.332 75.1788 116.414 74.971C116.496 74.7632 116.533 74.5402 116.521 74.3171C116.509 74.094 116.449 73.8761 116.346 73.6781V73.6781Z" fill="#2F98FF"/>
<path d="M130.048 100.423H10.0997C10.051 100.423 10.0043 100.404 9.96982 100.37C9.93537 100.335 9.91602 100.288 9.91602 100.24C9.91602 100.191 9.93537 100.144 9.96982 100.11C10.0043 100.075 10.051 100.056 10.0997 100.056H130.048C130.097 100.056 130.143 100.075 130.178 100.11C130.212 100.144 130.232 100.191 130.232 100.24C130.232 100.288 130.212 100.335 130.178 100.37C130.143 100.404 130.097 100.423 130.048 100.423Z" fill="#3F3D56"/>
<path d="M30.7639 97.0244V97.1163C30.7646 97.7392 30.9459 98.3485 31.286 98.8703C31.6261 99.3921 32.1103 99.804 32.6798 100.056C33.0883 100.239 33.531 100.332 33.9785 100.332H63.6441V97.0244H30.7639Z" fill="#3F3D56"/>
<path d="M84.3567 75.2287C83.886 74.2567 83.1611 73.4302 82.259 72.8366C81.8501 72.5658 81.4089 72.3473 80.9457 72.1862C80.3145 71.9657 79.6506 71.8533 78.9821 71.8536H50.5104C48.9277 71.8555 47.4103 72.4852 46.2911 73.6046C45.1719 74.724 44.5424 76.2417 44.5405 77.8248V94.3603C44.54 94.5924 44.5535 94.8243 44.581 95.0548C44.6213 95.3995 44.6914 95.7401 44.7903 96.0727C44.8885 96.4003 45.0151 96.7188 45.1687 97.0244C45.6632 98.0182 46.4252 98.8543 47.3689 99.4385C48.3126 100.023 49.4006 100.332 50.5104 100.331H78.9821C79.7661 100.332 80.5425 100.178 81.267 99.8776C81.9914 99.5776 82.6496 99.1378 83.204 98.5832C83.7585 98.0287 84.1982 97.3703 84.4981 96.6457C84.798 95.9212 84.9522 95.1446 84.9519 94.3603V77.8248C84.9532 76.9255 84.7497 76.0376 84.3567 75.2287V75.2287Z" fill="#3F3D56"/>
<path d="M66.3076 87.5624C67.1192 87.5624 67.7771 86.9043 67.7771 86.0926C67.7771 85.2808 67.1192 84.6227 66.3076 84.6227C65.4961 84.6227 64.8381 85.2808 64.8381 86.0926C64.8381 86.9043 65.4961 87.5624 66.3076 87.5624Z" fill="white"/>
</g>
<defs>
<clipPath id="clip0_826_542">
<rect width="131.391" height="111.003" fill="white" transform="translate(9.91602 13.8562)"/>
</clipPath>
</defs>
</svg>
