<svg width="150" height="149" viewBox="0 0 150 149" fill="none" xmlns="http://www.w3.org/2000/svg">
<ellipse cx="75" cy="74.5" rx="75" ry="74.5" fill="#EDEDED"/>
<g clip-path="url(#clip0_830_619)">
<path opacity="0.1" d="M136.253 78.2787C136.253 78.3524 136.253 78.4262 136.253 78.4987C136.239 79.7705 136.156 81.0391 136.003 82.3045C136.004 82.3122 136.004 82.3199 136.003 82.3275C135.991 82.4327 135.978 82.5367 135.965 82.6418C135.942 82.8196 135.918 82.9961 135.891 83.1738C135.579 85.337 135.063 87.4722 134.349 89.5559V89.5559C133.392 92.3717 132.039 95.0647 130.324 97.569C129.796 98.3347 129.234 99.0758 128.637 99.7923C128.319 100.172 127.994 100.543 127.658 100.908C127.423 101.164 127.183 101.415 126.939 101.663L126.786 101.815C125.501 103.091 124.115 104.281 122.64 105.377C120.233 107.18 117.641 108.75 115.008 110.205C114.858 110.289 114.707 110.371 114.556 110.447C114.545 110.454 114.534 110.46 114.522 110.465C110.944 112.421 107.232 114.186 103.409 115.6C99.2228 117.151 94.9004 118.279 90.4656 118.772C84.2842 119.459 78.028 118.9 71.884 117.94C66.7743 117.146 61.7264 116.056 56.7716 114.676L55.9558 114.445C55.5332 114.323 55.1111 114.199 54.6893 114.073C52.1421 113.311 49.6233 112.465 47.1331 111.534C40.8789 109.205 34.9041 106.305 29.3018 102.879C28.5886 102.445 27.8856 102.002 27.1928 101.549C26.2245 100.919 25.2679 100.27 24.3228 99.6025L23.7397 99.1938C21.2664 97.4431 18.9492 95.5194 16.8094 93.4403C13.9313 90.6089 11.4719 87.4148 9.855 83.7686C9.6 83.1955 9.36641 82.6116 9.15421 82.0168L9.13415 81.9576C9.02716 81.6553 8.92819 81.3531 8.83725 81.0388C8.70351 80.589 8.58627 80.1336 8.48552 79.6726C8.46412 79.5844 8.4454 79.4961 8.42801 79.4066C8.10836 77.8551 7.96719 76.2779 8.00674 74.7001C8.04019 73.3177 8.21931 71.9413 8.54169 70.5896V70.5896C8.87165 69.1884 9.38013 67.8265 10.0569 66.5311V66.5311C10.6686 65.3663 11.4479 64.2797 12.3746 63.2995V63.2995C13.0258 62.6143 13.7582 61.9956 14.5586 61.4547C16.0096 60.4778 17.6185 59.7972 19.2862 59.2592C20.0699 59.0053 20.8643 58.7828 21.6627 58.5761C22.2284 58.4286 22.7968 58.2884 23.3625 58.1505L25.0316 57.7431C26.1015 57.4796 27.1714 57.2088 28.2253 56.9162C31.0979 56.1231 33.9131 55.1632 36.517 53.7318C36.9289 53.5057 37.3489 53.2578 37.7688 52.9919C38.3038 52.6558 38.8307 52.2907 39.3523 51.8965C39.8792 51.4976 40.3954 51.0708 40.8876 50.6187C40.9638 50.5485 41.0387 50.4784 41.1136 50.4071C41.5148 50.0251 41.904 49.6249 42.2651 49.209C42.4416 49.0059 42.6128 48.7992 42.776 48.5888C43.002 48.2974 43.216 48.0012 43.4139 47.6966C44.4062 46.1733 45.0187 44.4928 44.9465 42.7217C44.936 42.4299 44.9069 42.1388 44.8596 41.85C44.6857 40.7825 44.5186 39.7404 44.3955 38.7212C43.8793 34.5055 44.0973 30.6828 47.5972 27.0909C51.949 22.6262 58.779 21.7158 64.9965 22.0725C82.9723 23.1001 99.3364 32.3777 113.717 43.4229C114.961 44.3772 116.19 45.3443 117.403 46.3244C117.709 46.571 118.015 46.8193 118.322 47.0691C120.595 48.9201 122.834 50.8399 124.919 52.8964C125.088 53.0632 125.256 53.23 125.422 53.3981C125.524 53.5021 125.627 53.6048 125.727 53.71C126.377 54.3749 127.008 55.056 127.619 55.7532C129.258 57.604 130.705 59.587 131.942 61.6771C133.836 64.9573 135.118 68.4976 135.737 72.1552V72.1552C135.97 73.4835 136.123 74.8222 136.196 76.1654C136.219 76.5607 136.233 76.9573 136.241 77.3526C136.241 77.4795 136.241 77.6053 136.241 77.7322C136.255 77.916 136.255 78.0949 136.253 78.2787Z" fill="#2F98FF"/>
<path d="M60.6901 76.2513L58.5503 110.682L60.6901 110.707L62.4287 75.7677L60.6901 76.2513Z" fill="#3F3D56"/>
<path d="M52.7995 93.6955H26.3193V98.8941H52.7995V93.6955Z" fill="#2F98FF"/>
<path d="M54.5382 98.2884V101.553H27.1847C26.2165 100.922 25.2598 100.273 24.3147 99.6061V98.2884H54.5382Z" fill="#3F3D56"/>
<path d="M60 90.8592C59.9251 91.1724 59.8275 91.4819 59.7245 91.7902C59.4209 92.6812 59.0558 93.5601 58.9849 94.4862C58.89 95.7096 59.2524 97.1326 58.3163 98.0212C58.0755 98.2509 57.7612 98.4226 57.5459 98.668C57.5128 98.7065 57.4824 98.7468 57.455 98.7889C57.2624 99.0766 57.2397 99.4272 57.237 99.7561C57.2392 100.457 57.2897 101.158 57.3881 101.854C57.7051 104.247 58.331 106.646 57.5085 108.906C57.3594 109.297 57.1857 109.681 56.9882 110.055C56.587 110.853 56.1497 111.64 56.0186 112.505C55.9223 113.145 55.9518 113.805 55.9464 114.457C55.5238 114.335 55.1016 114.211 54.6799 114.085C52.1327 113.323 49.6139 112.477 47.1237 111.546C47.1304 111.513 47.1371 111.479 47.1424 111.447C47.3337 110.371 47.0716 109.271 46.7533 108.221C46.0846 105.998 45.1377 103.796 44.5773 101.557C44.3517 100.683 44.2037 99.7935 44.1347 98.8977C44.1186 98.697 44.1093 98.4951 44.1079 98.2932C44.1012 98.0296 44.1079 97.7661 44.12 97.5001C44.1481 96.9694 44.1735 96.3395 43.704 96.0167C43.4459 95.8414 43.1049 95.8112 42.804 95.7048C42.2236 95.5005 41.8264 95.0266 41.3663 94.6469C41.1468 94.4545 40.8789 94.3132 40.5855 94.2353C40.2922 94.1573 39.9823 94.1451 39.6825 94.1996C36.6761 94.8222 34.4668 97.1277 31.669 98.2932C31.5606 98.3391 31.4523 98.3827 31.3426 98.4238C30.9807 98.5436 30.6363 98.7027 30.3169 98.8977C30.0924 99.0385 29.9296 99.246 29.8568 99.484C29.7859 99.7403 29.8474 100.009 29.8822 100.272C29.9385 100.701 29.9182 101.135 29.822 101.557C29.7858 101.721 29.738 101.883 29.6789 102.041C29.5719 102.328 29.4288 102.608 29.2924 102.887C28.5792 102.454 27.8761 102.01 27.1834 101.557C26.2151 100.927 25.2584 100.278 24.3134 99.611L23.7396 99.1939C21.2663 97.4431 18.9491 95.5194 16.8093 93.4404C17.0942 92.715 17.5061 92.0404 17.704 91.2969C17.8164 90.8701 17.8578 90.4264 18.013 90.0118C18.1919 89.5818 18.4407 89.1785 18.7512 88.8149C19.8884 87.3812 21.2771 86.1251 22.8623 85.0961C24.5193 84.0225 26.4331 83.1617 27.9243 81.9431C28.5294 81.4642 29.0511 80.9054 29.4716 80.2856C29.4971 80.2481 29.5211 80.2082 29.5425 80.1647C29.6589 79.9459 29.7396 79.7129 29.7819 79.4732C29.8889 78.9316 29.8729 78.3367 29.9264 77.8169C31.7429 78.1011 33.5948 78.1516 35.427 77.9668C37.5601 77.7504 39.6464 77.2148 41.7796 77.0069C41.94 76.99 42.1019 76.9767 42.2637 76.9646C42.9471 76.915 43.6318 76.9041 44.3179 76.9114C44.8916 76.9114 45.4654 76.9343 46.0391 76.9513L52.3555 77.1447C53.055 77.1665 53.7692 77.1906 54.4205 77.4216C55.1935 77.696 55.8127 78.2424 56.3088 78.8433C56.3717 78.9207 56.4346 78.998 56.4934 79.0778C56.9017 79.6162 57.2291 80.2012 57.467 80.8175C57.4924 80.8804 57.5165 80.9384 57.5392 81.0074C57.5994 81.1754 57.6516 81.3447 57.6984 81.5163C57.7345 81.6505 57.7666 81.7847 57.796 81.9201C57.9431 82.5899 58.0301 83.2742 58.2628 83.921C58.2788 83.9681 58.2962 84.0153 58.3149 84.0612C58.5944 84.7697 59.0585 85.4044 59.4089 86.085C59.6615 86.5777 59.8543 87.0938 59.984 87.624C60.2459 88.6889 60.2514 89.7923 60 90.8592V90.8592Z" fill="#35323E"/>
<path d="M40.8006 47.5939C40.2362 47.1877 39.4177 47.4851 38.7571 47.7474C38.2031 47.9686 37.6329 48.1548 37.0506 48.3047C36.9314 48.3462 36.8022 48.3583 36.6761 48.3398C36.4086 48.2818 36.2963 47.9952 36.097 47.8212C35.7506 47.5201 35.1836 47.5915 34.7369 47.7547C34.2902 47.9179 33.8489 48.1536 33.3701 48.1174C32.8592 48.0811 32.4152 47.7402 31.899 47.7293C30.9896 47.7099 30.2259 48.723 29.366 48.4547C28.8417 48.2914 28.4298 47.6749 27.9136 47.8502C27.5124 47.988 27.4763 48.4897 27.2342 48.8173C26.9493 49.1994 26.3943 49.307 25.9196 49.4762C24.423 50.0106 23.432 51.5182 23.6273 52.9617C23.7356 53.7584 24.1622 54.4886 24.4444 55.2491C25.2816 57.4603 24.9941 59.9544 26.0493 62.087C26.183 61.9733 26.2579 61.931 26.3876 61.8186C26.054 62.4441 25.9896 63.1595 26.2071 63.8255C26.3181 64.1604 26.4986 64.4723 26.6351 64.7999C26.7768 65.1674 26.8911 65.543 26.9774 65.9243L28.1409 70.5643C28.5956 72.3777 29.0517 74.1912 29.1306 76.0482C29.1797 77.2556 29.0774 78.4642 28.8257 79.6509C30.9334 79.3354 32.8619 78.4903 34.9977 78.5012C35.7814 78.5012 36.5584 78.6221 37.3354 78.7188C39.6008 79.0054 41.886 79.1455 44.1735 79.1383C44.5292 79.1566 44.8855 79.1114 45.222 79.0053C45.5162 78.8917 45.7569 78.6898 46.0351 78.5435C46.5794 78.2533 47.2387 78.1808 47.866 78.1808C50.7266 78.1336 53.483 79.0803 56.3249 79.4139C57.447 77.2849 57.5138 74.734 56.6526 72.5083C56.3971 71.847 56.0534 71.2026 55.9518 70.5075C55.911 70.0801 55.9002 69.6509 55.9197 69.2223C55.9152 68.1252 55.6965 67.0373 55.2737 66.0089C55.1079 65.6063 54.9086 65.1965 54.926 64.7673C54.9434 64.3381 55.1774 63.9379 55.4075 63.5583C55.8742 62.7846 56.3436 62.0036 57.003 61.3507C57.6783 60.6761 58.5235 60.1623 59.3594 59.6582L61.423 58.4057C61.1408 56.7941 60.777 55.0967 60.0214 53.6145C59.2658 52.1323 58.1357 50.7698 56.6071 49.903C56.0917 49.6227 55.5524 49.3802 54.9942 49.1776C54.2132 48.8802 53.4 48.6179 52.5535 48.5731C51.5906 48.5236 50.6424 48.7569 49.6915 48.902C46.6984 49.3578 43.1758 49.3021 40.8006 47.5939Z" fill="#2F98FF"/>
<path d="M63.3649 75.5597L62.3833 76.6804L60.5323 78.7925L58.3925 81.2334L57.7947 81.9153H56.6352L27.923 81.9455L9.94191 81.9636H9.13949C9.0325 81.6614 8.93353 81.3592 8.84259 81.0448C8.70885 80.5951 8.59161 80.1397 8.49086 79.6787C8.46946 79.5904 8.45074 79.5022 8.43335 79.4127L14.9571 75.5573L17.4098 75.5452L24.9125 75.5065L29.1026 75.4848H29.8675H30.3477L33.1401 75.4715L54.4232 75.3615L55.5118 75.3554H55.9839L57.2344 75.3494L61.8871 75.3252L62.7805 75.0181L62.846 75.081L63.3649 75.5597Z" fill="#3F3D56"/>
<path d="M62.9637 74.9553L62.8527 75.0761L62.1225 75.8535L60.6193 77.4578L57.4671 80.8175L29.5426 80.1732L8.48552 79.6896C8.46412 79.6013 8.4454 79.5131 8.42801 79.4236C8.10836 77.8721 7.96719 76.2949 8.00674 74.7171L10.3418 73.6363L10.8768 73.3872L15.04 71.4529L18.6937 69.7603L28.2239 70.8798L30.3343 71.1277L31.2892 71.2389L32.6868 71.4033L32.8044 71.4178L54.7201 73.9869L57.1421 74.271L58.5637 74.4378L62.945 74.9528L62.9637 74.9553Z" fill="#504F60"/>
<path d="M58.4164 80.7583L58.3937 81.2334L58.26 83.9161L57.5405 98.6656L57.388 101.854L56.9868 110.055L56.7608 114.688L55.945 114.457C55.5224 114.335 55.1002 114.211 54.6785 114.085L56.6351 81.9262L56.6765 81.2516L57.5378 81.0098L58.4164 80.7583Z" fill="#3F3D56"/>
<path d="M10.0034 80.7232L9.94317 81.9649L9.8549 83.7783C9.59991 83.2053 9.36632 82.6213 9.15412 82.0265L9.13406 81.9673C9.02707 81.665 8.9281 81.3628 8.83716 81.0485L10.0034 80.7232Z" fill="#3F3D56"/>
<path d="M44.9759 62.4436C48.3736 62.4436 51.1279 59.0877 51.1279 54.948C51.1279 50.8083 48.3736 47.4524 44.9759 47.4524C41.5783 47.4524 38.824 50.8083 38.824 54.948C38.824 59.0877 41.5783 62.4436 44.9759 62.4436Z" fill="#A1616A"/>
<path opacity="0.1" d="M44.9759 62.4436C48.3736 62.4436 51.1279 59.0877 51.1279 54.948C51.1279 50.8083 48.3736 47.4524 44.9759 47.4524C41.5783 47.4524 38.824 50.8083 38.824 54.948C38.824 59.0877 41.5783 62.4436 44.9759 62.4436Z" fill="black"/>
<path d="M45.8451 58.1518C50.5723 58.1518 54.4044 54.6876 54.4044 50.4144C54.4044 46.1411 50.5723 42.677 45.8451 42.677C41.118 42.677 37.2859 46.1411 37.2859 50.4144C37.2859 54.6876 41.118 58.1518 45.8451 58.1518Z" fill="#A1616A"/>
<path d="M46.015 38.4891C45.4924 38.5268 44.9735 38.5983 44.4623 38.7031C43.1088 39.0005 41.9386 39.6606 40.7992 40.3086C40.2883 40.6 39.7627 40.9034 39.4457 41.3314C38.876 42.0991 39.0967 43.076 38.7771 43.9283C38.6112 44.3659 38.3063 44.7588 38.0482 45.1663C37.338 46.2833 36.9662 47.5104 36.6011 48.7255C36.5262 48.9769 36.5048 49.3179 36.8084 49.4146C36.9832 49.4474 37.1651 49.4288 37.3273 49.3614C38.2862 49.0749 39.5046 48.9926 40.2161 49.5742C40.9276 50.1557 40.8674 51.1869 41.7139 51.6294C42.6835 52.1408 44.1975 51.523 45.0775 52.1263C45.4546 52.385 45.591 52.7997 45.8999 53.1116C46.6195 53.837 48.0036 53.8019 49.1551 53.6556C49.8158 53.571 50.6262 53.5142 51.0275 53.9337C51.22 54.132 51.2749 54.404 51.4982 54.5829C51.8994 54.9069 52.6336 54.7425 53.0255 54.41C53.4174 54.0776 53.6046 53.6278 53.9309 53.2543C54.5662 52.5289 55.6829 52.1335 56.3382 51.4166C56.8865 50.8121 57.0524 50.0553 57.2021 49.3251L57.7598 46.6182C57.9858 45.5205 58.1918 44.3212 57.5084 43.354C57.265 43.0058 56.9159 42.706 56.706 42.3457C56.5655 42.1039 56.4866 41.8488 56.3235 41.6204C56.13 41.3823 55.8988 41.1713 55.6374 40.9941L54.3174 40.0064C53.8661 39.6493 53.3835 39.3258 52.8744 39.0392C50.99 38.0466 48.1681 38.3078 46.015 38.4891Z" fill="#464353"/>
<path d="M17.823 58.4202C17.5061 58.7248 17.2132 59.0537 16.8735 59.339C16.5747 59.5792 16.2622 59.8052 15.9373 60.016C15.4131 60.3707 14.9004 60.7378 14.3993 61.1174C13.8766 61.491 13.4035 61.9182 12.9897 62.3904C12.2756 63.2573 11.9372 64.3357 11.2685 65.2315C10.6774 66.0258 9.84422 66.6533 9.24373 67.4415C8.9803 67.7729 8.78463 68.1443 8.66598 68.5381C8.57742 68.9191 8.53749 69.3081 8.54696 69.6975C8.53492 70.3358 8.52422 70.9814 8.66866 71.6064C8.8131 72.2315 9.13005 72.8456 9.67303 73.2555C10.1772 73.6363 10.8285 73.8116 11.4665 73.9567C11.7955 74.0304 12.1512 74.0993 12.4641 73.982C12.6931 73.8775 12.8919 73.7259 13.0446 73.5396L14.6722 71.847C15.7608 70.7106 16.8922 69.55 18.3861 68.885C18.8541 68.6783 19.3476 68.5223 19.8171 68.3217C21.8071 67.4548 23.214 65.6801 23.7597 63.7457C23.8934 63.273 23.979 62.7906 24.0659 62.3082L24.3013 60.9856C24.3194 60.9193 24.3194 60.85 24.3013 60.7837C24.2644 60.7092 24.2051 60.6455 24.1301 60.6C22.9964 59.7723 21.935 58.8669 20.9552 57.8919C20.7225 57.6597 20.5045 57.3418 20.2357 57.1471C19.8986 56.9054 19.9241 56.9235 19.5188 57.1471C18.8955 57.5039 18.3255 57.9318 17.823 58.4202V58.4202Z" fill="#A1616A"/>
<path d="M28.9569 67.2215C28.9433 67.1934 28.9237 67.1681 28.899 67.147C28.8744 67.126 28.8453 67.1097 28.8135 67.0991C28.7818 67.0885 28.7479 67.0838 28.7141 67.0852C28.6803 67.0867 28.6471 67.0944 28.6166 67.1078C28.5861 67.1211 28.5589 67.1399 28.5367 67.1631C28.5145 67.1862 28.4976 67.2131 28.4872 67.2422C28.4767 67.2714 28.4729 67.3021 28.4759 67.3326C28.479 67.3631 28.4888 67.3928 28.5048 67.4198L28.3711 67.479L32.3592 74.8682L33.08 74.5503L29.0919 67.1562L28.9569 67.2215Z" fill="#3F3D56"/>
<path opacity="0.04" d="M17.823 58.4202C17.5061 58.7248 17.2132 59.0537 16.8735 59.339C16.5747 59.5792 16.2622 59.8052 15.9373 60.016C15.4131 60.3707 14.9004 60.7378 14.3993 61.1174C13.8766 61.491 13.4035 61.9182 12.9897 62.3904C12.2756 63.2573 11.9372 64.3357 11.2685 65.2315C10.6774 66.0258 9.84422 66.6533 9.24373 67.4415C8.9803 67.7729 8.78463 68.1443 8.66598 68.5381C8.57742 68.9191 8.53749 69.3081 8.54696 69.6975C8.53492 70.3358 8.52422 70.9814 8.66866 71.6064C8.8131 72.2315 9.13005 72.8456 9.67303 73.2555C10.1772 73.6363 10.8285 73.8116 11.4665 73.9567C11.7955 74.0304 12.1512 74.0993 12.4641 73.982C12.6931 73.8775 12.8919 73.7259 13.0446 73.5396L14.6722 71.847C15.7608 70.7106 16.8922 69.55 18.3861 68.885C18.8541 68.6783 19.3476 68.5223 19.8171 68.3217C21.8071 67.4548 23.214 65.6801 23.7597 63.7457C23.8934 63.273 23.979 62.7906 24.0659 62.3082L24.3013 60.9856C24.3194 60.9193 24.3194 60.85 24.3013 60.7837C24.2644 60.7092 24.2051 60.6455 24.1301 60.6C22.9964 59.7723 21.935 58.8669 20.9552 57.8919C20.7225 57.6597 20.5045 57.3418 20.2357 57.1471C19.8986 56.9054 19.9241 56.9235 19.5188 57.1471C18.8955 57.5039 18.3255 57.9318 17.823 58.4202V58.4202Z" fill="black"/>
<path d="M63.9278 72.038C63.9145 72.8094 63.881 73.6036 63.5266 74.3073C63.3742 74.6119 63.1374 74.9117 62.783 75.0121C62.5686 75.0569 62.3466 75.0643 62.1291 75.0339C59.5052 74.8254 56.8613 75.015 54.3067 75.5948C54.9888 74.3617 54.5969 72.8831 54.7855 71.5145C54.8377 71.141 54.9326 70.7734 54.9687 70.3987C55.1025 69.0688 54.4726 67.7776 54.1837 66.4647C53.9329 65.3282 53.9329 64.1581 54.1837 63.0215C54.2329 62.729 54.3441 62.4478 54.5113 62.1934C54.7072 61.9459 54.9647 61.7434 55.2629 61.6022C56.3462 61.0449 57.6234 60.9808 58.8404 61.0545C59.6603 61.1041 61.3039 61.034 61.9873 61.4898C62.7349 61.9891 62.9716 63.6659 63.1736 64.4409C63.4759 65.6294 63.6815 66.8364 63.7888 68.0521C63.9198 69.3771 63.9479 70.7082 63.9278 72.038Z" fill="#A1616A"/>
<path d="M16.0217 74.7147L20.8363 77.6162L42.5019 76.8908L28.1919 74.7147H16.0217Z" fill="white"/>
<path d="M22.3701 51.6608C21.5797 52.2907 20.9097 53.033 20.1608 53.704C19.1337 54.6252 17.9661 55.4086 16.804 56.1884C17.2207 56.2937 17.6 56.495 17.9047 56.7727C18.2095 57.0503 18.4293 57.3947 18.5425 57.7722C18.5934 57.9499 18.6188 58.1349 18.6763 58.309C18.81 58.7212 19.1042 59.0767 19.4199 59.397C20.776 60.7789 22.6737 61.8017 23.4735 63.5075C23.4996 63.5905 23.5562 63.663 23.634 63.713C23.699 63.7391 23.7713 63.7467 23.8413 63.7348C24.5648 63.6659 25.1184 63.1388 25.5798 62.6262C26.5428 61.5381 27.3786 60.3364 27.8534 59.0089C28.3282 57.6815 28.4044 56.2138 27.8868 54.8985C27.6287 54.2432 27.2302 53.6411 26.8343 53.0451C26.4875 52.5236 26.1415 52.003 25.7965 51.4831C25.616 51.2087 25.3859 50.6513 25.0315 50.5159C24.2665 50.2185 22.861 51.2171 22.3701 51.6608Z" fill="#2F98FF"/>
<path d="M61.7615 59.4744L62.8996 61.8923C61.6606 61.501 60.3364 61.3819 59.0364 61.5448C57.7365 61.7077 56.4981 62.148 55.4236 62.8293C54.775 63.2488 54.1798 63.7759 53.887 64.4457C53.7424 64.4705 53.593 64.4579 53.456 64.4094C53.319 64.3608 53.2 64.2783 53.1126 64.1712C52.9414 63.9542 52.8422 63.6976 52.8264 63.4314C52.7208 62.5029 53.1099 61.5925 53.4951 60.7245C53.6743 60.3183 53.8589 59.9036 54.1772 59.5735C54.4955 59.2435 54.9181 59.0259 55.3407 58.8204C56.6889 58.1463 58.101 57.5823 59.5601 57.135C60.1753 56.9549 60.8199 56.9585 61.165 57.4784C61.5649 58.0986 61.4485 58.8143 61.7615 59.4744Z" fill="#2F98FF"/>
<path d="M16.0496 66.7294C16.3345 66.935 16.5846 67.178 16.8775 67.3738C17.1872 67.5682 17.5168 67.7354 17.8618 67.8731L19.1804 68.4462C19.5891 68.6382 20.0167 68.7952 20.4576 68.9152C21.022 69.0519 21.6145 69.0652 22.1815 69.1921C22.897 69.3517 23.551 69.6841 24.2558 69.8764C24.9606 70.0686 25.7858 70.1 26.3742 69.6999C26.742 69.4496 27.0202 69.0361 27.4762 68.9745C27.7704 68.9394 28.0539 69.0676 28.3161 69.1921L31.7478 70.823C32.2105 71.043 32.7 71.2872 32.9421 71.7068C33.1841 72.1263 33.021 72.7634 32.5114 72.8722C32.3338 72.8906 32.1552 72.8999 31.9765 72.9C31.7999 72.9194 31.6074 73.0136 31.5833 73.1744C31.5824 73.2743 31.6115 73.3725 31.6675 73.4586C31.8213 73.7777 31.8668 74.1598 31.6876 74.4692C31.5084 74.7787 31.0684 74.971 30.7167 74.8319C30.7769 75.2998 30.2138 75.6274 29.7123 75.752C28.4471 76.0651 27.1057 75.8729 25.8125 75.6746C25.3043 75.5972 24.7881 75.5174 24.3253 75.3119C24.1033 75.214 23.8974 75.0882 23.6727 74.9976C23.0562 74.7497 22.3554 74.7824 21.6813 74.7933C18.5639 74.8428 15.4732 74.3205 12.4079 73.8007C11.8395 73.704 11.2551 73.6012 10.7696 73.3171C9.83348 72.7658 9.48576 71.6342 9.63956 70.6332C9.79336 69.6322 10.3551 68.7254 10.9074 67.8453L11.6229 66.7052C11.7164 66.5306 11.8473 66.3745 12.0081 66.2458C13.0606 65.5193 15.1482 66.0742 16.0496 66.7294Z" fill="#A1616A"/>
<path opacity="0.04" d="M16.0496 66.7294C16.3345 66.935 16.5846 67.178 16.8775 67.3738C17.1872 67.5682 17.5168 67.7354 17.8618 67.8731L19.1804 68.4462C19.5891 68.6382 20.0167 68.7952 20.4576 68.9152C21.022 69.0519 21.6145 69.0652 22.1815 69.1921C22.897 69.3517 23.551 69.6841 24.2558 69.8764C24.9606 70.0686 25.7858 70.1 26.3742 69.6999C26.742 69.4496 27.0202 69.0361 27.4762 68.9745C27.7704 68.9394 28.0539 69.0676 28.3161 69.1921L31.7478 70.823C32.2105 71.043 32.7 71.2872 32.9421 71.7068C33.1841 72.1263 33.021 72.7634 32.5114 72.8722C32.3338 72.8906 32.1552 72.8999 31.9765 72.9C31.7999 72.9194 31.6074 73.0136 31.5833 73.1744C31.5824 73.2743 31.6115 73.3725 31.6675 73.4586C31.8213 73.7777 31.8668 74.1598 31.6876 74.4692C31.5084 74.7787 31.0684 74.971 30.7167 74.8319C30.7769 75.2998 30.2138 75.6274 29.7123 75.752C28.4471 76.0651 27.1057 75.8729 25.8125 75.6746C25.3043 75.5972 24.7881 75.5174 24.3253 75.3119C24.1033 75.214 23.8974 75.0882 23.6727 74.9976C23.0562 74.7497 22.3554 74.7824 21.6813 74.7933C18.5639 74.8428 15.4732 74.3205 12.4079 73.8007C11.8395 73.704 11.2551 73.6012 10.7696 73.3171C9.83348 72.7658 9.48576 71.6342 9.63956 70.6332C9.79336 69.6322 10.3551 68.7254 10.9074 67.8453L11.6229 66.7052C11.7164 66.5306 11.8473 66.3745 12.0081 66.2458C13.0606 65.5193 15.1482 66.0742 16.0496 66.7294Z" fill="black"/>
<path d="M56.8745 68.8185C56.1778 69.1159 55.378 69.145 54.6505 69.3735C53.923 69.6019 53.3051 70.013 52.6377 70.3479C50.8991 71.2256 48.8931 71.5569 46.9231 71.8724C45.7288 72.0658 44.5158 72.2593 43.3122 72.2133C41.6832 72.1505 40.1185 71.6596 38.5404 71.2897C36.9623 70.9197 35.2785 70.6707 33.7151 71.0866C32.8987 71.3113 32.1524 71.7067 31.5367 72.2409C30.9209 72.775 30.4531 73.4328 30.1711 74.161C29.8434 75.0302 29.798 75.9672 29.8608 76.8836C30.1898 77.1024 30.6499 76.7989 30.8291 76.4665C31.0083 76.134 31.1059 75.7266 31.4536 75.5331C32.0568 75.7181 32.2039 76.4447 32.7014 76.8038C33.0117 77.0286 33.4263 77.0879 33.8208 77.1387L35.8536 77.3998C36.3431 77.4627 36.9115 77.505 37.2659 77.1931C37.4384 77.0419 37.5334 76.8304 37.6912 76.6684C38.0148 76.3444 38.5551 76.2888 39.0366 76.3323C40.5398 76.4677 41.9494 77.349 43.4419 77.1399C43.9555 77.0685 44.4329 76.8703 44.9224 76.7143C47.8232 75.7882 51.0462 76.3516 54.0647 75.8209C55.2162 75.619 56.3249 75.2611 57.4202 74.8839C58.0153 74.6796 58.6172 74.4656 59.1254 74.1199C59.6068 73.7852 59.9865 73.3456 60.2288 72.8421C60.4711 72.3387 60.5682 71.7879 60.5109 71.2413C60.3989 70.4083 59.9392 69.6454 59.2257 69.1087C58.9903 68.9273 58.6813 68.5804 58.3992 68.4667C57.8602 68.2527 57.3319 68.6239 56.8745 68.8185Z" fill="#A1616A"/>
<g opacity="0.1">
<path opacity="0.1" d="M52.9668 53.374C52.7434 53.195 52.6886 52.923 52.496 52.7247C52.0948 52.3052 51.2843 52.362 50.6237 52.4467C49.4722 52.593 48.0827 52.6268 47.3685 51.9026C47.0596 51.5907 46.9231 51.1773 46.546 50.9173C45.666 50.3128 44.1521 50.9318 43.1825 50.4204C42.3359 49.9743 42.3908 48.9395 41.6846 48.3652C40.9785 47.7909 39.7548 47.8659 38.7959 48.1524C38.6336 48.2198 38.4518 48.2384 38.277 48.2056C37.9734 48.1089 37.9948 47.768 38.0697 47.5165C38.4348 46.3015 38.8066 45.0744 39.5167 43.9573C39.7748 43.5499 40.0798 43.157 40.2456 42.7193C40.5358 41.9528 40.3874 41.086 40.7685 40.3606C40.3593 40.6024 39.9661 40.866 39.7133 41.2069C39.1436 41.9746 39.3643 42.9514 39.0446 43.8038C38.8788 44.2414 38.5739 44.6343 38.3158 45.0417C37.6056 46.1588 37.2338 47.3859 36.8687 48.6009C36.7938 48.8524 36.7724 49.1933 37.076 49.2901C37.2508 49.3229 37.4327 49.3042 37.5949 49.2369C38.5538 48.9503 39.7722 48.8681 40.4837 49.4496C41.1951 50.0312 41.135 51.0624 41.9815 51.5049C42.9511 52.0163 44.465 51.3985 45.345 52.0018C45.7222 52.2605 45.8586 52.6752 46.1675 52.9871C46.887 53.7125 48.2712 53.6774 49.4227 53.5311C50.0834 53.4465 50.8938 53.3897 51.295 53.8092C51.4876 54.0075 51.5425 54.2795 51.7658 54.4584C52.167 54.7824 52.9012 54.618 53.2931 54.2855C53.5443 54.049 53.7593 53.7831 53.9324 53.4949C53.5846 53.5904 53.2142 53.5759 52.9668 53.374Z" fill="black"/>
<path opacity="0.1" d="M55.4035 52.0441C55.3173 52.1444 55.2374 52.2489 55.1641 52.3572C55.6776 52.026 56.2219 51.7165 56.6058 51.2945C56.7054 51.1853 56.7949 51.0689 56.8732 50.9464C56.3396 51.2921 55.7833 51.6101 55.4035 52.0441Z" fill="black"/>
</g>
<path d="M82.4226 75.9841L82.8238 110.681L84.6961 110.44L84.2949 75.9841H82.4226Z" fill="#3F3D56"/>
<path d="M93.6565 82.2707L94.0577 116.968L95.93 116.726L95.5288 82.2707H93.6565Z" fill="#3F3D56"/>
<path d="M128.633 99.7984L128.625 99.1322V98.7357L128.554 92.6328L128.443 83.0916L128.424 82.2683H126.552L126.561 83.0614L126.62 88.1717L126.646 90.3841L126.667 92.1758L126.702 95.2732L126.723 97.0999V97.2934L126.751 99.6944L126.775 101.811L126.928 101.659C127.173 101.412 127.413 101.16 127.647 100.905L128.633 99.7984Z" fill="#3F3D56"/>
<path d="M91.5836 87.8924L90.5137 89.3384L91.5836 95.926L100.678 98.1759H115.389L124.216 98.6583L128.42 96.0566L127.693 91.5883L124.483 87.8924H91.5836Z" fill="#2F98FF"/>
<path d="M90.5137 89.3384L89.9787 93.3546C89.9787 93.3546 87.1702 101.229 109.772 100.746C132.374 100.264 128.495 98.6571 128.495 98.6571L128.362 93.9977C128.362 93.9977 129.149 96.2029 117.662 95.9043C106.176 95.6057 95.462 94.6409 95.462 94.6409C95.462 94.6409 91.4498 95.2829 90.5137 89.3384Z" fill="#3F3D56"/>
<path d="M109.344 53.3401C108.055 53.8708 107.078 54.8997 106.424 56.0373C105.771 57.175 105.403 58.4238 105.04 59.6642C104.658 60.9723 104.274 62.2841 104.076 63.6248C103.723 66.0089 103.988 68.5151 105.199 70.6562C106.411 72.7973 108.65 74.5249 111.271 74.9371C112.284 75.0979 113.324 75.0653 114.347 74.9698C116.196 74.7928 118.018 74.4298 119.778 73.8877C121.617 73.3256 123.531 72.46 124.349 70.8653C124.824 69.9405 124.864 68.8862 124.842 67.8683C124.778 65.0938 124.315 62.3387 123.463 59.6727C123.215 58.8989 122.928 58.1192 122.403 57.4675C121.879 56.8159 121.162 56.3383 120.431 55.8959C117.303 53.9917 113.192 51.7588 109.344 53.3401Z" fill="#FBBEBE"/>
<path opacity="0.05" d="M109.344 53.3401C108.055 53.8708 107.078 54.8997 106.424 56.0373C105.771 57.175 105.403 58.4238 105.04 59.6642C104.658 60.9723 104.274 62.2841 104.076 63.6248C103.723 66.0089 103.988 68.5151 105.199 70.6562C106.411 72.7973 108.65 74.5249 111.271 74.9371C112.284 75.0979 113.324 75.0653 114.347 74.9698C116.196 74.7928 118.018 74.4298 119.778 73.8877C121.617 73.3256 123.531 72.46 124.349 70.8653C124.824 69.9405 124.864 68.8862 124.842 67.8683C124.778 65.0938 124.315 62.3387 123.463 59.6727C123.215 58.8989 122.928 58.1192 122.403 57.4675C121.879 56.8159 121.162 56.3383 120.431 55.8959C117.303 53.9917 113.192 51.7588 109.344 53.3401Z" fill="black"/>
<path d="M107.896 68.5574C108.269 69.0211 108.72 69.429 109.233 69.7664C110.506 70.5619 112.14 70.6695 113.686 70.713C114.928 70.7468 116.351 70.6828 117.129 69.8075C117.479 69.4133 117.637 68.9104 117.779 68.4208C118.654 65.4142 119.275 62.352 119.638 59.2604L123.179 59.2713C124.712 65.2037 124.586 71.3707 124.452 77.4627L124.258 86.3462L121.977 86.1273C116.559 85.6087 111.133 85.09 105.686 85.0006C102.495 84.9475 99.3021 85.0428 96.1213 85.2859L101.09 71.9316C101.734 70.1955 102.386 68.4365 102.537 66.6122C102.755 63.9657 101.934 61.1718 103.072 58.7236C103.163 58.5266 103.278 58.3223 103.485 58.2195C103.692 58.1167 103.954 58.1421 104.192 58.1699C104.642 58.2243 106.015 58.1699 106.342 58.4299C106.823 58.8071 106.505 58.8639 106.335 59.472C106.031 60.5601 105.744 61.5671 105.748 62.7012C105.752 64.76 106.458 66.9338 107.896 68.5574Z" fill="#2F98FF"/>
<path d="M128.633 99.7984C129.23 99.0826 129.792 98.3415 130.32 97.5751C130.052 97.0576 129.758 96.5523 129.524 96.024C129.165 95.2139 128.959 94.3556 128.756 93.5033C128.687 93.2131 128.617 92.9229 128.549 92.6328C127.8 89.4762 127.096 86.2748 126.951 83.0747C126.937 82.8087 126.929 82.5427 126.925 82.2768C126.925 82.2381 126.925 82.2006 126.925 82.1559C126.925 81.8645 126.925 81.5731 126.925 81.283C126.941 80.5576 126.992 79.8262 127.084 79.0984C127.102 78.9557 127.122 78.8131 127.143 78.6704C127.143 78.639 127.151 78.6088 127.157 78.5773L136.251 78.2775L137.016 78.2521C137.541 78.2352 138.098 78.2086 138.531 77.939C139.26 77.4868 139.345 76.5596 139.333 75.7628C139.289 73.7491 139.037 71.7436 138.579 69.7724C138.234 68.2902 137.742 66.7754 136.637 65.6365C135.731 64.7008 134.417 64.0201 133.945 62.8559C133.77 62.4231 133.726 61.948 133.498 61.5345C133.271 61.121 132.895 60.8176 132.541 60.4984C131.294 59.3811 130.259 58.0854 129.478 56.6636C128.937 55.677 128.35 54.589 127.642 53.9071C127.607 53.8721 127.573 53.8394 127.536 53.808C126.935 53.27 126.246 53.0342 125.43 53.4006C125.283 53.4671 125.144 53.5456 125.013 53.6351V53.6351C124.722 53.8359 124.456 54.0645 124.22 54.317C123.396 55.1735 122.673 56.1054 122.063 57.0976C121.634 57.7961 121.265 58.5237 120.961 59.2737C120.72 59.8663 120.521 60.472 120.365 61.0872C120.25 61.543 120.159 62.0036 120.087 62.4654C119.82 64.2015 119.82 65.9714 119.857 67.7292C119.897 69.3444 119.976 70.9632 120.138 72.5724C120.178 72.9617 120.223 73.3506 120.272 73.739C120.37 74.5071 120.491 75.2728 120.636 76.0361C120.693 76.3274 120.752 76.6188 120.817 76.909C120.834 76.9863 120.851 77.0637 120.868 77.1399L120.876 77.1725C121.053 77.8469 121.19 78.5293 121.287 79.2169C121.298 79.3031 121.306 79.3889 121.311 79.4744C121.333 79.8696 121.33 80.2656 121.3 80.6604C121.269 81.127 121.221 81.5925 121.197 82.0592C121.197 82.1414 121.197 82.2224 121.188 82.301C121.181 82.5367 121.188 82.7724 121.188 83.0082C121.215 83.5722 121.289 84.1336 121.41 84.6875C121.635 85.7177 122.025 86.713 122.567 87.6422C122.618 87.7292 122.67 87.8151 122.722 87.8997C123.4 88.995 124.256 89.9997 124.883 91.1204C125.424 92.1289 125.828 93.1928 126.087 94.2891C126.176 94.651 126.261 95.0137 126.341 95.3772C126.465 95.9575 126.576 96.5426 126.69 97.1277C126.701 97.1858 126.713 97.2486 126.725 97.3018C126.876 98.078 127.035 98.8505 127.24 99.6085C127.359 100.05 127.492 100.485 127.649 100.913L128.633 99.7984Z" fill="#464353"/>
<path d="M126.846 90.2693C126.846 90.3781 126.838 90.4869 126.833 90.5969C126.809 91.1274 126.755 91.6564 126.671 92.1818C126.56 92.8991 126.366 93.6038 126.092 94.2842C125.91 94.7317 125.679 95.1614 125.402 95.567C125.156 95.927 124.868 96.2622 124.543 96.5668C123.741 97.3212 122.585 97.5618 121.467 97.8797C120.953 98.0143 120.456 98.1979 119.984 98.4274C119.9 98.4697 119.817 98.5156 119.737 98.564L118.338 99.4018C117.902 99.6617 117.457 99.9313 117.157 100.317C117.108 100.383 117.063 100.451 117.023 100.521C116.834 100.876 116.696 101.252 116.611 101.638C115.884 104.378 115.155 107.12 114.656 109.9C114.623 110.084 114.591 110.269 114.556 110.454L114.544 110.512C114.538 110.498 114.531 110.485 114.522 110.472C110.944 112.428 107.232 114.194 103.409 115.607L102.578 109.32C102.492 108.809 102.463 108.291 102.493 107.775C102.572 106.961 102.938 106.19 103.037 105.379C103.131 104.585 102.965 103.783 102.559 103.073C102.402 102.798 102.204 102.527 102.168 102.219C102.132 101.91 102.328 101.629 102.67 101.597C102.938 101.329 102.959 100.963 102.88 100.6C102.839 100.411 102.776 100.225 102.693 100.047C102.466 99.5421 102.178 98.992 102.374 98.4757C102.425 98.3822 102.448 98.2778 102.44 98.1735C102.442 98.1671 102.442 98.1605 102.44 98.1542C102.395 98.0188 102.217 97.9595 102.125 97.8447C101.951 97.6307 102.125 97.3393 102.232 97.0927C102.336 96.8277 102.396 96.5503 102.411 96.2694C102.426 96.1134 102.436 95.9562 102.455 95.8015C102.481 95.5921 102.523 95.3845 102.58 95.1801C102.904 94.022 103.686 93.0109 104.777 92.3366C105.297 92.0198 105.876 91.7889 106.407 91.4903C106.951 91.1589 107.47 90.7954 107.961 90.4022C109.139 89.5157 110.364 88.6799 111.635 87.8948C113.002 87.0508 114.418 86.2736 115.877 85.5664C116.189 85.414 116.501 85.2657 116.813 85.1215C117.153 84.9603 117.495 84.8075 117.839 84.6633C118.941 84.1881 120.191 84.3659 121.41 84.6826C121.921 84.8144 122.425 84.9716 122.912 85.1142C123.387 85.2539 123.844 85.4396 124.276 85.6679C125.355 86.241 126.247 87.0873 126.618 88.156C126.618 88.1628 126.618 88.1697 126.618 88.1765C126.853 88.8463 126.868 89.5644 126.846 90.2693Z" fill="#F86D70"/>
<path opacity="0.1" d="M126.846 90.2693C126.846 90.3781 126.838 90.4869 126.833 90.5969C126.809 91.1274 126.755 91.6564 126.671 92.1818C126.56 92.8991 126.366 93.6038 126.092 94.2842C125.91 94.7317 125.679 95.1614 125.402 95.567C125.156 95.927 124.868 96.2622 124.543 96.5668C123.741 97.3212 122.585 97.5618 121.467 97.8797C120.953 98.0143 120.456 98.1979 119.984 98.4274C119.9 98.4697 119.817 98.5156 119.737 98.564L118.338 99.4018C117.902 99.6617 117.457 99.9313 117.157 100.317C117.108 100.383 117.063 100.451 117.023 100.521C116.834 100.876 116.696 101.252 116.611 101.638C115.884 104.378 115.155 107.12 114.656 109.9C114.623 110.084 114.591 110.269 114.556 110.454L114.544 110.512C114.538 110.498 114.531 110.485 114.522 110.472C110.944 112.428 107.232 114.194 103.409 115.607L102.578 109.32C102.492 108.809 102.463 108.291 102.493 107.775C102.572 106.961 102.938 106.19 103.037 105.379C103.131 104.585 102.965 103.783 102.559 103.073C102.402 102.798 102.204 102.527 102.168 102.219C102.132 101.91 102.328 101.629 102.67 101.597C102.938 101.329 102.959 100.963 102.88 100.6C102.839 100.411 102.776 100.225 102.693 100.047C102.466 99.5421 102.178 98.992 102.374 98.4757C102.425 98.3822 102.448 98.2778 102.44 98.1735C102.442 98.1671 102.442 98.1605 102.44 98.1542C102.395 98.0188 102.217 97.9595 102.125 97.8447C101.951 97.6307 102.125 97.3393 102.232 97.0927C102.336 96.8277 102.396 96.5503 102.411 96.2694C102.426 96.1134 102.436 95.9562 102.455 95.8015C102.481 95.5921 102.523 95.3845 102.58 95.1801C102.904 94.022 103.686 93.0109 104.777 92.3366C105.297 92.0198 105.876 91.7889 106.407 91.4903C106.951 91.1589 107.47 90.7954 107.961 90.4022C109.139 89.5157 110.364 88.6799 111.635 87.8948C113.002 87.0508 114.418 86.2736 115.877 85.5664C116.189 85.414 116.501 85.2657 116.813 85.1215C117.153 84.9603 117.495 84.8075 117.839 84.6633C118.941 84.1881 120.191 84.3659 121.41 84.6826C121.921 84.8144 122.425 84.9716 122.912 85.1142C123.387 85.2539 123.844 85.4396 124.276 85.6679C125.355 86.241 126.247 87.0873 126.618 88.156C126.618 88.1628 126.618 88.1697 126.618 88.1765C126.853 88.8463 126.868 89.5644 126.846 90.2693Z" fill="black"/>
<path d="M114.148 70.2439C114.134 70.2158 114.115 70.1905 114.09 70.1695C114.065 70.1484 114.036 70.1321 114.004 70.1215C113.973 70.1109 113.939 70.1062 113.905 70.1077C113.871 70.1092 113.838 70.1168 113.808 70.1302C113.777 70.1436 113.75 70.1624 113.728 70.1855C113.705 70.2086 113.689 70.2355 113.678 70.2647C113.668 70.2938 113.664 70.3245 113.667 70.355C113.67 70.3856 113.68 70.4152 113.696 70.4422L113.562 70.5014L117.55 77.8906L118.271 77.5727L114.283 70.1786L114.148 70.2439Z" fill="#3F3D56"/>
<path d="M119.134 62.5041C123.861 62.5041 127.693 59.0399 127.693 54.7667C127.693 50.4934 123.861 47.0293 119.134 47.0293C114.407 47.0293 110.574 50.4934 110.574 54.7667C110.574 59.0399 114.407 62.5041 119.134 62.5041Z" fill="#FBBEBE"/>
<path d="M130.43 49.9767C130.39 49.3617 130.289 48.7511 130.128 48.1524C129.625 46.1975 128.707 44.2728 127.124 42.8692C127.027 42.526 126.91 42.1875 126.775 41.8549C126.773 41.8467 126.77 41.8386 126.766 41.8307C126.294 40.659 125.612 39.5655 124.747 38.5943C124.245 38.0309 123.595 37.4748 122.795 37.453C122.571 37.4458 122.333 37.4808 122.127 37.3878C121.975 37.2992 121.848 37.1811 121.754 37.042C121.358 36.5896 120.832 36.2436 120.235 36.0414C119.637 35.8392 118.989 35.7884 118.362 35.8947L118.279 35.9104C118.232 35.9189 118.185 35.9285 118.145 35.9394C118.105 35.9503 118.033 35.9684 117.977 35.9841C118.038 36.076 118.099 36.1691 118.157 36.2634C118.316 36.5189 118.463 36.78 118.599 37.0468C118.711 37.2693 118.815 37.4954 118.91 37.7251C117.541 37.8665 116.425 38.7454 115.406 39.582L113.007 41.5502C113.003 41.5536 112.999 41.5572 112.995 41.5611L112.926 41.6216C112.908 41.6373 112.891 41.653 112.875 41.6699C112.868 41.675 112.862 41.6806 112.857 41.6868C112.837 41.7062 112.819 41.7267 112.8 41.7473C112.766 41.7854 112.736 41.8258 112.71 41.8682C112.697 41.8863 112.685 41.9053 112.675 41.925C112.672 41.9308 112.669 41.9369 112.666 41.9432C112.657 41.9596 112.65 41.9766 112.643 41.9939C112.643 41.9963 112.643 41.9988 112.643 42.0012C112.64 42.0111 112.636 42.0212 112.634 42.0314C112.607 42.1165 112.615 42.2077 112.657 42.2877L114.239 42.3034H114.425C114.433 42.4944 114.439 42.6867 114.447 42.8777C114.196 43.0475 113.955 43.2291 113.725 43.4217C113.474 43.6317 113.239 43.8562 113.02 44.0939C111.593 45.6523 110.849 47.6652 110.774 49.6914C110.774 49.7543 110.774 49.8123 110.774 49.8776C110.774 50.0626 110.774 50.2476 110.774 50.4313C110.774 50.5522 110.786 50.6731 110.796 50.794C110.797 50.9515 110.843 51.1061 110.93 51.2425C110.942 51.2578 110.954 51.2723 110.968 51.2861C111.048 51.3648 111.144 51.4288 111.251 51.4747L111.366 51.5254C111.424 51.5508 111.478 51.575 111.532 51.6028C112.036 51.8603 112.334 52.3572 112.793 52.6764C112.82 52.6945 112.847 52.7126 112.873 52.7284L112.934 52.7646L112.971 52.7864L113.022 52.813C113.055 52.8312 113.09 52.8477 113.125 52.8626V52.8626L113.189 52.8916H113.2C113.253 52.9133 113.307 52.9339 113.362 52.952L113.438 52.9762L113.46 52.9835C113.482 52.9895 113.505 52.9968 113.527 53.0016C113.573 53.0137 113.617 53.0246 113.661 53.0342L113.795 53.0608C113.847 53.0693 113.9 53.0778 113.954 53.0838L114.033 53.0935L114.113 53.1007C114.241 53.1112 114.369 53.1173 114.498 53.1189C114.904 53.1166 115.309 53.0912 115.711 53.0427L119.124 52.68C119.899 52.599 120.689 52.518 121.453 52.6607C122.1 52.7816 122.696 53.0596 123.325 53.2567C123.467 53.3014 123.609 53.3425 123.752 53.3776C123.804 53.3909 123.857 53.4054 123.911 53.4175L123.984 53.4344L124.156 53.4719C124.217 53.4852 124.279 53.4985 124.34 53.5094C124.427 53.5263 124.513 53.5408 124.6 53.5553C124.658 53.5662 124.719 53.5746 124.779 53.5843H124.791L124.962 53.6085H125.003L125.13 53.6242C125.192 53.6327 125.253 53.6399 125.316 53.646C125.453 53.6613 125.589 53.6746 125.726 53.6859C125.946 53.7052 126.168 53.7197 126.394 53.7318L126.616 53.7439L126.838 53.7536L127.507 53.7802H127.536H127.63C127.908 53.7977 128.187 53.7847 128.462 53.7415C128.51 53.733 128.557 53.7233 128.604 53.7113C128.65 53.6992 128.689 53.6871 128.737 53.6726C129.239 53.4985 129.605 53.0983 129.859 52.6703C129.913 52.5797 129.962 52.489 130.008 52.3959C130.053 52.3028 130.095 52.2085 130.132 52.1142C130.179 51.9933 130.219 51.8785 130.254 51.7576C130.265 51.7249 130.274 51.6923 130.282 51.6584C130.29 51.6246 130.309 51.5581 130.319 51.5073C130.353 51.3683 130.378 51.228 130.397 51.0866C130.397 51.0419 130.409 50.9959 130.414 50.9512C130.426 50.8303 130.436 50.7178 130.441 50.5994C130.441 50.5099 130.441 50.4192 130.441 50.3286C130.44 50.2306 130.43 50.1013 130.43 49.9767ZM127.001 42.7592C126.893 42.6673 126.782 42.5791 126.67 42.4957C126.795 42.567 126.906 42.6559 127 42.7592H127.001Z" fill="#464353"/>
<path d="M102.707 54.3411C101.7 54.2287 100.701 53.8297 99.7069 54.0256C99.0851 54.1465 98.5501 54.4959 98.0526 54.8549C96.2012 56.1964 94.6269 57.8233 93.4025 59.6606C93.1949 59.9353 93.0491 60.2442 92.9732 60.5697C92.909 60.9469 93.0227 61.3302 93.1578 61.6917C94.0726 64.135 96.0291 66.1757 96.9198 68.6263C97.856 71.2038 97.531 74.0207 96.8409 76.6611C95.9855 79.9207 94.5953 83.0463 92.7165 85.9339C92.4614 86.3633 92.1418 86.7587 91.7669 87.109C91.2801 87.5321 90.6261 87.8344 90.3373 88.3881C90.2035 88.6299 90.1647 88.9055 90.0698 89.1643C89.8023 89.8896 89.155 90.5111 89.0922 91.2763C89.0453 91.8603 89.3516 92.4128 89.5375 92.9689C89.851 93.9243 89.8177 94.9454 89.4425 95.8825C88.7645 97.563 86.9911 99.0911 87.506 100.819C88.6548 100.52 89.928 100.132 90.4697 99.1685C90.6609 98.8275 90.7559 98.4213 91.0782 98.1723C91.7214 97.6778 92.8168 98.1251 93.5002 97.6706C94.0164 97.3248 94.0351 96.6163 93.8051 96.0723C93.5751 95.5283 93.1792 95.0495 93.0027 94.4898C92.6951 93.4803 93.1872 92.4128 93.0963 91.3694C93.0535 90.8858 92.889 90.4228 92.8769 89.9416C92.8542 89.0071 93.4266 88.1282 94.1876 87.4935C94.9485 86.8588 95.8887 86.438 96.8142 86.0234L100.313 84.4517C101.582 83.8835 102.973 83.1907 103.389 81.9673C103.547 81.5091 103.548 81.0206 103.556 80.5419C103.675 73.2264 105.702 66.0585 107.718 58.9727C108.031 57.8749 108.349 56.7724 108.815 55.7181C109.28 54.6639 110.191 53.8176 110.655 52.8384C107.963 52.5531 105.503 54.6579 102.707 54.3411Z" fill="#464353"/>
<path d="M121.993 100.235C122.302 101.927 122.49 103.656 122.638 105.377C120.23 107.18 117.638 108.75 115.005 110.205C114.855 110.289 114.704 110.371 114.553 110.447L114.541 110.505C114.535 110.491 114.528 110.478 114.52 110.465C114.315 110.066 113.958 109.747 113.514 109.568C112.527 107.694 111.541 105.82 110.556 103.946C110.021 102.934 109.486 101.913 109.218 100.821C109.218 100.798 109.206 100.774 109.202 100.751C108.999 99.9047 108.952 99.0258 108.817 98.1687C108.749 97.6777 108.626 97.1942 108.452 96.7252C108.292 96.3081 108.071 95.9031 107.876 95.4956C107.635 94.9927 107.433 94.4837 107.424 93.9409C107.424 93.768 107.436 93.5782 107.342 93.4331C107.242 93.3082 107.118 93.2002 106.977 93.114C106.8 92.9725 106.666 92.7927 106.588 92.5916C106.509 92.3905 106.488 92.1746 106.528 91.9642C105.725 92.0017 105.273 92.7815 104.951 93.4428C104.658 94.0896 104.273 94.6992 103.806 95.2563C103.466 95.6542 103.033 95.9798 102.538 96.2101C102.494 96.2295 102.45 96.2488 102.404 96.2658C101.288 96.7107 99.9837 96.5535 98.7734 96.3528C97.7155 96.1775 96.6215 95.9599 95.771 95.3651L95.68 95.2998C95.4282 95.1106 95.2036 94.8937 95.0113 94.6542C94.2985 93.7741 93.9829 92.6147 93.8077 91.5109C93.7916 91.4069 93.7756 91.3029 93.7609 91.199C93.6393 90.419 93.6057 89.63 93.6606 88.8439C93.6766 88.6505 93.6993 88.457 93.7274 88.2648C93.7462 88.1439 93.7662 88.0133 93.789 87.8876C93.7883 87.884 93.7883 87.8803 93.789 87.8767C93.8237 87.6772 93.8612 87.4765 93.8986 87.2722C94.0324 86.5867 94.1661 85.8831 94.5673 85.2932C94.8313 84.9261 95.1645 84.6036 95.5516 84.3405C95.6961 84.2377 95.8445 84.1398 95.9943 84.0455C96.2377 83.8932 96.4878 83.7481 96.7419 83.6115C97.3812 83.2656 98.0524 82.9703 98.748 82.7289C98.9138 82.6709 99.0823 82.6165 99.2508 82.5645C99.9058 82.3539 100.611 82.3034 101.294 82.4182C101.9 82.4975 102.512 82.5298 103.124 82.5149C104.693 82.4871 106.268 82.2163 107.834 82.041C110.009 81.7992 112.345 81.7702 114.242 82.7664C114.332 82.8136 114.421 82.8631 114.509 82.9151C115.445 83.4688 116.199 84.245 116.808 85.1118C116.942 85.2944 117.058 85.4818 117.173 85.6716C117.438 86.1073 117.678 86.5552 117.891 87.0135C118.017 87.2386 118.086 87.4866 118.09 87.7389C118.087 87.7869 118.08 87.8346 118.069 87.8816C118.033 88.0532 117.961 88.2201 117.935 88.3942C117.851 89.053 118.47 89.6031 118.702 90.2306C118.851 90.6392 118.835 91.0769 118.92 91.5072C119.041 92.1117 119.369 92.6558 119.663 93.1998C120.128 94.0755 120.526 94.9792 120.854 95.9043C121.086 96.5486 121.285 97.2027 121.461 97.8628C121.518 98.0748 121.572 98.2871 121.623 98.4999C121.768 99.0851 121.887 99.6581 121.993 100.235Z" fill="#F86D70"/>
<path d="M136.252 82.3312V83.1774L136.08 83.175L135.887 83.1726L133.736 83.1484L128.438 83.0856L126.951 83.0686L126.565 83.0638L124.333 83.0384L121.188 83.0009L114.514 82.9224L102.934 82.7869L98.7546 82.7386L97.0775 82.7192L95.5342 82.7011L94.5726 82.689L93.6618 82.6781L86.9094 82.5996L85.0371 82.5778L84.6292 82.573L84.3644 81.9552L82.4399 77.4687L82.0881 76.649L82.3556 75.6818L83.5593 76.4072L84.3002 76.4906L96.4984 77.8616L98.788 78.1191L103.643 78.6656L108.398 79.1999L110.263 79.4091L121.295 80.6495L124.377 80.9965L126.929 81.283L136.002 82.3034L136.252 82.3312Z" fill="#3F3D56"/>
<path d="M82.3557 75.6818L84.763 81.364L136.252 82.3312V76.1654L82.3557 75.6818Z" fill="#504F60"/>
<path d="M85.0305 81.9685L85.4317 116.666L87.3041 116.424L86.9028 81.9685H85.0305Z" fill="#3F3D56"/>
<path d="M136.08 83.1738H135.887C135.575 85.3371 135.059 87.4722 134.345 89.556L133.737 83.1484L133.711 82.8752L135.961 82.6407L136.036 82.6334L136.08 83.1738Z" fill="#3F3D56"/>
<path d="M128.763 79.0669L109.17 79.4296L103.085 77.6162L119.401 76.7699L128.763 79.0669Z" fill="white"/>
<path d="M104.186 72.0163C103.978 72.0883 103.794 72.2068 103.651 72.3608C103.539 72.5276 103.471 72.7154 103.452 72.9097L103.123 74.6832C103.072 74.8455 103.081 75.018 103.148 75.1753C103.234 75.324 103.482 75.4014 103.607 75.278C103.591 75.625 103.624 75.995 103.847 76.2779C104.071 76.5608 104.539 76.7095 104.855 76.5124C104.904 76.5853 104.97 76.6476 105.049 76.695C105.128 76.7424 105.217 76.7737 105.311 76.7868C105.404 76.7999 105.5 76.7945 105.591 76.7709C105.682 76.7473 105.766 76.7062 105.838 76.6502C105.648 76.7083 105.634 76.9706 105.769 77.1036C105.921 77.2243 106.113 77.2939 106.315 77.3007C108.665 77.6001 111.061 77.3276 113.256 76.5112C113.463 76.4338 112.918 74.1235 112.863 73.8865C112.729 73.3292 112.662 72.6485 112.142 72.2738C110.898 71.3767 108.689 71.2002 107.174 71.3066C106.138 71.3774 105.126 71.6179 104.186 72.0163V72.0163Z" fill="#FBBEBE"/>
<path opacity="0.1" d="M124.121 72.2847C119.283 72.3681 114.346 72.4394 109.729 71.1301C110.17 72.6749 110.14 74.2989 109.641 75.8293L132.259 77.5219C133.218 77.5932 137.194 77.9994 138.128 77.7951C139.063 77.5908 130.285 74.977 130.639 74.1682C131.614 71.9401 134.88 70.6344 132.527 70.551C129.558 70.4446 127.112 72.2339 124.121 72.2847Z" fill="black"/>
<path d="M124.254 72.5264C119.417 72.6099 114.48 72.6812 109.863 71.3719C110.304 72.9167 110.273 74.5407 109.775 76.0711L132.392 77.7637C133.351 77.835 137.327 78.2473 138.262 78.0369C139.197 77.8266 138.978 76.7905 139.332 75.9817C140.307 73.7535 135.014 70.8762 132.661 70.7928C129.692 70.6864 127.246 72.4757 124.254 72.5264Z" fill="#464353"/>
<path d="M116.563 72.8625C116.771 72.9344 116.955 73.053 117.098 73.2071C117.21 73.374 117.278 73.5617 117.299 73.756L117.628 75.5295C117.677 75.6918 117.668 75.8642 117.602 76.0216C117.517 76.1703 117.267 76.2476 117.144 76.1243C117.158 76.4713 117.126 76.8413 116.903 77.1242C116.679 77.4071 116.211 77.5558 115.894 77.3587C115.845 77.4316 115.779 77.4939 115.7 77.5413C115.621 77.5887 115.532 77.62 115.438 77.6331C115.345 77.6462 115.249 77.6408 115.158 77.6172C115.067 77.5936 114.983 77.5524 114.911 77.4965C115.101 77.5545 115.116 77.8169 114.981 77.9499C114.829 78.0706 114.636 78.1402 114.434 78.1469C112.084 78.4464 109.689 78.1739 107.494 77.3575C107.287 77.2801 107.831 74.9698 107.888 74.7328C108.021 74.1755 108.088 73.4948 108.608 73.12C109.851 72.223 112.062 72.0465 113.577 72.1529C114.612 72.2238 115.624 72.4643 116.563 72.8625V72.8625Z" fill="#FBBEBE"/>
<path d="M84.5998 69.012C84.1558 69.5294 83.7105 70.0577 83.4243 70.661C82.8773 71.8119 82.9575 73.1152 83.0485 74.3653C83.0739 74.728 83.106 75.0979 83.316 75.3989C83.4975 75.6264 83.7369 75.8109 84.0141 75.9369C85.1722 76.5317 86.5283 76.7095 87.8524 76.8425C89.8798 77.0456 91.9144 77.1693 93.9562 77.2136C99.0141 77.3248 104.15 76.9513 109.077 77.9873C108.467 77.1495 108.468 76.0409 108.809 75.0858C109.15 74.1307 109.807 73.299 110.45 72.4805C108.195 71.8349 105.777 72.8432 103.415 72.7428C100.991 72.6401 98.7467 71.3731 96.3193 71.3743C95.7977 71.3743 95.2668 71.4335 94.7599 71.3199C94.2531 71.2062 93.7622 70.8605 93.7154 70.3902C94.3627 70.522 94.9766 70.0215 95.2441 69.4726C95.5115 68.9237 95.5597 68.3035 95.8191 67.751C96.4651 66.3764 98.2104 65.7393 99.2963 64.6077C99.4675 64.4288 99.6293 64.2172 99.624 63.9802C99.5985 63.7795 99.5051 63.5908 99.3565 63.4398C98.4538 62.3518 97.0937 61.7473 95.9636 60.901C95.5704 60.606 94.7773 59.4938 94.336 59.391C93.5175 59.2012 92.8234 60.2699 92.2911 60.791C89.6039 63.4306 87.0401 66.1709 84.5998 69.012Z" fill="#464353"/>
<path opacity="0.07" d="M111.492 68.7049C111.831 68.9321 112.132 69.2021 112.387 69.5064C112.513 69.6593 112.604 69.8343 112.652 70.0203C112.7 70.2064 112.705 70.3994 112.666 70.5872C112.625 70.2369 112.711 69.8838 112.912 69.5819C113.113 69.28 113.418 69.0459 113.78 68.9152L111.492 68.7049Z" fill="black"/>
<g opacity="0.1">
<path opacity="0.1" d="M118.909 37.0009C118.752 36.623 118.57 36.2537 118.366 35.8947C118.234 35.9176 118.103 35.9479 117.975 35.9854C118.205 36.3299 118.412 36.6863 118.595 37.0529C118.698 37.0287 118.802 37.0118 118.909 37.0009Z" fill="black"/>
<path opacity="0.1" d="M126.668 41.7679C126.705 41.7945 126.739 41.8247 126.774 41.8525C126.772 41.8446 126.768 41.837 126.765 41.8295C126.734 41.8094 126.702 41.7888 126.668 41.7679Z" fill="black"/>
<path opacity="0.1" d="M114.236 42.2998C114.306 42.2502 114.37 42.1982 114.445 42.1499L114.423 41.5756L112.995 41.5623C112.764 41.7546 112.517 42.0302 112.654 42.2877L114.236 42.2998Z" fill="black"/>
<path opacity="0.1" d="M129.851 51.9667C129.597 52.3947 129.231 52.7961 128.729 52.9689C128.343 53.1019 127.917 53.0898 127.504 53.0729C126.095 53.0209 124.661 52.9641 123.329 52.5422C122.706 52.3439 122.109 52.0671 121.457 51.9449C120.693 51.8023 119.903 51.8833 119.128 51.9655L115.715 52.3282C114.708 52.4346 113.586 52.5144 112.782 51.9558C112.322 51.6367 112.025 51.1398 111.521 50.8835C111.309 50.7747 111.056 50.7045 110.918 50.5208C110.831 50.3843 110.785 50.2297 110.784 50.0723C110.774 49.9453 110.767 49.8184 110.762 49.6914C110.747 50.0603 110.755 50.4295 110.784 50.7976C110.785 50.9551 110.831 51.1097 110.918 51.2462C111.052 51.4287 111.309 51.4988 111.521 51.6089C112.025 51.8652 112.324 52.362 112.782 52.6812C113.585 53.2398 114.708 53.1648 115.715 53.0536L119.128 52.6909C119.903 52.6087 120.693 52.5277 121.457 52.6703C122.104 52.7912 122.7 53.0693 123.329 53.2676C124.666 53.6895 126.095 53.7512 127.504 53.7983C127.917 53.814 128.343 53.8273 128.729 53.6943C129.231 53.5214 129.597 53.1201 129.851 52.6921C130.343 51.8639 130.481 50.9246 130.429 49.978C130.4 50.6712 130.203 51.3502 129.851 51.9667V51.9667Z" fill="black"/>
</g>
<path opacity="0.1" d="M118.87 37.7783L120.742 39.3499C120.742 39.3499 119.138 38.7454 118.87 37.7783Z" fill="black"/>
</g>
<defs>
<clipPath id="clip0_830_619">
<rect width="131.45" height="97.0838" fill="white" transform="translate(8 22)"/>
</clipPath>
</defs>
</svg>
