<svg width="32" height="32" viewBox="0 0 32 32" fill="none" xmlns="http://www.w3.org/2000/svg">
<path d="M20.72 15.0532L13.1733 7.51989C13.0494 7.39491 12.9019 7.29572 12.7394 7.22803C12.577 7.16034 12.4027 7.12549 12.2267 7.12549C12.0506 7.12549 11.8764 7.16034 11.7139 7.22803C11.5514 7.29572 11.4039 7.39491 11.28 7.51989C11.0317 7.7697 10.8923 8.10764 10.8923 8.45989C10.8923 8.81213 11.0317 9.15007 11.28 9.39989L17.88 16.0666L11.28 22.6666C11.0317 22.9164 10.8923 23.2543 10.8923 23.6066C10.8923 23.9588 11.0317 24.2967 11.28 24.5466C11.4035 24.6725 11.5507 24.7728 11.7132 24.8414C11.8757 24.9101 12.0503 24.9458 12.2267 24.9466C12.4031 24.9458 12.5776 24.9101 12.7401 24.8414C12.9026 24.7728 13.0498 24.6725 13.1733 24.5466L20.72 17.0132C20.8553 16.8884 20.9633 16.7368 21.0372 16.5682C21.1111 16.3995 21.1492 16.2174 21.1492 16.0332C21.1492 15.8491 21.1111 15.6669 21.0372 15.4983C20.9633 15.3296 20.8553 15.1781 20.72 15.0532Z" fill="white"/>
</svg>
