<svg width="70" height="70" viewBox="0 0 70 70" fill="none" xmlns="http://www.w3.org/2000/svg">
<path d="M45.8208 37.0709C48.6803 34.8212 50.7675 31.7361 51.7919 28.2449C52.8164 24.7537 52.7273 21.03 51.5369 17.5919C50.3465 14.1537 48.1141 11.1721 45.1502 9.06174C42.1863 6.95143 38.6384 5.81738 35 5.81738C31.3616 5.81738 27.8137 6.95143 24.8498 9.06174C21.8859 11.1721 19.6535 14.1537 18.4631 17.5919C17.2727 21.03 17.1836 24.7537 18.208 28.2449C19.2325 31.7361 21.3197 34.8212 24.1792 37.0709C19.2794 39.034 15.0042 42.2898 11.8093 46.4915C8.61436 50.6932 6.61955 55.6831 6.03749 60.9292C5.99536 61.3123 6.02908 61.6998 6.13673 62.0698C6.24438 62.4398 6.42385 62.785 6.6649 63.0856C7.15171 63.6928 7.85978 64.0817 8.63332 64.1667C9.40687 64.2518 10.1825 64.0262 10.7897 63.5393C11.3968 63.0525 11.7857 62.3445 11.8708 61.5709C12.5113 55.8694 15.2299 50.6037 19.5073 46.7799C23.7847 42.9561 29.3209 40.8422 35.0583 40.8422C40.7957 40.8422 46.332 42.9561 50.6093 46.7799C54.8867 50.6037 57.6054 55.8694 58.2458 61.5709C58.3251 62.2876 58.6671 62.9495 59.2057 63.4289C59.7443 63.9082 60.4414 64.1711 61.1625 64.1667H61.4833C62.2479 64.0788 62.9467 63.6922 63.4275 63.0912C63.9082 62.4903 64.132 61.7236 64.05 60.9584C63.4652 55.6973 61.4596 50.6946 58.2483 46.4865C55.037 42.2784 50.741 39.0236 45.8208 37.0709ZM35 35.0001C32.6925 35.0001 30.4369 34.3158 28.5183 33.0339C26.5998 31.7519 25.1044 29.9299 24.2214 27.7981C23.3384 25.6663 23.1073 23.3205 23.5575 21.0574C24.0077 18.7942 25.1188 16.7154 26.7504 15.0838C28.382 13.4522 30.4608 12.3411 32.7239 11.8909C34.987 11.4408 37.3328 11.6718 39.4646 12.5548C41.5964 13.4378 43.4185 14.9332 44.7005 16.8518C45.9824 18.7703 46.6667 21.026 46.6667 23.3334C46.6667 26.4276 45.4375 29.3951 43.2496 31.583C41.0616 33.7709 38.0942 35.0001 35 35.0001Z" fill="#2F98FF"/>
</svg>
