<svg width="60" height="60" viewBox="0 0 60 60" fill="none" xmlns="http://www.w3.org/2000/svg">
<path d="M42.5 27.5005H23.525L31.775 19.2755C32.2457 18.8047 32.5102 18.1662 32.5102 17.5005C32.5102 16.8347 32.2457 16.1962 31.775 15.7255C31.3042 15.2547 30.6657 14.9902 30 14.9902C29.3342 14.9902 28.6957 15.2547 28.225 15.7255L15.725 28.2255C15.4974 28.4632 15.319 28.7436 15.2 29.0505C14.9499 29.6591 14.9499 30.3418 15.2 30.9505C15.319 31.2573 15.4974 31.5377 15.725 31.7755L28.225 44.2755C28.4574 44.5098 28.7339 44.6958 29.0385 44.8227C29.3432 44.9496 29.67 45.015 30 45.015C30.33 45.015 30.6568 44.9496 30.9614 44.8227C31.2661 44.6958 31.5426 44.5098 31.775 44.2755C32.0093 44.0431 32.1953 43.7666 32.3222 43.4619C32.4491 43.1573 32.5145 42.8305 32.5145 42.5005C32.5145 42.1704 32.4491 41.8437 32.3222 41.539C32.1953 41.2344 32.0093 40.9579 31.775 40.7255L23.525 32.5005H42.5C43.163 32.5005 43.7989 32.2371 44.2678 31.7682C44.7366 31.2994 45 30.6635 45 30.0005C45 29.3374 44.7366 28.7015 44.2678 28.2327C43.7989 27.7639 43.163 27.5005 42.5 27.5005Z" fill="currentColor"/>
</svg>
