<svg width="34" height="29" viewBox="0 0 34 29" fill="none" xmlns="http://www.w3.org/2000/svg">
<path d="M28.3333 5.00004H26.2L25.6667 3.33337C25.3209 2.35542 24.6796 1.50921 23.8315 0.911972C22.9834 0.314734 21.9706 -0.0039615 20.9333 3.71727e-05H12.4C11.3526 0.00199669 10.3322 0.332842 9.48294 0.945879C8.63366 1.55892 7.99835 2.42319 7.66667 3.4167L7.13333 5.08337H5C3.67392 5.08337 2.40215 5.61015 1.46447 6.54784C0.526784 7.48552 0 8.75729 0 10.0834V23.4167C0 24.7428 0.526784 26.0146 1.46447 26.9522C2.40215 27.8899 3.67392 28.4167 5 28.4167H28.3333C29.6594 28.4167 30.9312 27.8899 31.8689 26.9522C32.8065 26.0146 33.3333 24.7428 33.3333 23.4167V10.0834C33.3444 9.41978 33.2232 8.76063 32.9769 8.14435C32.7306 7.52807 32.3641 6.967 31.8987 6.49384C31.4333 6.02069 30.8783 5.64492 30.2662 5.38845C29.6541 5.13198 28.997 4.99995 28.3333 5.00004ZM30 23.3334C30 23.7754 29.8244 24.1993 29.5118 24.5119C29.1993 24.8244 28.7754 25 28.3333 25H5C4.55797 25 4.13405 24.8244 3.82149 24.5119C3.50893 24.1993 3.33333 23.7754 3.33333 23.3334V10C3.33333 9.55801 3.50893 9.13409 3.82149 8.82153C4.13405 8.50897 4.55797 8.33337 5 8.33337H8.33333C8.69678 8.35234 9.05644 8.25183 9.35739 8.04718C9.65834 7.84254 9.88403 7.54501 10 7.20004L10.9 4.4667C11.0118 4.13567 11.2248 3.84815 11.509 3.64477C11.7931 3.4414 12.1339 3.33247 12.4833 3.33337H21.0167C21.3661 3.33247 21.7069 3.4414 21.991 3.64477C22.2752 3.84815 22.4882 4.13567 22.6 4.4667L23.5 7.20004C23.607 7.51795 23.8073 7.79619 24.0749 7.99839C24.3426 8.20059 24.665 8.31734 25 8.33337H28.3333C28.7754 8.33337 29.1993 8.50897 29.5118 8.82153C29.8244 9.13409 30 9.55801 30 10V23.3334ZM16.6667 8.33337C15.3481 8.33337 14.0592 8.72437 12.9629 9.45691C11.8665 10.1895 11.0121 11.2306 10.5075 12.4488C10.0029 13.667 9.87086 15.0074 10.1281 16.3006C10.3853 17.5938 11.0203 18.7817 11.9526 19.7141C12.885 20.6464 14.0729 21.2814 15.3661 21.5386C16.6593 21.7958 17.9997 21.6638 19.2179 21.1592C20.4361 20.6547 21.4773 19.8002 22.2098 18.7038C22.9423 17.6075 23.3333 16.3186 23.3333 15C23.3333 13.2319 22.631 11.5362 21.3807 10.286C20.1305 9.03575 18.4348 8.33337 16.6667 8.33337ZM16.6667 18.3334C16.0074 18.3334 15.3629 18.1379 14.8148 17.7716C14.2666 17.4053 13.8394 16.8847 13.5871 16.2756C13.3348 15.6666 13.2688 14.9963 13.3974 14.3497C13.526 13.7031 13.8435 13.1092 14.3096 12.643C14.7758 12.1768 15.3698 11.8594 16.0164 11.7308C16.663 11.6021 17.3332 11.6681 17.9423 11.9204C18.5514 12.1727 19.072 12.6 19.4382 13.1481C19.8045 13.6963 20 14.3408 20 15C20 15.8841 19.6488 16.7319 19.0237 17.3571C18.3986 17.9822 17.5507 18.3334 16.6667 18.3334Z" fill="currentColor"/>
</svg>
