<svg width="51" height="50" viewBox="0 0 51 50" fill="none" xmlns="http://www.w3.org/2000/svg">
<path d="M35.9268 18.75V14.5833C35.9268 11.8206 34.8294 9.1711 32.8759 7.2176C30.9224 5.26409 28.2728 4.16663 25.5102 4.16663C22.7475 4.16663 20.098 5.26409 18.1445 7.2176C16.191 9.1711 15.0935 11.8206 15.0935 14.5833V18.75C13.4359 18.75 11.8462 19.4084 10.6741 20.5805C9.50199 21.7526 8.84351 23.3424 8.84351 25V39.5833C8.84351 41.2409 9.50199 42.8306 10.6741 44.0027C11.8462 45.1748 13.4359 45.8333 15.0935 45.8333H35.9268C37.5844 45.8333 39.1742 45.1748 40.3463 44.0027C41.5184 42.8306 42.1768 41.2409 42.1768 39.5833V25C42.1768 23.3424 41.5184 21.7526 40.3463 20.5805C39.1742 19.4084 37.5844 18.75 35.9268 18.75ZM19.2602 14.5833C19.2602 12.9257 19.9187 11.336 21.0908 10.1639C22.2629 8.99177 23.8526 8.33329 25.5102 8.33329C27.1678 8.33329 28.7575 8.99177 29.9296 10.1639C31.1017 11.336 31.7602 12.9257 31.7602 14.5833V18.75H19.2602V14.5833ZM38.0102 39.5833C38.0102 40.1358 37.7907 40.6657 37.4 41.0564C37.0093 41.4471 36.4794 41.6666 35.9268 41.6666H15.0935C14.541 41.6666 14.0111 41.4471 13.6204 41.0564C13.2297 40.6657 13.0102 40.1358 13.0102 39.5833V25C13.0102 24.4474 13.2297 23.9175 13.6204 23.5268C14.0111 23.1361 14.541 22.9166 15.0935 22.9166H35.9268C36.4794 22.9166 37.0093 23.1361 37.4 23.5268C37.7907 23.9175 38.0102 24.4474 38.0102 25V39.5833Z" fill="#8B8B8B"/>
</svg>

