<svg width="85" height="85" viewBox="0 0 85 85" fill="none" xmlns="http://www.w3.org/2000/svg">
<path d="M53.0335 28.2846L42.4268 38.8912L31.8202 28.2846C31.3514 27.8158 30.7155 27.5524 30.0525 27.5524C29.3894 27.5524 28.7536 27.8158 28.2847 28.2846C27.8159 28.7535 27.5525 29.3893 27.5525 30.0524C27.5525 30.7154 27.8159 31.3513 28.2847 31.8202L38.8913 42.4268L28.2847 53.0334C27.8159 53.5022 27.5525 54.1381 27.5525 54.8011C27.5525 55.4642 27.8159 56.1001 28.2847 56.5689C28.7536 57.0377 29.3894 57.3011 30.0525 57.3011C30.7155 57.3011 31.3514 57.0377 31.8202 56.5689L42.4268 45.9623L53.0335 56.5689C53.5023 57.0377 54.1382 57.3011 54.8012 57.3011C55.4643 57.3011 56.1001 57.0377 56.569 56.5689C57.0378 56.1001 57.3012 55.4642 57.3012 54.8011C57.3012 54.1381 57.0378 53.5022 56.569 53.0334L45.9624 42.4268L56.569 31.8202C57.0378 31.3513 57.3012 30.7154 57.3012 30.0524C57.3012 29.3893 57.0378 28.7535 56.569 28.2846C56.1001 27.8158 55.4643 27.5524 54.8012 27.5524C54.1382 27.5524 53.5023 27.8158 53.0335 28.2846Z" fill="#D54747"/>
</svg>
