<svg width="12" height="12" viewBox="0 0 12 12" fill="none" xmlns="http://www.w3.org/2000/svg">
<path d="M10.2426 0.343146L5.99999 4.58579L1.75735 0.343146C1.56981 0.155609 1.31546 0.050253 1.05024 0.0502529C0.785024 0.0502528 0.53067 0.155609 0.343133 0.343146C0.155597 0.530682 0.0502404 0.785036 0.0502405 1.05025C0.0502406 1.31547 0.155597 1.56982 0.343133 1.75736L4.58577 6L0.343133 10.2426C0.155597 10.4302 0.0502406 10.6845 0.0502405 10.9497C0.0502404 11.215 0.155597 11.4693 0.343133 11.6569C0.53067 11.8444 0.785024 11.9497 1.05024 11.9497C1.31546 11.9497 1.56981 11.8444 1.75735 11.6569L5.99999 7.41421L10.2426 11.6569C10.4302 11.8444 10.6845 11.9497 10.9497 11.9497C11.215 11.9497 11.4693 11.8444 11.6568 11.6569C11.8444 11.4693 11.9497 11.215 11.9497 10.9497C11.9497 10.6845 11.8444 10.4302 11.6568 10.2426L7.4142 6L11.6568 1.75736C11.8444 1.56982 11.9497 1.31547 11.9497 1.05025C11.9497 0.785036 11.8444 0.530682 11.6568 0.343146C11.4693 0.15561 11.215 0.0502522 10.9497 0.0502522C10.6845 0.0502522 10.4302 0.155609 10.2426 0.343146Z" fill="white"/>
</svg>

