<svg width="31" height="31" viewBox="0 0 31 31" fill="none" xmlns="http://www.w3.org/2000/svg">
<path d="M24.5416 25.8334H6.45829C6.11572 25.8334 5.78718 25.9695 5.54495 26.2117C5.30271 26.454 5.16663 26.7825 5.16663 27.1251C5.16663 27.4676 5.30271 27.7962 5.54495 28.0384C5.78718 28.2807 6.11572 28.4167 6.45829 28.4167H24.5416C24.8842 28.4167 25.2127 28.2807 25.455 28.0384C25.6972 27.7962 25.8333 27.4676 25.8333 27.1251C25.8333 26.7825 25.6972 26.454 25.455 26.2117C25.2127 25.9695 24.8842 25.8334 24.5416 25.8334ZM11.2504 9.95882L14.2083 6.98799V21.9584C14.2083 22.301 14.3444 22.6295 14.5866 22.8717C14.8288 23.114 15.1574 23.2501 15.5 23.2501C15.8425 23.2501 16.1711 23.114 16.4133 22.8717C16.6555 22.6295 16.7916 22.301 16.7916 21.9584V6.98799L19.7495 9.95882C19.8696 10.0799 20.0125 10.176 20.1699 10.2416C20.3273 10.3071 20.4961 10.3409 20.6666 10.3409C20.8371 10.3409 21.006 10.3071 21.1634 10.2416C21.3208 10.176 21.4636 10.0799 21.5837 9.95882C21.7048 9.83874 21.8009 9.69588 21.8664 9.53848C21.932 9.38108 21.9658 9.21225 21.9658 9.04174C21.9658 8.87122 21.932 8.70239 21.8664 8.54499C21.8009 8.38759 21.7048 8.24473 21.5837 8.12465L16.417 2.95799C16.2942 2.84039 16.1493 2.74821 15.9908 2.68674C15.6763 2.55755 15.3236 2.55755 15.0091 2.68674C14.8506 2.74821 14.7057 2.84039 14.5829 2.95799L9.41621 8.12465C9.29578 8.24509 9.20024 8.38806 9.13507 8.54541C9.06989 8.70277 9.03634 8.87142 9.03634 9.04174C9.03634 9.21205 9.06989 9.3807 9.13507 9.53806C9.20024 9.69541 9.29578 9.83839 9.41621 9.95882C9.53664 10.0793 9.67962 10.1748 9.83697 10.24C9.99432 10.3051 10.163 10.3387 10.3333 10.3387C10.5036 10.3387 10.6723 10.3051 10.8296 10.24C10.987 10.1748 11.1299 10.0793 11.2504 9.95882Z" fill="#1E8BF5"/>
</svg>
