<svg width="50" height="50" viewBox="0 0 50 50" fill="none" xmlns="http://www.w3.org/2000/svg">
<path d="M48.0384 40.804C46.7842 37.9973 44.964 35.4479 42.6794 33.2977C40.4017 31.1414 37.7036 29.4221 34.734 28.2349C34.7074 28.2224 34.6808 28.2161 34.6542 28.2035C38.7965 25.3769 41.4893 20.7726 41.4893 15.5779C41.4893 6.97236 34.109 0 25 0C15.891 0 8.51075 6.97236 8.51075 15.5779C8.51075 20.7726 11.2035 25.3769 15.3458 28.2098C15.3192 28.2224 15.2926 28.2286 15.266 28.2412C12.2873 29.4284 9.61446 31.1307 7.3206 33.304C5.03809 35.4558 3.21826 38.0048 1.96159 40.8103C0.727038 43.5569 0.0612159 46.5015 0.000166262 49.4849C-0.00160836 49.552 0.0108385 49.6187 0.0367739 49.6811C0.0627093 49.7435 0.101608 49.8004 0.151179 49.8484C0.200749 49.8964 0.259988 49.9346 0.325405 49.9606C0.390821 49.9866 0.461093 50 0.532078 50H4.52141C4.81396 50 5.04668 49.7802 5.05332 49.5101C5.1863 44.6608 7.24746 40.1194 10.8911 36.6771C14.661 33.1156 19.6676 31.1558 25 31.1558C30.3324 31.1558 35.339 33.1156 39.109 36.6771C42.7525 40.1194 44.8137 44.6608 44.9467 49.5101C44.9533 49.7864 45.186 50 45.4786 50H49.4679C49.5389 50 49.6092 49.9866 49.6746 49.9606C49.74 49.9346 49.7993 49.8964 49.8488 49.8484C49.8984 49.8004 49.9373 49.7435 49.9632 49.6811C49.9892 49.6187 50.0016 49.552 49.9998 49.4849C49.9333 46.4824 49.2751 43.5616 48.0384 40.804ZM25 26.3819C21.9482 26.3819 19.0758 25.2575 16.9149 23.2161C14.7541 21.1746 13.5639 18.4611 13.5639 15.5779C13.5639 12.6947 14.7541 9.98116 16.9149 7.9397C19.0758 5.89824 21.9482 4.77387 25 4.77387C28.0518 4.77387 30.9242 5.89824 33.0851 7.9397C35.2459 9.98116 36.4361 12.6947 36.4361 15.5779C36.4361 18.4611 35.2459 21.1746 33.0851 23.2161C30.9242 25.2575 28.0518 26.3819 25 26.3819Z" fill="#8B8B8B"/>
</svg>
