<svg width="39" height="39" viewBox="0 0 39 39" fill="none" xmlns="http://www.w3.org/2000/svg">
<path d="M14.625 21.125H17.875V24.375C17.875 24.806 18.0462 25.2193 18.351 25.524C18.6557 25.8288 19.069 26 19.5 26C19.931 26 20.3443 25.8288 20.649 25.524C20.9538 25.2193 21.125 24.806 21.125 24.375V21.125H24.375C24.806 21.125 25.2193 20.9538 25.524 20.649C25.8288 20.3443 26 19.931 26 19.5C26 19.069 25.8288 18.6557 25.524 18.351C25.2193 18.0462 24.806 17.875 24.375 17.875H21.125V14.625C21.125 14.194 20.9538 13.7807 20.649 13.476C20.3443 13.1712 19.931 13 19.5 13C19.069 13 18.6557 13.1712 18.351 13.476C18.0462 13.7807 17.875 14.194 17.875 14.625V17.875H14.625C14.194 17.875 13.7807 18.0462 13.476 18.351C13.1712 18.6557 13 19.069 13 19.5C13 19.931 13.1712 20.3443 13.476 20.649C13.7807 20.9538 14.194 21.125 14.625 21.125V21.125ZM34.125 3.25H4.875C4.44402 3.25 4.0307 3.4212 3.72595 3.72595C3.4212 4.0307 3.25 4.44402 3.25 4.875V34.125C3.25 34.556 3.4212 34.9693 3.72595 35.274C4.0307 35.5788 4.44402 35.75 4.875 35.75H34.125C34.556 35.75 34.9693 35.5788 35.274 35.274C35.5788 34.9693 35.75 34.556 35.75 34.125V4.875C35.75 4.44402 35.5788 4.0307 35.274 3.72595C34.9693 3.4212 34.556 3.25 34.125 3.25V3.25ZM32.5 32.5H6.5V6.5H32.5V32.5Z" fill="#1E8BF5"/>
</svg>
