<svg width="40" height="40" viewBox="0 0 40 40" fill="none" xmlns="http://www.w3.org/2000/svg">
<path d="M24.5333 14.6502L17.3833 21.8168L14.6333 19.0668C14.4838 18.8924 14.3 18.7507 14.0932 18.6506C13.8864 18.5506 13.6612 18.4944 13.4317 18.4855C13.2021 18.4766 12.9733 18.5153 12.7594 18.5991C12.5455 18.6829 12.3513 18.81 12.1888 18.9724C12.0264 19.1348 11.8993 19.3291 11.8155 19.543C11.7317 19.7568 11.6931 19.9857 11.7019 20.2153C11.7108 20.4448 11.767 20.67 11.8671 20.8768C11.9671 21.0836 12.1088 21.2674 12.2833 21.4168L16.1999 25.3502C16.3557 25.5046 16.5404 25.6268 16.7434 25.7098C16.9465 25.7927 17.1639 25.8348 17.3833 25.8335C17.8205 25.8317 18.2395 25.6581 18.5499 25.3502L26.8833 17.0168C27.0395 16.8619 27.1635 16.6776 27.2481 16.4745C27.3327 16.2714 27.3763 16.0535 27.3763 15.8335C27.3763 15.6135 27.3327 15.3956 27.2481 15.1925C27.1635 14.9894 27.0395 14.8051 26.8833 14.6502C26.571 14.3397 26.1486 14.1655 25.7083 14.1655C25.268 14.1655 24.8455 14.3397 24.5333 14.6502ZM19.9999 3.3335C16.7036 3.3335 13.4812 4.31098 10.7404 6.14234C7.9996 7.97369 5.86339 10.5767 4.60193 13.6221C3.34047 16.6675 3.01042 20.0187 3.6535 23.2517C4.29659 26.4847 5.88394 29.4544 8.21481 31.7853C10.5457 34.1162 13.5154 35.7035 16.7484 36.3466C19.9814 36.9897 23.3325 36.6596 26.378 35.3982C29.4234 34.1367 32.0264 32.0005 33.8577 29.2597C35.6891 26.5188 36.6666 23.2965 36.6666 20.0002C36.6666 17.8115 36.2355 15.6442 35.3979 13.6221C34.5603 11.6 33.3327 9.76269 31.785 8.21505C30.2374 6.66741 28.4001 5.43975 26.378 4.60217C24.3559 3.76459 22.1886 3.3335 19.9999 3.3335ZM19.9999 33.3335C17.3628 33.3335 14.785 32.5515 12.5923 31.0864C10.3997 29.6213 8.6907 27.539 7.68153 25.1026C6.67236 22.6663 6.40832 19.9854 6.92279 17.399C7.43726 14.8125 8.70714 12.4368 10.5718 10.5721C12.4365 8.70737 14.8123 7.4375 17.3987 6.92303C19.9851 6.40856 22.666 6.6726 25.1024 7.68177C27.5387 8.69094 29.6211 10.3999 31.0862 12.5926C32.5513 14.7852 33.3333 17.3631 33.3333 20.0002C33.3333 23.5364 31.9285 26.9278 29.428 29.4283C26.9275 31.9287 23.5361 33.3335 19.9999 33.3335Z" fill="#1E8BF5"/>
</svg>
