<svg width="39" height="29" viewBox="0 0 39 29" fill="none" xmlns="http://www.w3.org/2000/svg">
<path d="M37.5029 10.2573L35.7112 9.27189L19.5862 0.313555H19.3892C19.2793 0.267112 19.1653 0.23112 19.0487 0.206055H18.7083H18.3858C18.2634 0.231137 18.1435 0.267113 18.0275 0.313555H17.8304L1.7054 9.27189C1.42967 9.42815 1.20032 9.65476 1.04075 9.9286C0.88119 10.2024 0.797119 10.5137 0.797119 10.8306C0.797119 11.1476 0.88119 11.4588 1.04075 11.7327C1.20032 12.0065 1.42967 12.2331 1.7054 12.3894L6.16665 14.8619V23.3544C6.16665 24.7799 6.73294 26.1471 7.74095 27.1551C8.74896 28.1631 10.1161 28.7294 11.5417 28.7294H25.875C27.3005 28.7294 28.6677 28.1631 29.6757 27.1551C30.6837 26.1471 31.25 24.7799 31.25 23.3544V14.8619L34.8333 12.8552V17.9794C34.8333 18.4546 35.0221 18.9103 35.3581 19.2463C35.6941 19.5823 36.1498 19.7711 36.625 19.7711C37.1002 19.7711 37.5559 19.5823 37.8919 19.2463C38.2279 18.9103 38.4167 18.4546 38.4167 17.9794V11.8161C38.4161 11.4986 38.3312 11.1869 38.1707 10.9131C38.0101 10.6392 37.7797 10.4129 37.5029 10.2573V10.2573ZM27.6667 23.3544C27.6667 23.8296 27.4779 24.2853 27.1419 24.6213C26.8059 24.9573 26.3502 25.1461 25.875 25.1461H11.5417C11.0665 25.1461 10.6108 24.9573 10.2748 24.6213C9.93875 24.2853 9.74999 23.8296 9.74999 23.3544V16.8506L17.8304 21.3298L18.0992 21.4373H18.2604C18.4091 21.456 18.5596 21.456 18.7083 21.4373C18.857 21.456 19.0075 21.456 19.1562 21.4373H19.3175C19.4126 21.4173 19.5035 21.3809 19.5862 21.3298L27.6667 16.8506V23.3544ZM18.7083 17.7286L6.27415 10.8127L18.7083 3.89689L31.1425 10.8127L18.7083 17.7286Z" fill="#8B8B8B"/>
</svg>
