<svg width="38" height="38" viewBox="0 0 38 38" fill="none" xmlns="http://www.w3.org/2000/svg">
<path d="M19.0001 22.167C19.3132 22.167 19.6194 22.0741 19.8797 21.9002C20.1401 21.7262 20.3431 21.4789 20.4629 21.1896C20.5827 20.9003 20.6141 20.5819 20.553 20.2748C20.4919 19.9676 20.3411 19.6855 20.1197 19.4641C19.8982 19.2426 19.6161 19.0918 19.309 19.0308C19.0018 18.9697 18.6835 19.001 18.3942 19.1209C18.1049 19.2407 17.8576 19.4436 17.6836 19.704C17.5096 19.9644 17.4167 20.2705 17.4167 20.5837C17.4167 21.0036 17.5836 21.4063 17.8805 21.7032C18.1774 22.0002 18.5802 22.167 19.0001 22.167ZM26.9167 22.167C27.2299 22.167 27.536 22.0741 27.7964 21.9002C28.0568 21.7262 28.2597 21.4789 28.3796 21.1896C28.4994 20.9003 28.5308 20.5819 28.4697 20.2748C28.4086 19.9676 28.2578 19.6855 28.0363 19.4641C27.8149 19.2426 27.5328 19.0918 27.2256 19.0308C26.9185 18.9697 26.6002 19.001 26.3108 19.1209C26.0215 19.2407 25.7742 19.4436 25.6003 19.704C25.4263 19.9644 25.3334 20.2705 25.3334 20.5837C25.3334 21.0036 25.5002 21.4063 25.7972 21.7032C26.0941 22.0002 26.4968 22.167 26.9167 22.167ZM19.0001 28.5003C19.3132 28.5003 19.6194 28.4075 19.8797 28.2335C20.1401 28.0595 20.3431 27.8122 20.4629 27.5229C20.5827 27.2336 20.6141 26.9152 20.553 26.6081C20.4919 26.301 20.3411 26.0188 20.1197 25.7974C19.8982 25.576 19.6161 25.4252 19.309 25.3641C19.0018 25.303 18.6835 25.3343 18.3942 25.4542C18.1049 25.574 17.8576 25.777 17.6836 26.0373C17.5096 26.2977 17.4167 26.6038 17.4167 26.917C17.4167 27.3369 17.5836 27.7396 17.8805 28.0366C18.1774 28.3335 18.5802 28.5003 19.0001 28.5003ZM26.9167 28.5003C27.2299 28.5003 27.536 28.4075 27.7964 28.2335C28.0568 28.0595 28.2597 27.8122 28.3796 27.5229C28.4994 27.2336 28.5308 26.9152 28.4697 26.6081C28.4086 26.301 28.2578 26.0188 28.0363 25.7974C27.8149 25.576 27.5328 25.4252 27.2256 25.3641C26.9185 25.303 26.6002 25.3343 26.3108 25.4542C26.0215 25.574 25.7742 25.777 25.6003 26.0373C25.4263 26.2977 25.3334 26.6038 25.3334 26.917C25.3334 27.3369 25.5002 27.7396 25.7972 28.0366C26.0941 28.3335 26.4968 28.5003 26.9167 28.5003ZM11.0834 22.167C11.3966 22.167 11.7027 22.0741 11.9631 21.9002C12.2234 21.7262 12.4264 21.4789 12.5462 21.1896C12.6661 20.9003 12.6974 20.5819 12.6363 20.2748C12.5752 19.9676 12.4244 19.6855 12.203 19.4641C11.9816 19.2426 11.6994 19.0918 11.3923 19.0308C11.0852 18.9697 10.7668 19.001 10.4775 19.1209C10.1882 19.2407 9.9409 19.4436 9.76692 19.704C9.59294 19.9644 9.50008 20.2705 9.50008 20.5837C9.50008 21.0036 9.6669 21.4063 9.96383 21.7032C10.2608 22.0002 10.6635 22.167 11.0834 22.167ZM30.0834 6.33366H28.5001V4.75033C28.5001 4.3304 28.3333 3.92767 28.0363 3.63074C27.7394 3.33381 27.3367 3.16699 26.9167 3.16699C26.4968 3.16699 26.0941 3.33381 25.7972 3.63074C25.5002 3.92767 25.3334 4.3304 25.3334 4.75033V6.33366H12.6667V4.75033C12.6667 4.3304 12.4999 3.92767 12.203 3.63074C11.9061 3.33381 11.5033 3.16699 11.0834 3.16699C10.6635 3.16699 10.2608 3.33381 9.96383 3.63074C9.6669 3.92767 9.50008 4.3304 9.50008 4.75033V6.33366H7.91675C6.65697 6.33366 5.44879 6.8341 4.55799 7.7249C3.66719 8.6157 3.16675 9.82388 3.16675 11.0837V30.0837C3.16675 31.3434 3.66719 32.5516 4.55799 33.4424C5.44879 34.3332 6.65697 34.8337 7.91675 34.8337H30.0834C31.3432 34.8337 32.5514 34.3332 33.4422 33.4424C34.333 32.5516 34.8334 31.3434 34.8334 30.0837V11.0837C34.8334 9.82388 34.333 8.6157 33.4422 7.7249C32.5514 6.8341 31.3432 6.33366 30.0834 6.33366ZM31.6668 30.0837C31.6668 30.5036 31.4999 30.9063 31.203 31.2032C30.9061 31.5002 30.5033 31.667 30.0834 31.667H7.91675C7.49682 31.667 7.0941 31.5002 6.79716 31.2032C6.50023 30.9063 6.33342 30.5036 6.33342 30.0837V15.8337H31.6668V30.0837ZM31.6668 12.667H6.33342V11.0837C6.33342 10.6637 6.50023 10.261 6.79716 9.96407C7.0941 9.66714 7.49682 9.50033 7.91675 9.50033H30.0834C30.5033 9.50033 30.9061 9.66714 31.203 9.96407C31.4999 10.261 31.6668 10.6637 31.6668 11.0837V12.667ZM11.0834 28.5003C11.3966 28.5003 11.7027 28.4075 11.9631 28.2335C12.2234 28.0595 12.4264 27.8122 12.5462 27.5229C12.6661 27.2336 12.6974 26.9152 12.6363 26.6081C12.5752 26.301 12.4244 26.0188 12.203 25.7974C11.9816 25.576 11.6994 25.4252 11.3923 25.3641C11.0852 25.303 10.7668 25.3343 10.4775 25.4542C10.1882 25.574 9.9409 25.777 9.76692 26.0373C9.59294 26.2977 9.50008 26.6038 9.50008 26.917C9.50008 27.3369 9.6669 27.7396 9.96383 28.0366C10.2608 28.3335 10.6635 28.5003 11.0834 28.5003Z" fill="#1E8BF5"/>
</svg>
