<svg width="24" height="24" viewBox="0 0 24 24" fill="none" xmlns="http://www.w3.org/2000/svg">
<path d="M21.17 2.06012C20.4532 1.93665 19.7273 1.8731 19 1.87012C16.5183 1.86809 14.0884 2.57969 12 3.92012C9.90611 2.59729 7.47661 1.90315 4.99996 1.92012C4.27261 1.9231 3.54677 1.98665 2.82996 2.11012C2.59517 2.1506 2.38254 2.27358 2.23038 2.45691C2.07821 2.64025 1.9965 2.87189 1.99996 3.11012V15.1101C1.99782 15.2571 2.02809 15.4027 2.08861 15.5366C2.14914 15.6705 2.23843 15.7894 2.35014 15.8849C2.46184 15.9803 2.59322 16.05 2.73492 16.089C2.87662 16.1279 3.02515 16.1351 3.16996 16.1101C4.60298 15.862 6.07116 15.9032 7.48803 16.2312C8.90489 16.5592 10.2418 17.1675 11.42 18.0201L11.54 18.0901H11.65C11.7609 18.1363 11.8798 18.1601 12 18.1601C12.1201 18.1601 12.2391 18.1363 12.35 18.0901H12.46L12.58 18.0201C13.7499 17.1484 15.083 16.5205 16.5001 16.1735C17.9172 15.8265 19.3896 15.7675 20.83 16.0001C20.9748 16.0251 21.1233 16.0179 21.265 15.979C21.4067 15.94 21.5381 15.8703 21.6498 15.7749C21.7615 15.6794 21.8508 15.5605 21.9113 15.4266C21.9718 15.2927 22.0021 15.1471 22 15.0001V3.00012C21.9896 2.77228 21.9016 2.55483 21.7506 2.38386C21.5996 2.21289 21.3948 2.09866 21.17 2.06012ZM11 15.3501C9.14985 14.3768 7.09048 13.8688 4.99996 13.8701C4.66996 13.8701 4.33996 13.8701 3.99996 13.8701V3.87012C4.33302 3.85093 4.66691 3.85093 4.99996 3.87012C7.13335 3.86776 9.22018 4.49381 11 5.67012V15.3501ZM20 13.9101C19.66 13.9101 19.33 13.9101 19 13.9101C16.9094 13.9088 14.8501 14.4168 13 15.3901V5.67012C14.7797 4.49381 16.8666 3.86776 19 3.87012C19.333 3.85093 19.6669 3.85093 20 3.87012V13.9101ZM21.17 18.0601C20.4532 17.9367 19.7273 17.8731 19 17.8701C16.5183 17.8681 14.0884 18.5797 12 19.9201C9.91148 18.5797 7.4816 17.8681 4.99996 17.8701C4.27261 17.8731 3.54677 17.9367 2.82996 18.0601C2.69979 18.0808 2.57499 18.127 2.46272 18.196C2.35046 18.2651 2.25296 18.3557 2.17583 18.4625C2.09869 18.5694 2.04345 18.6905 2.01327 18.8188C1.98308 18.9471 1.97856 19.0801 1.99996 19.2101C2.05078 19.4698 2.20245 19.6988 2.42175 19.8468C2.64105 19.9949 2.9101 20.05 3.16996 20.0001C4.60298 19.752 6.07116 19.7932 7.48803 20.1212C8.90489 20.4492 10.2418 21.0575 11.42 21.9101C11.5893 22.0307 11.7921 22.0955 12 22.0955C12.2079 22.0955 12.4106 22.0307 12.58 21.9101C13.7581 21.0575 15.095 20.4492 16.5119 20.1212C17.9288 19.7932 19.3969 19.752 20.83 20.0001C21.0898 20.05 21.3589 19.9949 21.5782 19.8468C21.7975 19.6988 21.9491 19.4698 22 19.2101C22.0214 19.0801 22.0168 18.9471 21.9867 18.8188C21.9565 18.6905 21.9012 18.5694 21.8241 18.4625C21.747 18.3557 21.6495 18.2651 21.5372 18.196C21.4249 18.127 21.3001 18.0808 21.17 18.0601Z" fill="black"/>
</svg>
