<svg width="36" height="36" viewBox="0 0 36 36" fill="none" xmlns="http://www.w3.org/2000/svg">
<path d="M18 7.5C17.5359 7.5 17.0908 7.68437 16.7626 8.01256C16.4344 8.34075 16.25 8.78587 16.25 9.25V26.75C16.25 27.2141 16.4344 27.6592 16.7626 27.9874C17.0908 28.3156 17.5359 28.5 18 28.5C18.4641 28.5 18.9092 28.3156 19.2374 27.9874C19.5656 27.6592 19.75 27.2141 19.75 26.75V9.25C19.75 8.78587 19.5656 8.34075 19.2374 8.01256C18.9092 7.68437 18.4641 7.5 18 7.5ZM9.25 18C8.78587 18 8.34075 18.1844 8.01256 18.5126C7.68437 18.8408 7.5 19.2859 7.5 19.75V26.75C7.5 27.2141 7.68437 27.6592 8.01256 27.9874C8.34075 28.3156 8.78587 28.5 9.25 28.5C9.71413 28.5 10.1592 28.3156 10.4874 27.9874C10.8156 27.6592 11 27.2141 11 26.75V19.75C11 19.2859 10.8156 18.8408 10.4874 18.5126C10.1592 18.1844 9.71413 18 9.25 18ZM26.75 14.5C26.2859 14.5 25.8408 14.6844 25.5126 15.0126C25.1844 15.3408 25 15.7859 25 16.25V26.75C25 27.2141 25.1844 27.6592 25.5126 27.9874C25.8408 28.3156 26.2859 28.5 26.75 28.5C27.2141 28.5 27.6592 28.3156 27.9874 27.9874C28.3156 27.6592 28.5 27.2141 28.5 26.75V16.25C28.5 15.7859 28.3156 15.3408 27.9874 15.0126C27.6592 14.6844 27.2141 14.5 26.75 14.5ZM30.25 0.5H5.75C4.35761 0.5 3.02226 1.05312 2.03769 2.03769C1.05312 3.02226 0.5 4.35761 0.5 5.75V30.25C0.5 31.6424 1.05312 32.9777 2.03769 33.9623C3.02226 34.9469 4.35761 35.5 5.75 35.5H30.25C31.6424 35.5 32.9777 34.9469 33.9623 33.9623C34.9469 32.9777 35.5 31.6424 35.5 30.25V5.75C35.5 4.35761 34.9469 3.02226 33.9623 2.03769C32.9777 1.05312 31.6424 0.5 30.25 0.5ZM32 30.25C32 30.7141 31.8156 31.1592 31.4874 31.4874C31.1592 31.8156 30.7141 32 30.25 32H5.75C5.28587 32 4.84075 31.8156 4.51256 31.4874C4.18437 31.1592 4 30.7141 4 30.25V5.75C4 5.28587 4.18437 4.84075 4.51256 4.51256C4.84075 4.18437 5.28587 4 5.75 4H30.25C30.7141 4 31.1592 4.18437 31.4874 4.51256C31.8156 4.84075 32 5.28587 32 5.75V30.25Z" fill="#8B8B8B"/>
</svg>
