<svg width="30" height="30" viewBox="0 0 30 30" fill="none" xmlns="http://www.w3.org/2000/svg">
<path d="M26.25 7.5C25.9185 7.5 25.6005 7.6317 25.3661 7.86612C25.1317 8.10054 25 8.41848 25 8.75V21.25C25 22.2446 24.6049 23.1984 23.9017 23.9017C23.1984 24.6049 22.2446 25 21.25 25H8.75C8.41848 25 8.10054 25.1317 7.86612 25.3661C7.6317 25.6005 7.5 25.9185 7.5 26.25C7.5 26.5815 7.6317 26.8995 7.86612 27.1339C8.10054 27.3683 8.41848 27.5 8.75 27.5H21.25C22.9076 27.5 24.4973 26.8415 25.6694 25.6694C26.8415 24.4973 27.5 22.9076 27.5 21.25V8.75C27.5 8.41848 27.3683 8.10054 27.1339 7.86612C26.8995 7.6317 26.5815 7.5 26.25 7.5ZM22.5 18.75V6.25C22.5 5.25544 22.1049 4.30161 21.4017 3.59835C20.6984 2.89509 19.7446 2.5 18.75 2.5H6.25C5.25544 2.5 4.30161 2.89509 3.59835 3.59835C2.89509 4.30161 2.5 5.25544 2.5 6.25V18.75C2.5 19.7446 2.89509 20.6984 3.59835 21.4017C4.30161 22.1049 5.25544 22.5 6.25 22.5H18.75C19.7446 22.5 20.6984 22.1049 21.4017 21.4017C22.1049 20.6984 22.5 19.7446 22.5 18.75ZM12.5 5H15V11.075L14.55 10.7C14.3254 10.5129 14.0423 10.4105 13.75 10.4105C13.4577 10.4105 13.1746 10.5129 12.95 10.7L12.5 11.075V5ZM5 18.75V6.25C5 5.91848 5.1317 5.60054 5.36612 5.36612C5.60054 5.1317 5.91848 5 6.25 5H10V13.75C9.99998 13.989 10.0685 14.2229 10.1973 14.4241C10.3262 14.6254 10.51 14.7855 10.7271 14.8854C10.9441 14.9854 11.1852 15.0211 11.4219 14.9882C11.6586 14.9553 11.8809 14.8553 12.0625 14.7L13.75 13.2875L15.4375 14.7C15.6639 14.8936 15.9521 15 16.25 15C16.4308 14.9987 16.6095 14.9604 16.775 14.8875C16.992 14.7871 17.1756 14.6266 17.3041 14.4249C17.4326 14.2233 17.5006 13.9891 17.5 13.75V5H18.75C19.0815 5 19.3995 5.1317 19.6339 5.36612C19.8683 5.60054 20 5.91848 20 6.25V18.75C20 19.0815 19.8683 19.3995 19.6339 19.6339C19.3995 19.8683 19.0815 20 18.75 20H6.25C5.91848 20 5.60054 19.8683 5.36612 19.6339C5.1317 19.3995 5 19.0815 5 18.75Z" fill="#8B8B8B"/>
</svg>
