<svg width="30" height="30" viewBox="0 0 30 30" fill="none" xmlns="http://www.w3.org/2000/svg">
<path d="M11.4322 15.1667H1.63317C1.60779 15.1667 1.57714 15.1567 1.54972 15.1287C1.52127 15.0996 1.5 15.0539 1.5 15V1.66667C1.5 1.61275 1.52127 1.56702 1.54972 1.53799C1.57714 1.51 1.60779 1.5 1.63317 1.5H11.4322C11.4576 1.5 11.4882 1.51 11.5156 1.53799C11.5441 1.56702 11.5654 1.61275 11.5654 1.66667V15C11.5654 15.0539 11.5441 15.0996 11.5156 15.1287C11.4882 15.1567 11.4576 15.1667 11.4322 15.1667ZM1.54972 28.462C1.52128 28.433 1.5 28.3873 1.5 28.3333V21.6667C1.5 21.6127 1.52127 21.567 1.54972 21.538C1.57714 21.51 1.60779 21.5 1.63317 21.5H11.4322C11.4576 21.5 11.4882 21.51 11.5156 21.538C11.5441 21.567 11.5654 21.6127 11.5654 21.6667V28.3333C11.5654 28.3873 11.5441 28.433 11.5156 28.462C11.4882 28.49 11.4576 28.5 11.4322 28.5H1.63317C1.60779 28.5 1.57714 28.49 1.54972 28.462ZM17.8814 28.462C17.853 28.433 17.8317 28.3873 17.8317 28.3333V16.6667C17.8317 16.6127 17.853 16.567 17.8814 16.538C17.9088 16.51 17.9395 16.5 17.9649 16.5H27.7639C27.7893 16.5 27.8199 16.51 27.8473 16.538C27.8758 16.567 27.897 16.6127 27.897 16.6667V28.3333C27.897 28.3873 27.8758 28.433 27.8473 28.462C27.8199 28.49 27.7893 28.5 27.7639 28.5H17.9649C17.9395 28.5 17.9088 28.49 17.8814 28.462ZM27.7639 10.1667H17.9649C17.9395 10.1667 17.9088 10.1567 17.8814 10.1287C17.853 10.0996 17.8317 10.0539 17.8317 10V1.66667C17.8317 1.61275 17.853 1.56702 17.8814 1.53799C17.9088 1.51 17.9395 1.5 17.9649 1.5H27.7639C27.7893 1.5 27.8199 1.51 27.8473 1.53799C27.8758 1.56702 27.897 1.61274 27.897 1.66667V10C27.897 10.0539 27.8758 10.0997 27.8473 10.1287C27.8199 10.1567 27.7893 10.1667 27.7639 10.1667Z" stroke="#1E8BF5" stroke-width="3"/>
</svg>
