<svg width="30" height="30" viewBox="0 0 30 30" fill="none" xmlns="http://www.w3.org/2000/svg">
<path d="M1.63317 16.6667H11.4322C11.8653 16.6667 12.2807 16.4911 12.587 16.1785C12.8933 15.866 13.0654 15.442 13.0654 15V1.66667C13.0654 1.22464 12.8933 0.800716 12.587 0.488155C12.2807 0.175595 11.8653 0 11.4322 0H1.63317C1.20003 0 0.784623 0.175595 0.478344 0.488155C0.172065 0.800716 0 1.22464 0 1.66667V15C0 15.442 0.172065 15.866 0.478344 16.1785C0.784623 16.4911 1.20003 16.6667 1.63317 16.6667ZM0 28.3333C0 28.7754 0.172065 29.1993 0.478344 29.5118C0.784623 29.8244 1.20003 30 1.63317 30H11.4322C11.8653 30 12.2807 29.8244 12.587 29.5118C12.8933 29.1993 13.0654 28.7754 13.0654 28.3333V21.6667C13.0654 21.2246 12.8933 20.8007 12.587 20.4882C12.2807 20.1756 11.8653 20 11.4322 20H1.63317C1.20003 20 0.784623 20.1756 0.478344 20.4882C0.172065 20.8007 0 21.2246 0 21.6667V28.3333ZM16.3317 28.3333C16.3317 28.7754 16.5038 29.1993 16.81 29.5118C17.1163 29.8244 17.5317 30 17.9649 30H27.7639C28.197 30 28.6124 29.8244 28.9187 29.5118C29.225 29.1993 29.397 28.7754 29.397 28.3333V16.6667C29.397 16.2246 29.225 15.8007 28.9187 15.4882C28.6124 15.1756 28.197 15 27.7639 15H17.9649C17.5317 15 17.1163 15.1756 16.81 15.4882C16.5038 15.8007 16.3317 16.2246 16.3317 16.6667V28.3333ZM17.9649 11.6667H27.7639C28.197 11.6667 28.6124 11.4911 28.9187 11.1785C29.225 10.866 29.397 10.442 29.397 10V1.66667C29.397 1.22464 29.225 0.800716 28.9187 0.488155C28.6124 0.175595 28.197 0 27.7639 0H17.9649C17.5317 0 17.1163 0.175595 16.81 0.488155C16.5038 0.800716 16.3317 1.22464 16.3317 1.66667V10C16.3317 10.442 16.5038 10.866 16.81 11.1785C17.1163 11.4911 17.5317 11.6667 17.9649 11.6667Z" fill="#2F98FF"/>
</svg>
