<svg width="24" height="24" viewBox="0 0 24 24" fill="none" xmlns="http://www.w3.org/2000/svg">
<path d="M2.49995 10.5601L11.4999 15.7601C11.652 15.8478 11.8244 15.894 11.9999 15.894C12.1755 15.894 12.3479 15.8478 12.4999 15.7601L21.5 10.5601C21.6515 10.4722 21.7773 10.346 21.8647 10.1942C21.9522 10.0424 21.9982 9.87026 21.9982 9.69507C21.9982 9.51988 21.9522 9.34776 21.8647 9.19596C21.7773 9.04415 21.6515 8.91797 21.5 8.83007L12.4999 3.63007C12.3479 3.5423 12.1755 3.49609 11.9999 3.49609C11.8244 3.49609 11.652 3.5423 11.4999 3.63007L2.49995 8.83007C2.34841 8.91797 2.22262 9.04415 2.13518 9.19596C2.04775 9.34776 2.00172 9.51988 2.00172 9.69507C2.00172 9.87026 2.04775 10.0424 2.13518 10.1942C2.22262 10.346 2.34841 10.4722 2.49995 10.5601ZM11.9999 5.65007L19 9.65007L11.9999 13.7001L4.99995 9.69007L11.9999 5.65007ZM20.5 13.4401L11.9999 18.3501L3.49995 13.4401C3.38641 13.3735 3.26086 13.3301 3.13049 13.3122C3.00012 13.2942 2.86749 13.3022 2.74022 13.3357C2.61295 13.3691 2.49352 13.4274 2.3888 13.5071C2.28408 13.5867 2.19611 13.6863 2.12995 13.8001C2.06383 13.9142 2.02094 14.0403 2.00376 14.1711C1.98658 14.3018 1.99544 14.4347 2.02983 14.5621C2.06422 14.6894 2.12346 14.8087 2.20415 14.913C2.28483 15.0174 2.38536 15.1047 2.49995 15.1701L11.4999 20.3701C11.652 20.4578 11.8244 20.504 11.9999 20.504C12.1755 20.504 12.3479 20.4578 12.4999 20.3701L21.5 15.1701C21.6145 15.1047 21.7151 15.0174 21.7958 14.913C21.8764 14.8087 21.9357 14.6894 21.9701 14.5621C22.0045 14.4347 22.0133 14.3018 21.9961 14.1711C21.979 14.0403 21.9361 13.9142 21.87 13.8001C21.8038 13.6863 21.7158 13.5867 21.6111 13.5071C21.5064 13.4274 21.387 13.3691 21.2597 13.3357C21.1324 13.3022 20.9998 13.2942 20.8694 13.3122C20.739 13.3301 20.6135 13.3735 20.5 13.4401Z" fill="black"/>
</svg>