<svg width="22" height="22" viewBox="0 0 22 22" fill="none" xmlns="http://www.w3.org/2000/svg">
<path d="M21.0736 0.206676C20.2862 0.0723758 19.4888 0.00324658 18.6898 4.73194e-06C15.9636 -0.00220826 13.2943 0.771837 11 2.22988C8.69982 0.790981 6.03091 0.0359337 3.3102 0.0543918C2.51117 0.0576336 1.71381 0.126763 0.926366 0.261063C0.668435 0.305093 0.434857 0.438863 0.267694 0.638284C0.100532 0.837704 0.0107707 1.08967 0.0145757 1.3488V14.4017C0.012223 14.5615 0.0454735 14.7199 0.111962 14.8656C0.178449 15.0112 0.276541 15.1406 0.399256 15.2444C0.521971 15.3483 0.666294 15.4241 0.821956 15.4664C0.977618 15.5088 1.14079 15.5166 1.29987 15.4894C2.8741 15.2196 4.48696 15.2643 6.04345 15.6211C7.59993 15.978 9.06857 16.6396 10.3628 17.567L10.4947 17.6432H10.6155C10.7373 17.6934 10.868 17.7193 11 17.7193C11.132 17.7193 11.2627 17.6934 11.3845 17.6432H11.5053L11.6372 17.567C12.9224 16.6188 14.3868 15.9358 15.9436 15.5584C17.5004 15.1809 19.1179 15.1168 20.7001 15.3698C20.8592 15.397 21.0224 15.3891 21.178 15.3468C21.3337 15.3044 21.478 15.2286 21.6007 15.1248C21.7235 15.0209 21.8216 14.8916 21.888 14.7459C21.9545 14.6003 21.9878 14.4419 21.9854 14.2821V1.22915C21.974 0.981315 21.8773 0.744793 21.7115 0.558819C21.5457 0.372845 21.3206 0.248594 21.0736 0.206676ZM9.90146 14.6628C7.86903 13.6041 5.60673 13.0515 3.3102 13.0529C2.94768 13.0529 2.58517 13.0529 2.21166 13.0529V2.17549C2.57754 2.15461 2.94433 2.15461 3.3102 2.17549C5.65382 2.17292 7.94629 2.8539 9.90146 4.13342V14.6628ZM19.7883 13.0964C19.4148 13.0964 19.0523 13.0964 18.6898 13.0964C16.3933 13.095 14.131 13.6476 12.0985 14.7063V4.13342C14.0537 2.8539 16.3462 2.17292 18.6898 2.17549C19.0557 2.15461 19.4225 2.15461 19.7883 2.17549V13.0964ZM21.0736 17.6105C20.2862 17.4762 19.4888 17.4071 18.6898 17.4039C15.9636 17.4017 13.2943 18.1757 11 19.6337C8.70571 18.1757 6.03638 17.4017 3.3102 17.4039C2.51117 17.4071 1.71381 17.4762 0.926366 17.6105C0.783366 17.633 0.646262 17.6833 0.52294 17.7584C0.399617 17.8335 0.292508 17.932 0.207773 18.0483C0.123037 18.1645 0.0623463 18.2962 0.0291905 18.4358C-0.00396537 18.5753 -0.00893213 18.72 0.0145757 18.8614C0.0704022 19.1439 0.23702 19.393 0.47793 19.554C0.718841 19.7151 1.0144 19.7751 1.29987 19.7208C2.8741 19.4509 4.48696 19.4957 6.04345 19.8525C7.59993 20.2093 9.06857 20.8709 10.3628 21.7984C10.5489 21.9295 10.7716 22 11 22C11.2284 22 11.4511 21.9295 11.6372 21.7984C12.9314 20.8709 14.4001 20.2093 15.9566 19.8525C17.513 19.4957 19.1259 19.4509 20.7001 19.7208C20.9856 19.7751 21.2812 19.7151 21.5221 19.554C21.763 19.393 21.9296 19.1439 21.9854 18.8614C22.0089 18.72 22.004 18.5753 21.9708 18.4358C21.9377 18.2962 21.877 18.1645 21.7922 18.0483C21.7075 17.932 21.6004 17.8335 21.4771 17.7584C21.3537 17.6833 21.2166 17.633 21.0736 17.6105V17.6105Z" fill="#8B8B8B"/>
</svg>
