<svg width="30" height="30" viewBox="0 0 30 30" fill="none" xmlns="http://www.w3.org/2000/svg">
<path d="M26.6276 3.33333H16.5102C15.5828 3.33333 14.824 2.58333 14.824 1.66667C14.824 0.75 15.5828 0 16.5102 0H26.6276C28.4824 0 30 1.5 30 3.33333V26.6667C30 28.5 28.4824 30 26.6276 30H16.5102C15.5828 30 14.824 29.25 14.824 28.3333C14.824 27.4167 15.5828 26.6667 16.5102 26.6667H26.6276V3.33333Z" fill="#E21717"/>
<path d="M0.238228 14.4166L4.94278 9.76661C5.06005 9.64753 5.21061 9.56575 5.37518 9.53172C5.53975 9.4977 5.71086 9.51299 5.86658 9.57564C6.02231 9.63828 6.15559 9.74543 6.24936 9.88337C6.34312 10.0213 6.39311 10.1838 6.39293 10.3499V13.3333H18.1965C19.1239 13.3333 19.8827 14.0833 19.8827 14.9999C19.8827 15.9166 19.1239 16.6666 18.1965 16.6666H6.39293V19.6499C6.39293 20.3999 5.48237 20.7666 4.95964 20.2333L0.255091 15.5833C-0.0821533 15.2666 -0.0821552 14.7333 0.238228 14.4166Z" fill="#E21717"/>
</svg>
