<svg width="43" height="43" viewBox="0 0 43 43" fill="none" xmlns="http://www.w3.org/2000/svg">
<path d="M12.5413 26.8747H17.9163C18.3915 26.8747 18.8472 26.6859 19.1832 26.3499C19.5192 26.0139 19.708 25.5582 19.708 25.083C19.708 24.6078 19.5192 24.1521 19.1832 23.8161C18.8472 23.4801 18.3915 23.2913 17.9163 23.2913H12.5413C12.0662 23.2913 11.6104 23.4801 11.2744 23.8161C10.9384 24.1521 10.7497 24.6078 10.7497 25.083C10.7497 25.5582 10.9384 26.0139 11.2744 26.3499C11.6104 26.6859 12.0662 26.8747 12.5413 26.8747ZM34.0413 8.95801H8.95801C7.53247 8.95801 6.16532 9.5243 5.15731 10.5323C4.1493 11.5403 3.58301 12.9075 3.58301 14.333V30.458C3.58301 31.8835 4.1493 33.2507 5.15731 34.2587C6.16532 35.2667 7.53247 35.833 8.95801 35.833H34.0413C35.4669 35.833 36.834 35.2667 37.842 34.2587C38.8501 33.2507 39.4163 31.8835 39.4163 30.458V14.333C39.4163 12.9075 38.8501 11.5403 37.842 10.5323C36.834 9.5243 35.4669 8.95801 34.0413 8.95801ZM35.833 30.458C35.833 30.9332 35.6442 31.3889 35.3082 31.7249C34.9722 32.0609 34.5165 32.2497 34.0413 32.2497H8.95801C8.48283 32.2497 8.02711 32.0609 7.69111 31.7249C7.35511 31.3889 7.16634 30.9332 7.16634 30.458V19.708H35.833V30.458ZM35.833 16.1247H7.16634V14.333C7.16634 13.8578 7.35511 13.4021 7.69111 13.0661C8.02711 12.7301 8.48283 12.5413 8.95801 12.5413H34.0413C34.5165 12.5413 34.9722 12.7301 35.3082 13.0661C35.6442 13.4021 35.833 13.8578 35.833 14.333V16.1247Z" fill="#1E8BF5"/>
</svg>
