<svg width="40" height="40" viewBox="0 0 40 40" fill="none" xmlns="http://www.w3.org/2000/svg">
<path d="M35.0002 17.4999H33.3335V15.8333C33.3335 15.3912 33.1579 14.9673 32.8453 14.6547C32.5328 14.3422 32.1089 14.1666 31.6668 14.1666C31.2248 14.1666 30.8009 14.3422 30.4883 14.6547C30.1758 14.9673 30.0002 15.3912 30.0002 15.8333V17.4999H28.3335C27.8915 17.4999 27.4675 17.6755 27.155 17.9881C26.8424 18.3006 26.6668 18.7246 26.6668 19.1666C26.6668 19.6086 26.8424 20.0325 27.155 20.3451C27.4675 20.6577 27.8915 20.8333 28.3335 20.8333H30.0002V22.4999C30.0002 22.9419 30.1758 23.3659 30.4883 23.6784C30.8009 23.991 31.2248 24.1666 31.6668 24.1666C32.1089 24.1666 32.5328 23.991 32.8453 23.6784C33.1579 23.3659 33.3335 22.9419 33.3335 22.4999V20.8333H35.0002C35.4422 20.8333 35.8661 20.6577 36.1787 20.3451C36.4912 20.0325 36.6668 19.6086 36.6668 19.1666C36.6668 18.7246 36.4912 18.3006 36.1787 17.9881C35.8661 17.6755 35.4422 17.4999 35.0002 17.4999ZM22.1668 20.3666C23.0561 19.5968 23.7694 18.6447 24.2583 17.575C24.7472 16.5052 25.0002 15.3428 25.0002 14.1666C25.0002 11.9564 24.1222 9.83683 22.5594 8.27403C20.9966 6.71123 18.877 5.83325 16.6668 5.83325C14.4567 5.83325 12.3371 6.71123 10.7743 8.27403C9.21147 9.83683 8.3335 11.9564 8.3335 14.1666C8.33348 15.3428 8.5865 16.5052 9.07537 17.575C9.56425 18.6447 10.2775 19.5968 11.1668 20.3666C8.83373 21.4231 6.85427 23.1291 5.46513 25.2808C4.07599 27.4325 3.33595 29.9388 3.3335 32.4999C3.3335 32.9419 3.50909 33.3659 3.82165 33.6784C4.13421 33.991 4.55814 34.1666 5.00016 34.1666C5.44219 34.1666 5.86611 33.991 6.17867 33.6784C6.49124 33.3659 6.66683 32.9419 6.66683 32.4999C6.66683 29.8478 7.7204 27.3042 9.59576 25.4289C11.4711 23.5535 14.0147 22.4999 16.6668 22.4999C19.319 22.4999 21.8625 23.5535 23.7379 25.4289C25.6133 27.3042 26.6668 29.8478 26.6668 32.4999C26.6668 32.9419 26.8424 33.3659 27.155 33.6784C27.4675 33.991 27.8915 34.1666 28.3335 34.1666C28.7755 34.1666 29.1994 33.991 29.512 33.6784C29.8246 33.3659 30.0002 32.9419 30.0002 32.4999C29.9977 29.9388 29.2577 27.4325 27.8685 25.2808C26.4794 23.1291 24.4999 21.4231 22.1668 20.3666ZM16.6668 19.1666C15.6779 19.1666 14.7112 18.8733 13.889 18.3239C13.0667 17.7745 12.4259 16.9936 12.0474 16.08C11.669 15.1664 11.57 14.161 11.7629 13.1911C11.9558 12.2212 12.432 11.3303 13.1313 10.6311C13.8306 9.93179 14.7215 9.45559 15.6914 9.26266C16.6613 9.06973 17.6666 9.16875 18.5802 9.54719C19.4939 9.92563 20.2748 10.5665 20.8242 11.3887C21.3736 12.211 21.6668 13.1777 21.6668 14.1666C21.6668 15.4927 21.14 16.7644 20.2024 17.7021C19.2647 18.6398 17.9929 19.1666 16.6668 19.1666Z" fill="#909090"/>
</svg>
