<svg width="40" height="40" viewBox="0 0 40 40" fill="none" xmlns="http://www.w3.org/2000/svg">
<path d="M20.5001 20.3667C21.3894 19.5969 22.1027 18.6448 22.5915 17.5751C23.0804 16.5053 23.3334 15.3429 23.3334 14.1667C23.3334 11.9566 22.4554 9.83695 20.8926 8.27415C19.3298 6.71135 17.2102 5.83337 15.0001 5.83337C12.7899 5.83337 10.6703 6.71135 9.10752 8.27415C7.54472 9.83695 6.66675 11.9566 6.66675 14.1667C6.66674 15.3429 6.91975 16.5053 7.40862 17.5751C7.8975 18.6448 8.61079 19.5969 9.50008 20.3667C7.16698 21.4232 5.18752 23.1293 3.79838 25.2809C2.40924 27.4326 1.6692 29.9389 1.66675 32.5C1.66675 32.9421 1.84234 33.366 2.1549 33.6786C2.46746 33.9911 2.89139 34.1667 3.33341 34.1667C3.77544 34.1667 4.19937 33.9911 4.51193 33.6786C4.82449 33.366 5.00008 32.9421 5.00008 32.5C5.00008 29.8479 6.05365 27.3043 7.92901 25.429C9.80438 23.5536 12.3479 22.5 15.0001 22.5C17.6522 22.5 20.1958 23.5536 22.0711 25.429C23.9465 27.3043 25.0001 29.8479 25.0001 32.5C25.0001 32.9421 25.1757 33.366 25.4882 33.6786C25.8008 33.9911 26.2247 34.1667 26.6667 34.1667C27.1088 34.1667 27.5327 33.9911 27.8453 33.6786C28.1578 33.366 28.3334 32.9421 28.3334 32.5C28.331 29.9389 27.5909 27.4326 26.2018 25.2809C24.8126 23.1293 22.8332 21.4232 20.5001 20.3667ZM15.0001 19.1667C14.0112 19.1667 13.0445 18.8735 12.2222 18.3241C11.4 17.7746 10.7591 16.9938 10.3807 16.0801C10.0022 15.1665 9.90323 14.1612 10.0962 13.1913C10.2891 12.2214 10.7653 11.3304 11.4645 10.6312C12.1638 9.93191 13.0547 9.45571 14.0246 9.26278C14.9945 9.06986 15.9999 9.16887 16.9135 9.54731C17.8271 9.92575 18.608 10.5666 19.1574 11.3889C19.7068 12.2111 20.0001 13.1778 20.0001 14.1667C20.0001 15.4928 19.4733 16.7646 18.5356 17.7022C17.5979 18.6399 16.3262 19.1667 15.0001 19.1667ZM31.2334 19.7C32.3 18.4989 32.9968 17.0151 33.2397 15.4273C33.4827 13.8394 33.2616 12.2152 32.603 10.75C31.9444 9.28492 30.8764 8.04137 29.5275 7.16908C28.1787 6.29679 26.6064 5.83294 25.0001 5.83337C24.5581 5.83337 24.1341 6.00897 23.8216 6.32153C23.509 6.63409 23.3334 7.05801 23.3334 7.50004C23.3334 7.94207 23.509 8.36599 23.8216 8.67855C24.1341 8.99111 24.5581 9.16671 25.0001 9.16671C26.3262 9.16671 27.5979 9.69349 28.5356 10.6312C29.4733 11.5689 30.0001 12.8406 30.0001 14.1667C29.9977 15.0421 29.7656 15.9015 29.3269 16.6591C28.8881 17.4166 28.2582 18.0457 27.5001 18.4834C27.253 18.6259 27.0466 18.8295 26.9007 19.0746C26.7548 19.3197 26.6742 19.5982 26.6667 19.8834C26.6598 20.1663 26.725 20.4464 26.8562 20.6971C26.9874 20.9479 27.1803 21.1611 27.4167 21.3167L28.0667 21.75L28.2834 21.8667C30.2924 22.8196 31.9873 24.3267 33.1684 26.2106C34.3495 28.0944 34.9677 30.2766 34.9501 32.5C34.9501 32.9421 35.1257 33.366 35.4382 33.6786C35.7508 33.9911 36.1747 34.1667 36.6167 34.1667C37.0588 34.1667 37.4827 33.9911 37.7953 33.6786C38.1078 33.366 38.2834 32.9421 38.2834 32.5C38.297 29.9424 37.6565 27.4238 36.4225 25.1835C35.1886 22.9432 33.4023 21.0556 31.2334 19.7Z" fill="#8B8B8B"/>
</svg>
